<svg width="271" height="380" viewBox="0 0 271 380" fill="none" xmlns="http://www.w3.org/2000/svg">
<path d="M184.051 16.7216H187.253C192.741 17.0302 198.06 18.8795 202.774 21.6629C209.827 25.8109 215.704 31.7161 220.593 38.2305C226.816 46.5861 231.494 56.0789 234.423 66.0752C236.151 71.994 237.712 77.9831 238.583 84.0941C239.253 88.9569 239.434 93.9768 238.245 98.7746C237.455 102.081 235.989 105.173 234.353 108.135C232.249 111.969 229.293 115.391 225.577 117.733C224.33 118.499 223.04 119.23 221.623 119.617C224.95 117.966 227.635 114.988 228.66 111.384C230.004 106.773 229.06 101.842 227.413 97.4398C226.026 93.7196 224.157 90.1158 221.418 87.2078C218.338 83.845 214.335 81.4353 210.092 79.8324C203.864 77.4443 197.216 76.54 190.672 75.4651C185.623 74.6284 180.479 73.8135 175.781 71.6853C172.496 70.2097 169.978 67.3586 168.509 64.1041C166.297 59.2765 165.781 53.9209 165.134 48.7115C164.777 46.0825 164.545 43.3912 163.571 40.9002C163.109 39.6845 162.251 38.504 160.951 38.1276C159.285 37.6105 157.54 37.1231 155.785 37.2287C154.365 37.7215 153.035 38.4363 151.691 39.0942C148.167 40.9381 144.73 43.0446 141.828 45.7874C138.372 48.9552 136.368 53.4011 135.254 57.8848C135.007 58.8947 134.805 59.9182 134.769 60.9579C134.602 61.9462 134.396 62.9507 134.559 63.9552C132.914 63.1375 131.862 61.5157 131.056 59.9236C129.104 55.6781 128.549 50.3767 131.062 46.2314C131.181 46.0202 131.308 45.809 131.44 45.6033C133.339 42.7224 135.903 40.3533 138.658 38.309C142.788 35.2332 147.139 32.4607 151.583 29.8587C152.94 29.1195 154.314 28.2369 155.902 28.1502C163.201 20.6502 173.756 17.0654 184.051 16.7216ZM185.977 23.3497C182.391 24.097 179.248 26.4851 177.28 29.5392C181.26 27.2378 185.863 26.2955 190.415 26.106C194.561 25.8732 198.706 26.2495 202.814 26.7856C202.303 26.4336 201.738 26.1791 201.157 25.976C197.784 24.6683 194.242 23.8614 190.68 23.2901C189.122 23.041 187.524 23.0302 185.977 23.3497ZM163.347 29.4688C156.396 30.4056 149.757 33.3163 144.254 37.6511C142.123 39.2757 140.232 41.1845 138.315 43.05C135.483 44.9534 133.247 47.6529 131.327 50.4498C130.313 51.7576 130.486 53.5473 130.764 55.0771C131.359 57.5464 132.157 59.9805 133.269 62.2711C133.709 57.327 135.186 52.383 138.161 48.3596C139.965 45.8523 142.42 43.9327 144.849 42.0726C148.235 39.5383 152.086 37.4643 156.296 36.7874C158.168 36.7116 160.145 36.8578 161.832 37.7459C163.836 38.8479 165.004 40.9652 165.699 43.0744C167.409 48.105 167.106 53.4985 168.055 58.67C168.655 61.6592 169.948 64.5481 172.02 66.8117C175.103 70.2097 179.481 72.0535 183.849 73.1501C188.419 74.1817 193.081 74.7178 197.714 75.3866C203.285 76.207 208.94 77.0626 214.14 79.3288C218.746 81.281 222.757 84.6519 225.347 88.9461C227.267 92.1085 228.744 95.5309 229.904 99.0399C231.108 102.801 231.689 106.862 230.761 110.753C233.152 107.065 234.764 102.882 235.702 98.5932C236.073 96.6708 236.465 94.7214 236.335 92.7557C237.138 89.3928 236.998 85.854 236.111 82.5237C234.864 77.6501 232.36 73.207 229.515 69.1023C226.732 65.1086 223.484 61.3451 219.425 58.605C216.512 56.6014 213.191 55.3234 210.151 53.5446C207.363 51.9254 205.064 49.6213 202.852 47.309C201.735 46.0852 200.548 44.9182 199.534 43.6078C202.741 43.3641 205.949 43.8623 209.102 44.4065C213.237 45.1348 217.296 46.2206 221.356 47.2819C220.766 46.7919 220.052 46.5103 219.363 46.2016C215.871 44.5852 212.288 43.096 208.523 42.2486C205.443 41.5419 202.076 41.8262 199.301 43.402C196.07 40.0175 192.984 36.3894 189.057 33.7739C187.234 32.5338 185.128 31.8298 183.048 31.1665C176.701 29.217 169.932 28.5455 163.347 29.4688ZM213.37 54.013C213.624 54.1565 213.894 54.2485 214.192 54.2756C216.374 54.5247 218.416 55.4128 220.433 56.2359C222.981 57.2702 225.361 58.6565 227.833 59.8397C227.105 59.0464 226.153 58.5238 225.299 57.8902C223.608 56.7557 221.997 55.4372 220.06 54.7413C217.932 53.9507 215.614 53.791 213.37 54.013Z" fill="#8EBC45" stroke="#8EBC45" stroke-width="0.0938"/>
<path d="M185.977 23.3497C187.524 23.0302 189.122 23.0411 190.68 23.2902C194.241 23.8615 197.784 24.6683 201.157 25.9761C201.738 26.1791 202.303 26.4336 202.814 26.7856C198.706 26.2495 194.561 25.8732 190.415 26.106C185.863 26.2956 181.26 27.2378 177.28 29.5392C179.248 26.4851 182.391 24.097 185.977 23.3497Z" fill="#4C8A3F" stroke="#4C8A3F" stroke-width="0.0938"/>
<path d="M120.055 24.8227C121.367 24.4626 122.746 24.0158 124.114 24.2812C125.045 24.5844 125.136 25.6999 125.323 26.5122C125.688 29.0709 126.624 31.486 127.552 33.8795C129.055 37.7134 130.41 41.6123 131.44 45.6033C131.308 45.8091 131.181 46.0203 131.062 46.2315C129.961 41.9454 128.449 37.7757 126.973 33.606C125.926 30.8552 124.999 28.0555 123.773 25.375C122.365 27.3299 121.012 29.3904 119.149 30.9472C117.708 32.0709 115.942 32.6855 114.168 33.0402C116.239 33.958 117.713 35.7586 119.038 37.532C123.719 43.9354 126.07 51.6277 128.311 59.1385C130.989 67.9056 133.296 76.7783 135.748 85.6077C135.978 83.3171 135.803 81.0157 135.77 78.7196C135.675 74.2819 135.283 69.855 134.918 65.4336C134.872 64.9246 134.699 64.4426 134.559 63.9552C134.396 62.9507 134.602 61.9462 134.77 60.958C135.221 63.0699 135.505 65.2143 135.838 67.3451C136.465 71.7314 137.011 76.1312 137.263 80.5554C137.347 82.6429 137.479 84.763 137.087 86.8315C137.006 87.411 136.606 87.855 136.27 88.3072C133.355 88.911 130.353 89.1925 127.381 88.9082C127.23 84.2458 126.424 79.6267 125.472 75.0671C125.112 73.2774 124.688 71.5013 124.252 69.7278C122.627 63.5383 120.799 57.3054 117.518 51.7657C115.163 47.7721 112.496 43.8813 109.021 40.7757C107.712 39.6873 106.079 38.4174 104.267 38.9643C103.42 39.0456 102.255 39.5221 101.603 38.7721C101.116 37.7595 101.616 36.606 101.817 35.5717C102.225 33.7225 103.607 32.3037 105.067 31.1963C107.358 29.4635 109.978 28.2342 112.634 27.1756C115.006 26.2631 117.421 25.4373 119.901 24.8633C118.073 25.9761 115.993 26.5582 114.062 27.4599C110.646 28.9923 106.92 30.3299 104.402 33.2459C103.71 34.0095 103.25 34.9463 102.974 35.9319C106.552 35.079 109.984 33.7062 113.316 32.1629C116.112 30.8145 118.903 29.3687 121.329 27.4111C122.145 26.7017 123.168 25.8624 123.011 24.6548C122.021 24.6142 121.034 24.6954 120.055 24.8227Z" fill="#A1631A" stroke="#A1631A" stroke-width="0.0938"/>
<path d="M120.055 24.8226C121.034 24.6953 122.021 24.6141 123.011 24.6547C123.168 25.8623 122.145 26.7016 121.329 27.411C118.903 29.3686 116.112 30.8144 113.316 32.1628C109.984 33.7061 106.552 35.0789 102.974 35.9317C103.25 34.9462 103.71 34.0094 104.402 33.2458C106.92 30.3298 110.646 28.9922 114.062 27.4597C115.993 26.5581 118.073 25.976 119.901 24.8632L120.055 24.8226Z" fill="#D08729" stroke="#D08729" stroke-width="0.0938"/>
<path d="M123.773 25.375C124.999 28.0555 125.926 30.8551 126.973 33.606C128.449 37.7757 129.961 41.9454 131.062 46.2314C128.549 50.3767 129.104 55.6782 131.056 59.9236C131.862 61.5157 132.914 63.1375 134.559 63.9552C134.699 64.4426 134.872 64.9245 134.918 65.4336C135.283 69.855 135.675 74.2819 135.77 78.7196C135.803 81.0156 135.978 83.3171 135.748 85.6077C133.296 76.7783 130.989 67.9056 128.311 59.1385C126.069 51.6276 123.719 43.9354 119.038 37.532C117.713 35.7585 116.239 33.958 114.167 33.0401C115.942 32.6855 117.708 32.0708 119.149 30.9472C121.012 29.3903 122.364 27.3299 123.773 25.375Z" fill="#70461B" stroke="#70461B" stroke-width="0.0938"/>
<path d="M163.347 29.4689C169.932 28.5456 176.701 29.2171 183.048 31.1665C185.128 31.8299 187.235 32.5338 189.057 33.7739C192.984 36.3894 196.07 40.0176 199.302 43.402C202.076 41.8262 205.443 41.5419 208.523 42.2486C212.288 43.0961 215.871 44.5853 219.363 46.2017C220.052 46.5103 220.766 46.7919 221.356 47.282C217.296 46.2206 213.237 45.1349 209.102 44.4066C205.949 43.8623 202.741 43.3641 199.534 43.6078C200.548 44.9183 201.735 46.0853 202.852 47.3091C205.065 49.6213 207.363 51.9255 210.151 53.5446C213.191 55.3235 216.512 56.6015 219.425 58.6051C223.484 61.3451 226.732 65.1087 229.515 69.1023C232.36 73.207 234.864 77.6502 236.111 82.5238C236.998 85.8541 237.139 89.3929 236.335 92.7557C236.13 93.346 235.867 93.9118 235.6 94.4777C235.692 93.1889 235.995 91.9245 236.07 90.633C236.327 86.4389 235.454 82.1556 233.401 78.476C230.789 73.6294 227.438 69.2079 223.695 65.1845C221.675 63.0969 219.476 61.1015 216.823 59.8533C208.715 55.3885 201.181 49.5293 195.78 41.9318C192.957 38.2062 189.298 35.0167 184.911 33.2974C179.484 30.9499 173.461 30.3326 167.606 30.7062C161.916 30.9851 156.34 32.6015 151.274 35.1846C147.321 37.0961 143.659 39.56 140.2 42.2513C139.042 43.1232 138.047 44.1927 136.833 44.986C137.29 44.3145 137.777 43.662 138.315 43.0501C140.232 41.1845 142.123 39.2757 144.254 37.6512C149.757 33.3163 156.396 30.4057 163.347 29.4689Z" fill="#4C8A3F" stroke="#4C8A3F" stroke-width="0.0938"/>
<path d="M167.606 30.7061C173.461 30.3325 179.484 30.9498 184.911 33.2973C189.298 35.0166 192.957 38.2061 195.78 41.9318C201.181 49.5292 208.715 55.3884 216.823 59.8532C219.476 61.1014 221.675 63.0969 223.695 65.1844C227.438 69.2079 230.789 73.6293 233.401 78.4759C235.454 82.1555 236.327 86.4389 236.07 90.6329C235.995 91.9244 235.692 93.1888 235.6 94.4776C235.867 93.9118 236.13 93.3459 236.335 92.7556C236.465 94.7213 236.073 96.6708 235.702 98.5932C234.764 102.882 233.152 107.065 230.762 110.753C231.689 106.862 231.108 102.801 229.904 99.0399C228.744 95.5309 227.267 92.1085 225.347 88.9461C222.757 84.6519 218.746 81.2809 214.14 79.3288C208.94 77.0625 203.285 76.2069 197.714 75.3865C193.081 74.7178 188.419 74.1817 183.849 73.1501C179.481 72.0535 175.103 70.2097 172.02 66.8116C169.948 64.5481 168.655 61.6591 168.055 58.67C167.106 53.4985 167.409 48.105 165.7 43.0743C165.005 40.9651 163.836 38.8478 161.832 37.7458C160.145 36.8578 158.168 36.7115 156.296 36.7874C152.086 37.4643 148.235 39.5383 144.849 42.0725C142.42 43.9326 139.965 45.8523 138.161 48.3595C135.186 52.383 133.709 57.327 133.269 62.271C132.157 59.9804 131.359 57.5463 130.764 55.077C130.486 53.5472 130.313 51.7575 131.327 50.4498C133.247 47.6529 135.483 44.9534 138.315 43.05C137.777 43.6619 137.29 44.3144 136.833 44.9859C138.047 44.1926 139.042 43.1231 140.2 42.2512C143.659 39.5599 147.321 37.096 151.274 35.1845C156.34 32.6015 161.916 30.985 167.606 30.7061ZM175.771 33.4706C177.396 37.9868 177.326 42.9011 176.817 47.6122C176.422 51.3135 175.43 54.9092 174.483 58.4913C174.811 58.0554 175.086 57.5815 175.306 57.0806C177.439 52.5021 179.184 47.577 179.14 42.4651C179.105 39.2242 178.142 35.7828 175.771 33.4706ZM192.773 41.263C193.138 42.3379 193.785 43.2855 194.198 44.3388C195.031 46.4074 195.491 48.6086 195.77 50.818C196.124 54.3108 196.197 57.8523 195.683 61.3315C195.596 61.9055 195.559 62.4876 195.58 63.0698C196.008 62.2115 196.127 61.2503 196.335 60.3243C197.057 56.8586 197.279 53.2548 196.703 49.7485C196.124 46.67 194.956 43.5617 192.773 41.263ZM208.077 58.6835C208.434 60.8712 209.473 62.8667 210.6 64.7485C212.572 67.9109 214.844 70.892 217.407 73.6022C218.037 74.2439 218.63 74.9642 219.463 75.3568C218.394 73.6699 216.95 72.262 215.825 70.6131C212.715 66.281 209.786 61.6754 208.364 56.4823C207.855 57.0996 208.001 57.9498 208.077 58.6835ZM228.606 76.5156C228.487 77.6067 228.579 78.7033 228.52 79.7972C228.463 80.9966 228.187 82.188 228.319 83.3928C228.979 81.1916 229.115 78.752 228.606 76.5156Z" fill="#6CA442" stroke="#6CA442" stroke-width="0.0938"/>
<path d="M175.771 33.4706C178.142 35.7828 179.105 39.2242 179.14 42.4651C179.184 47.577 177.439 52.5021 175.306 57.0806C175.086 57.5815 174.811 58.0554 174.483 58.4913C175.43 54.9092 176.422 51.3135 176.817 47.6122C177.326 42.9011 177.396 37.9868 175.771 33.4706Z" fill="#4C8A3F" stroke="#4C8A3F" stroke-width="0.0938"/>
<path d="M192.773 41.2631C194.955 43.5618 196.124 46.6701 196.702 49.7486C197.278 53.2549 197.057 56.8587 196.335 60.3244C196.126 61.2504 196.007 62.2116 195.58 63.0699C195.558 62.4877 195.596 61.9056 195.683 61.3316C196.197 57.8524 196.124 54.3109 195.769 50.8181C195.491 48.6087 195.031 46.4075 194.198 44.3389C193.784 43.2856 193.138 42.338 192.773 41.2631Z" fill="#4C8A3F" stroke="#4C8A3F" stroke-width="0.0938"/>
<path d="M213.37 54.013C215.614 53.7909 217.932 53.9507 220.06 54.7413C221.997 55.4371 223.608 56.7557 225.299 57.8902C226.153 58.5238 227.105 59.0463 227.833 59.8397C225.361 58.6564 222.981 57.2702 220.433 56.2359C218.416 55.4128 216.374 54.5247 214.192 54.2756C213.894 54.2485 213.624 54.1565 213.37 54.013Z" fill="#4D8B3F" stroke="#4D8B3F" stroke-width="0.0938"/>
<path d="M208.077 58.6836C208.001 57.9498 207.855 57.0996 208.364 56.4823C209.786 61.6754 212.715 66.281 215.825 70.6131C216.95 72.262 218.394 73.67 219.463 75.3568C218.63 74.9642 218.037 74.244 217.407 73.6023C214.843 70.892 212.572 67.911 210.6 64.7485C209.473 62.8668 208.434 60.8713 208.077 58.6836Z" fill="#4C8A3F" stroke="#4C8A3F" stroke-width="0.0938"/>
<path d="M135.838 67.3451C140.968 66.9011 146.204 67.1935 151.142 68.7341C159.788 70.8893 167.885 76.1664 172.469 83.929C170.01 87.2701 167.557 90.6221 164.956 93.8523C164.52 94.3207 164.902 94.984 164.972 95.5255C166.327 100.223 167.146 105.045 168.012 109.851C170.694 125.555 171.7 141.481 172.972 157.339C173.423 161.106 173.602 164.915 174.448 168.625C176.409 177.519 179.243 186.213 182.751 194.615C186.821 204.411 191.699 213.865 195.364 223.829C198.236 231.481 199.959 239.568 200.299 247.74C201.054 261.703 200.892 275.782 198.677 289.615C197.078 299.409 194.444 309.153 189.741 317.939C186.948 323.211 183.224 327.927 179.11 332.219C177.436 333.909 175.679 335.582 173.558 336.697C172.606 337.166 171.406 337.58 170.408 337.009C169.415 336.386 169.161 335.119 169.045 334.038C168.82 331.339 169.386 328.653 169.989 326.038C170.93 322.274 171.846 318.497 172.414 314.655C172.734 312.324 173.15 309.933 172.717 307.591C172.642 306.882 172.03 306.042 171.235 306.44C169.921 307.033 169.061 308.27 168.185 309.367C163.22 316.531 157.037 322.742 150.712 328.699C147.686 331.526 144.519 334.195 141.333 336.841C138.988 338.582 136.676 340.369 134.25 341.996C132.617 343.125 130.845 344.038 129.22 345.177C124.331 345.286 119.636 343.331 115.539 340.799C115.555 342.646 115.668 344.563 116.491 346.255C114.324 345.018 112.426 343.369 110.676 341.601C107.174 338.243 104.14 334.431 101.37 330.456C96.4429 323.214 92.0483 315.427 89.8767 306.876C89.3007 305.097 88.6029 303.27 87.2832 301.902C86.5124 301.079 85.3442 300.562 84.2164 300.86C82.7236 301.231 81.6446 302.468 80.8684 303.733C79.5162 306.02 78.7725 308.658 78.6806 311.314C78.5562 313.656 78.8942 316.003 78.6833 318.345C78.118 324.213 75.7409 330.015 71.6113 334.271C69.7074 336.139 67.3519 337.699 64.6719 338.102C61.7268 338.495 58.8142 337.612 56.0476 336.7C48.4185 334.093 41.2492 330.367 34.0826 326.717C36.5057 329.533 39.2507 332.073 42.1011 334.455C42.9935 335.222 44.0537 335.85 44.6378 336.914C38.4285 332.687 32.7575 327.646 27.9085 321.9C23.3624 316.491 19.6358 310.377 17.0207 303.803C14.1486 296.728 12.8613 289.125 12.2961 281.544C11.2116 268.336 12.526 254.929 16.2661 242.214C21.875 222.995 32.8981 205.634 46.8148 191.368C53.3594 184.683 60.5179 178.57 68.3255 173.412C71.1191 170.883 73.2258 167.682 75.0918 164.431C80.5817 154.556 83.0589 143.303 84.0785 132.135C85.0981 122.864 86.5287 113.574 89.4494 104.691C92.1186 96.4597 96.2861 88.5806 102.409 82.3965C108.391 76.3072 116.109 72.1294 124.252 69.7278C124.688 71.5013 125.112 73.2774 125.472 75.0671C125.207 75.5328 124.915 76.0121 124.936 76.5698C124.861 78.679 125.026 80.8234 124.539 82.8947C124.439 83.2792 124.233 83.9047 123.717 83.7801C122.721 82.8216 122.283 81.4435 121.402 80.3902C120.371 79.1393 119.298 77.6989 117.643 77.2846C117.545 78.5085 118.6 79.8595 117.729 80.9561C116.569 82.1529 114.408 81.7657 113.443 80.5012C112.737 79.6131 112.826 78.4191 112.723 77.3523C112.247 77.5202 111.587 77.5067 111.352 78.0428C110.673 79.5617 111.003 81.4353 112.058 82.7052C113.408 84.3541 115.395 85.2774 117.31 86.0978C120.561 87.3758 123.952 88.2611 127.381 88.9083C130.353 89.1925 133.355 88.911 136.27 88.3072C138.166 88.2178 139.992 87.6628 141.833 87.2431C144.911 86.4362 148.034 85.5915 150.82 84.0048C151.956 83.2982 153.24 82.4101 153.486 80.9913C153.624 79.9245 152.894 79.0094 152.153 78.3379C150.222 76.605 148.232 74.8126 145.765 73.8866C144.021 73.2368 142.182 72.8875 140.37 72.4895C139.575 72.3514 138.561 72.1159 137.955 72.8198C137.598 74.2657 138.331 75.6926 138.377 77.1384C138.488 78.3812 137.893 79.5292 137.263 80.5554C137.011 76.1312 136.465 71.7314 135.838 67.3451ZM109.562 93.0698C107.539 93.8577 105.968 95.4578 104.645 97.1311C102.268 100.229 100.608 103.808 99.2663 107.458C99.004 108.124 98.8769 108.86 98.4415 109.448C98.4685 109.629 98.5253 109.992 98.5524 110.174C97.0352 111.251 95.5505 112.418 94.4336 113.932C91.2695 118.082 89.8957 123.305 89.3277 128.42C91.164 124.245 93.4384 120.186 96.6106 116.869C96.0157 120.105 95.6668 123.378 95.2801 126.646C94.9772 129.045 94.5742 131.433 94.2308 133.827L94.1686 133.843C93.6061 137.211 92.8542 140.544 92.0862 143.869L92.0375 143.88C91.1613 147.478 90.0714 151.023 88.914 154.537C88.3623 155.78 87.9647 157.085 87.4401 158.339C84.4085 165.909 80.4303 173.32 74.4617 178.984C72.1955 181.188 69.4586 182.796 66.9355 184.667C65.2912 185.875 63.6632 187.101 62.1027 188.412L62.0892 188.487C61.1373 189.164 60.2692 189.952 59.3794 190.71C45.222 202.973 34.1178 218.663 26.8863 235.924L26.8295 235.929C24.7498 240.846 22.8973 245.877 21.51 251.035L21.4505 250.965C20.4769 254.636 19.4817 258.321 18.9814 262.093C22.9757 255.01 26.8727 247.864 31.17 240.957C32.6385 238.488 34.3422 236.16 35.7756 233.671C36.3354 233.138 36.6842 232.407 37.1521 231.792C40.1215 227.522 43.2965 223.396 46.7121 219.473L46.7229 219.362C46.9609 219.172 47.1881 218.972 47.4071 218.763C53.181 212.349 59.7986 206.479 67.6413 202.737C69.8859 201.768 72.2225 200.977 74.3157 199.691C76.7632 198.237 79.0376 196.507 81.2011 194.658C87.7403 188.994 93.3708 182.344 98.3982 175.32C104.302 166.965 109.494 157.976 112.677 148.212C113.375 145.884 114.111 143.525 114.349 141.105C114.971 138.392 115.279 135.617 115.66 132.863C115.755 131.734 116.031 130.608 115.969 129.473C116.247 127.323 116.504 125.149 116.512 122.98C116.753 120.99 116.793 118.984 116.856 116.983C116.983 113.236 117.037 109.475 116.753 105.733C116.658 103.526 116.393 101.322 116.012 99.1456H115.969C115.625 97.28 115.117 95.3956 114.019 93.8252C112.926 92.5418 111.033 92.4958 109.562 93.0698ZM150.633 123.592C154.603 124.036 158.652 124.987 162.022 127.223C164.204 128.631 165.494 130.997 166.416 133.356C167.836 136.957 168.612 140.769 169.21 144.581C169.68 142.892 169.897 141.143 170.062 139.399C170.375 135.032 169.918 130.342 167.382 126.641C165.902 124.399 163.444 122.918 160.818 122.458C157.405 121.878 153.868 122.417 150.633 123.592ZM115.885 178.448C112.983 180.695 111.074 183.985 109.716 187.345C107.901 191.72 107.352 196.675 108.275 201.332C108.894 204.17 110.214 207.167 112.861 208.637C114.941 209.815 117.572 209.395 119.501 208.115C122.665 206.057 124.682 202.653 125.98 199.182C127.408 195.145 128.025 190.727 127.246 186.486C127.259 184.19 127.005 181.819 126.01 179.72C125.318 178.239 124.011 176.977 122.37 176.658C120.079 176.206 117.702 177.059 115.885 178.448ZM135.705 180.654C134.139 182.688 133.136 185.203 132.895 187.756L132.868 187.829C131.8 192.684 132.29 197.858 134.134 202.467C135.313 205.274 137.09 208.052 139.859 209.501C141.703 210.497 144.064 210.408 145.798 209.214C148.205 207.589 149.503 204.798 150.22 202.069C151.458 197.035 150.985 191.609 149.035 186.822C148.732 185.382 147.978 184.09 147.304 182.799C146.079 180.668 144.389 178.448 141.855 177.898C139.491 177.53 137.157 178.854 135.705 180.654ZM165.375 203.653C163.901 204.256 163.625 206.479 164.915 207.419C166.148 208.521 168.342 207.643 168.507 206.005C168.837 204.34 166.887 202.865 165.375 203.653ZM125.088 207.24C121.797 207.627 118.467 208.602 115.793 210.625C114.127 211.894 112.707 213.814 112.799 216.004C112.853 218.235 114.411 220.096 116.152 221.33C119.576 223.708 123.83 224.563 127.935 224.633C132.084 224.617 136.387 223.8 139.883 221.452C141.85 220.125 143.599 217.962 143.383 215.452C143.161 212.842 141.071 210.876 138.921 209.644C134.745 207.327 129.783 206.734 125.088 207.24ZM85.0007 208.494C83.3267 209.106 83.0211 211.629 84.5085 212.617C85.9094 213.763 88.2541 212.652 88.2838 210.849C88.4677 209.152 86.5422 207.798 85.0007 208.494ZM98.5416 219.072C97.3516 219.562 97.2786 221.441 98.4523 221.996C99.4584 222.624 100.867 221.758 100.867 220.602C100.93 219.44 99.5882 218.536 98.5416 219.072ZM151.572 221.263C150.852 221.566 150.747 222.654 151.42 223.071C151.98 223.529 152.864 223.144 153.035 222.476C153.292 221.677 152.313 220.824 151.572 221.263ZM169.434 223.732C167.733 223.978 166.403 225.654 166.576 227.374C166.673 229.152 168.355 230.663 170.14 230.525C172.006 230.49 173.588 228.698 173.391 226.837C173.299 224.907 171.335 223.345 169.434 223.732ZM71.1164 241.986C76.3467 249.941 83.2997 256.515 89.4792 263.696C92.3566 267.259 94.2767 271.477 95.9399 275.715C100.445 287.482 102.739 299.92 106.208 311.999C107.239 315.375 108.288 318.876 110.56 321.659C114.062 326.073 119.425 328.824 124.971 329.544C131.21 330.408 137.704 328.518 142.658 324.662C144.275 323.498 145.576 321.957 146.647 320.289C148.959 316.686 150.612 312.711 152.188 308.744C154.89 301.78 157.202 294.676 159.709 287.644C161.935 281.465 164.207 275.273 167.268 269.452C169.35 265.439 172.441 261.998 176.068 259.323C182.54 254.555 190.423 252.029 198.336 251.057C195.367 249.976 192.127 250.542 189.084 250.984C185.209 251.75 181.239 252.54 177.753 254.493C174.646 256.196 171.79 258.321 168.68 260.021C164.591 262.32 160.12 263.896 155.536 264.86C146.826 266.682 137.861 266.72 129.006 266.292C124.958 266.046 120.899 265.805 116.893 265.131C112.318 264.378 107.804 263.214 103.458 261.592C94.339 258.218 86.0095 252.773 79.1998 245.831C73.1582 239.642 68.1362 232.385 64.8044 224.382C65.1073 230.723 67.6602 236.742 71.1164 241.986ZM83.681 229.125C82.6506 229.347 81.8231 230.363 81.9231 231.438C81.9718 232.672 83.1996 233.723 84.4328 233.525C85.5524 233.392 86.4773 232.307 86.3691 231.17C86.3259 229.867 84.9575 228.795 83.681 229.125Z" fill="#FBED17" stroke="#FBED17" stroke-width="0.0938"/>
<path d="M115.17 133.113C118.241 132.847 121.375 133.022 124.331 133.944C129.507 135.234 134.353 138.391 137.097 143.036C135.626 145.035 134.157 147.041 132.6 148.974C132.339 149.254 132.568 149.651 132.61 149.975C133.421 152.786 133.911 155.671 134.429 158.547C136.035 167.943 136.637 177.473 137.398 186.961C137.669 189.215 137.775 191.494 138.282 193.714C139.456 199.036 141.152 204.238 143.252 209.265C145.688 215.127 148.609 220.784 150.802 226.746C152.521 231.324 153.552 236.164 153.756 241.053C154.208 249.408 154.111 257.832 152.785 266.109C151.828 271.969 150.252 277.8 147.437 283.057C145.764 286.211 143.535 289.034 141.073 291.601C140.071 292.612 139.019 293.614 137.75 294.281C137.18 294.561 136.461 294.809 135.864 294.467C135.27 294.095 135.117 293.337 135.048 292.69C134.913 291.075 135.252 289.468 135.613 287.903C136.176 285.651 136.725 283.391 137.065 281.092C137.256 279.697 137.505 278.267 137.246 276.865C137.201 276.441 136.835 275.938 136.359 276.177C135.572 276.531 135.057 277.272 134.533 277.928C131.561 282.215 127.86 285.931 124.074 289.495C122.262 291.187 120.367 292.784 118.46 294.367C117.056 295.409 115.672 296.478 114.22 297.452C113.242 298.127 112.182 298.673 111.209 299.355C108.282 299.42 105.472 298.25 103.02 296.736C103.029 297.84 103.097 298.987 103.589 300C102.293 299.26 101.156 298.273 100.109 297.215C98.0126 295.206 96.1963 292.925 94.5387 290.547C91.5892 286.213 88.9586 281.554 87.6587 276.437C87.3139 275.373 86.8963 274.279 86.1063 273.461C85.6449 272.969 84.9456 272.659 84.2705 272.838C83.377 273.06 82.7311 273.8 82.2665 274.557C81.4571 275.925 81.0119 277.503 80.9568 279.093C80.8824 280.494 81.0847 281.899 80.9585 283.3C80.6201 286.811 79.1972 290.283 76.7253 292.829C75.5856 293.947 74.1756 294.881 72.5714 295.122C70.8085 295.357 69.0651 294.829 67.409 294.283C62.8424 292.723 58.5509 290.493 54.261 288.309C55.7115 289.994 57.3546 291.514 59.0608 292.94C59.595 293.398 60.2296 293.774 60.5793 294.411C56.8625 291.882 53.4678 288.865 50.5653 285.427C47.8441 282.19 45.6134 278.532 44.048 274.599C42.3288 270.365 41.5582 265.816 41.2199 261.28C40.5708 253.377 41.3575 245.354 43.5963 237.746C46.9537 226.247 53.552 215.859 61.8824 207.323C65.7999 203.323 70.0849 199.665 74.7584 196.578C76.4306 195.065 77.6917 193.15 78.8087 191.204C82.0949 185.296 83.5777 178.563 84.188 171.88C84.7983 166.333 85.6546 160.774 87.4029 155.459C89.0007 150.534 91.4953 145.819 95.1603 142.119C98.7411 138.475 103.361 135.976 108.235 134.539C108.496 135.6 108.75 136.662 108.965 137.733C108.807 138.012 108.632 138.299 108.645 138.633C108.6 139.895 108.698 141.178 108.407 142.417C108.347 142.647 108.224 143.021 107.915 142.947C107.319 142.373 107.057 141.549 106.529 140.918C105.912 140.17 105.27 139.308 104.279 139.06C104.221 139.793 104.852 140.601 104.331 141.257C103.636 141.973 102.343 141.741 101.765 140.985C101.343 140.454 101.396 139.739 101.334 139.101C101.05 139.201 100.655 139.193 100.514 139.514C100.107 140.423 100.305 141.544 100.936 142.304C101.744 143.29 102.934 143.843 104.08 144.334C106.026 145.098 108.056 145.628 110.108 146.015C111.887 146.185 113.684 146.017 115.429 145.656C116.564 145.602 117.657 145.27 118.759 145.019C120.601 144.536 122.471 144.031 124.139 143.081C124.818 142.658 125.587 142.127 125.735 141.278C125.817 140.64 125.38 140.092 124.937 139.69C123.781 138.654 122.589 137.581 121.113 137.027C120.069 136.638 118.968 136.429 117.884 136.191C117.408 136.108 116.801 135.967 116.438 136.389C116.224 137.254 116.663 138.108 116.69 138.973C116.757 139.716 116.401 140.403 116.023 141.017C115.873 138.37 115.546 135.737 115.17 133.113ZM99.442 148.505C98.2312 148.977 97.2906 149.934 96.499 150.935C95.0761 152.789 94.0822 154.931 93.2792 157.114C93.1222 157.513 93.0461 157.954 92.7855 158.305C92.8017 158.414 92.8357 158.631 92.8519 158.739C91.9437 159.384 91.055 160.083 90.3864 160.988C88.4924 163.472 87.6701 166.597 87.3301 169.657C88.4293 167.159 89.7907 164.731 91.6896 162.746C91.3334 164.682 91.1246 166.641 90.8931 168.596C90.7118 170.031 90.4706 171.46 90.265 172.893L90.2278 172.902C89.8911 174.918 89.441 176.912 88.9813 178.901L88.9522 178.908C88.4277 181.061 87.7753 183.182 87.0824 185.285C86.7522 186.028 86.5142 186.809 86.2002 187.559C84.3855 192.089 82.0042 196.523 78.4315 199.912C77.0749 201.231 75.4367 202.194 73.9264 203.313C72.9421 204.036 71.9676 204.769 71.0336 205.554L71.0255 205.599C70.4556 206.004 69.936 206.475 69.4034 206.929C60.9289 214.266 54.2821 223.655 49.9534 233.983L49.9194 233.986C48.6745 236.928 47.5657 239.938 46.7352 243.025L46.6996 242.983C46.1168 245.179 45.5211 247.384 45.2216 249.641C47.6126 245.403 49.9453 241.128 52.5176 236.995C53.3966 235.517 54.4165 234.124 55.2744 232.635C55.6095 232.316 55.8184 231.878 56.0984 231.511C57.8759 228.956 59.7763 226.487 61.8209 224.139L61.8274 224.073C61.9698 223.959 62.1058 223.84 62.2369 223.715C65.6931 219.877 69.6543 216.364 74.3489 214.125C75.6925 213.545 77.0911 213.072 78.3441 212.303C79.8091 211.433 81.1705 210.398 82.4656 209.291C86.3799 205.902 89.7502 201.923 92.7596 197.72C96.2935 192.721 99.4016 187.342 101.307 181.5C101.725 180.107 102.165 178.696 102.307 177.247C102.68 175.624 102.864 173.963 103.092 172.316C103.149 171.64 103.314 170.966 103.277 170.287C103.444 169.001 103.598 167.7 103.602 166.402C103.746 165.212 103.771 164.011 103.808 162.814C103.884 160.572 103.916 158.321 103.746 156.082C103.69 154.762 103.531 153.443 103.303 152.141H103.277C103.071 151.025 102.767 149.897 102.11 148.957C101.456 148.189 100.323 148.162 99.442 148.505ZM124.027 166.769C126.403 167.034 128.827 167.603 130.844 168.941C132.15 169.784 132.922 171.2 133.474 172.611C134.324 174.765 134.789 177.046 135.147 179.328C135.428 178.317 135.558 177.27 135.656 176.227C135.844 173.613 135.571 170.808 134.052 168.593C133.167 167.251 131.695 166.365 130.123 166.09C128.08 165.743 125.963 166.065 124.027 166.769ZM103.227 199.592C101.49 200.936 100.347 202.905 99.5343 204.915C98.4481 207.533 98.1195 210.498 98.6715 213.285C99.0422 214.983 99.8322 216.776 101.417 217.656C102.662 218.36 104.237 218.109 105.391 217.343C107.285 216.112 108.493 214.075 109.27 211.998C110.125 209.583 110.494 206.939 110.027 204.402C110.036 203.028 109.883 201.609 109.288 200.353C108.873 199.467 108.091 198.712 107.109 198.521C105.738 198.25 104.315 198.761 103.227 199.592ZM115.091 200.912C114.154 202.129 113.553 203.634 113.409 205.162L113.393 205.205C112.754 208.11 113.047 211.206 114.151 213.963C114.856 215.644 115.92 217.306 117.578 218.172C118.682 218.769 120.095 218.715 121.132 218.001C122.573 217.029 123.35 215.358 123.779 213.725C124.521 210.714 124.237 207.467 123.07 204.603C122.889 203.741 122.437 202.968 122.034 202.195C121.301 200.92 120.289 199.592 118.772 199.263C117.357 199.042 115.96 199.835 115.091 200.912ZM132.851 214.673C131.969 215.034 131.804 216.364 132.576 216.927C133.314 217.586 134.627 217.061 134.726 216.081C134.923 215.085 133.756 214.202 132.851 214.673ZM108.736 216.82C106.766 217.051 104.773 217.635 103.172 218.845C102.175 219.605 101.325 220.753 101.38 222.064C101.412 223.399 102.345 224.512 103.387 225.251C105.437 226.673 107.983 227.185 110.44 227.227C112.923 227.217 115.499 226.728 117.592 225.324C118.769 224.53 119.816 223.235 119.687 221.733C119.554 220.172 118.303 218.995 117.016 218.258C114.516 216.872 111.546 216.517 108.736 216.82ZM84.74 217.57C83.738 217.936 83.555 219.446 84.4454 220.037C85.2839 220.722 86.6874 220.058 86.7052 218.979C86.8153 217.963 85.6627 217.153 84.74 217.57ZM92.8454 223.899C92.1331 224.193 92.0894 225.317 92.792 225.649C93.3942 226.025 94.2376 225.507 94.2376 224.815C94.2748 224.12 93.4719 223.579 92.8454 223.899ZM124.589 225.21C124.158 225.392 124.095 226.043 124.498 226.292C124.833 226.566 125.362 226.336 125.464 225.936C125.618 225.458 125.032 224.948 124.589 225.21ZM135.281 226.688C134.263 226.835 133.466 227.838 133.57 228.867C133.628 229.931 134.635 230.835 135.703 230.752C136.82 230.731 137.767 229.659 137.649 228.546C137.594 227.391 136.419 226.456 135.281 226.688ZM76.429 237.61C79.5598 242.37 83.7218 246.304 87.4208 250.6C89.1432 252.732 90.2925 255.256 91.2881 257.792C93.985 264.833 95.3578 272.275 97.4347 279.503C98.0515 281.523 98.6796 283.618 100.039 285.283C102.136 287.924 105.346 289.57 108.666 290.001C112.401 290.518 116.287 289.387 119.253 287.08C120.221 286.383 121 285.461 121.641 284.463C123.025 282.307 124.014 279.929 124.958 277.555C126.575 273.388 127.959 269.137 129.46 264.93C130.792 261.233 132.152 257.528 133.984 254.045C135.231 251.644 137.081 249.584 139.252 247.984C143.126 245.131 147.844 243.619 152.581 243.038C150.804 242.391 148.864 242.73 147.043 242.994C144.723 243.452 142.347 243.925 140.26 245.094C138.4 246.113 136.691 247.384 134.829 248.402C132.382 249.777 129.706 250.72 126.962 251.297C121.748 252.387 116.381 252.41 111.081 252.154C108.658 252.006 106.228 251.862 103.831 251.459C101.092 251.008 98.3898 250.312 95.7884 249.341C90.3298 247.323 85.3438 244.065 81.2677 239.911C77.6512 236.207 74.6451 231.865 72.6507 227.076C72.8321 230.871 74.3602 234.472 76.429 237.61ZM83.95 229.915C83.3333 230.048 82.8379 230.655 82.8978 231.298C82.9269 232.037 83.6619 232.666 84.4001 232.548C85.0703 232.468 85.6239 231.818 85.5591 231.138C85.5332 230.359 84.7141 229.717 83.95 229.915Z" fill="#FBED17" stroke="#FBED17" stroke-width="0.0938"/>
<path d="M154.17 145.113C157.241 144.847 160.375 145.022 163.331 145.944C168.507 147.234 173.353 150.391 176.097 155.036C174.626 157.035 173.157 159.041 171.6 160.974C171.339 161.254 171.568 161.651 171.61 161.975C172.421 164.786 172.911 167.671 173.429 170.547C175.035 179.943 175.637 189.473 176.398 198.961C176.669 201.215 176.775 203.494 177.282 205.714C178.456 211.036 180.152 216.238 182.252 221.265C184.688 227.127 187.609 232.784 189.802 238.746C191.521 243.324 192.552 248.164 192.756 253.053C193.208 261.408 193.111 269.832 191.785 278.109C190.828 283.969 189.252 289.8 186.437 295.057C184.764 298.211 182.535 301.034 180.073 303.601C179.071 304.612 178.019 305.614 176.75 306.281C176.18 306.561 175.461 306.809 174.864 306.467C174.27 306.095 174.117 305.337 174.048 304.69C173.913 303.075 174.252 301.468 174.613 299.903C175.176 297.651 175.725 295.391 176.065 293.092C176.256 291.697 176.505 290.267 176.246 288.865C176.201 288.441 175.835 287.938 175.359 288.177C174.572 288.531 174.057 289.272 173.533 289.928C170.561 294.215 166.86 297.931 163.074 301.495C161.262 303.187 159.367 304.784 157.46 306.367C156.056 307.409 154.672 308.478 153.22 309.452C152.242 310.127 151.182 310.673 150.209 311.355C147.282 311.42 144.472 310.25 142.02 308.736C142.029 309.84 142.097 310.987 142.589 312C141.293 311.26 140.156 310.273 139.109 309.215C137.013 307.206 135.196 304.925 133.539 302.547C130.589 298.213 127.959 293.554 126.659 288.437C126.314 287.373 125.896 286.279 125.106 285.461C124.645 284.969 123.946 284.659 123.271 284.838C122.377 285.06 121.731 285.8 121.266 286.557C120.457 287.925 120.012 289.503 119.957 291.093C119.882 292.494 120.085 293.899 119.958 295.3C119.62 298.811 118.197 302.283 115.725 304.829C114.586 305.947 113.176 306.881 111.571 307.122C109.809 307.357 108.065 306.829 106.409 306.283C101.842 304.723 97.5509 302.493 93.261 300.309C94.7115 301.994 96.3546 303.514 98.0608 304.94C98.595 305.398 99.2296 305.774 99.5793 306.411C95.8625 303.882 92.4678 300.865 89.5653 297.427C86.8441 294.19 84.6134 290.532 83.048 286.599C81.3288 282.365 80.5582 277.816 80.2199 273.28C79.5708 265.377 80.3575 257.354 82.5963 249.746C85.9537 238.247 92.552 227.859 100.882 219.323C104.8 215.323 109.085 211.665 113.758 208.578C115.431 207.065 116.692 205.15 117.809 203.204C121.095 197.296 122.578 190.563 123.188 183.88C123.798 178.333 124.655 172.774 126.403 167.459C128.001 162.534 130.495 157.819 134.16 154.119C137.741 150.475 142.361 147.976 147.235 146.539C147.496 147.6 147.75 148.662 147.965 149.733C147.807 150.012 147.632 150.299 147.645 150.633C147.6 151.895 147.698 153.178 147.407 154.417C147.347 154.647 147.224 155.021 146.915 154.947C146.319 154.373 146.057 153.549 145.529 152.918C144.912 152.17 144.27 151.308 143.279 151.06C143.221 151.793 143.852 152.601 143.331 153.257C142.636 153.973 141.343 153.741 140.765 152.985C140.343 152.454 140.396 151.739 140.334 151.101C140.05 151.201 139.655 151.193 139.514 151.514C139.107 152.423 139.305 153.544 139.936 154.304C140.744 155.29 141.934 155.843 143.08 156.334C145.026 157.098 147.056 157.628 149.108 158.015C150.887 158.185 152.684 158.017 154.429 157.656C155.564 157.602 156.657 157.27 157.759 157.019C159.601 156.536 161.471 156.031 163.139 155.081C163.818 154.658 164.587 154.127 164.735 153.278C164.817 152.64 164.38 152.092 163.937 151.69C162.781 150.654 161.589 149.581 160.113 149.027C159.069 148.638 157.968 148.429 156.884 148.191C156.408 148.108 155.801 147.967 155.438 148.389C155.224 149.254 155.663 150.108 155.69 150.973C155.757 151.716 155.401 152.403 155.023 153.017C154.873 150.37 154.546 147.737 154.17 145.113ZM138.442 160.505C137.231 160.977 136.291 161.934 135.499 162.935C134.076 164.789 133.082 166.931 132.279 169.114C132.122 169.513 132.046 169.954 131.785 170.305C131.802 170.414 131.836 170.631 131.852 170.739C130.944 171.384 130.055 172.083 129.386 172.988C127.492 175.472 126.67 178.597 126.33 181.657C127.429 179.159 128.791 176.731 130.69 174.746C130.333 176.682 130.125 178.641 129.893 180.596C129.712 182.031 129.471 183.46 129.265 184.893L129.228 184.902C128.891 186.918 128.441 188.912 127.981 190.901L127.952 190.908C127.428 193.061 126.775 195.182 126.082 197.285C125.752 198.028 125.514 198.809 125.2 199.559C123.385 204.089 121.004 208.523 117.432 211.912C116.075 213.231 114.437 214.194 112.926 215.313C111.942 216.036 110.968 216.769 110.034 217.554L110.025 217.599C109.456 218.004 108.936 218.475 108.403 218.929C99.9289 226.266 93.2821 235.655 88.9534 245.983L88.9194 245.986C87.6745 248.928 86.5657 251.938 85.7352 255.025L85.6996 254.983C85.1168 257.179 84.5211 259.384 84.2216 261.641C86.6126 257.403 88.9453 253.128 91.5176 248.995C92.3966 247.517 93.4165 246.124 94.2744 244.635C94.6095 244.316 94.8184 243.878 95.0984 243.511C96.8759 240.956 98.7763 238.487 100.821 236.139L100.827 236.073C100.97 235.959 101.106 235.84 101.237 235.715C104.693 231.877 108.654 228.364 113.349 226.125C114.692 225.545 116.091 225.072 117.344 224.303C118.809 223.433 120.171 222.398 121.466 221.291C125.38 217.902 128.75 213.923 131.76 209.72C135.293 204.721 138.402 199.342 140.307 193.5C140.725 192.107 141.165 190.696 141.307 189.247C141.68 187.624 141.864 185.963 142.092 184.316C142.149 183.64 142.314 182.966 142.277 182.287C142.444 181.001 142.598 179.7 142.602 178.402C142.746 177.212 142.771 176.011 142.808 174.814C142.884 172.572 142.916 170.321 142.746 168.082C142.69 166.762 142.531 165.443 142.303 164.141H142.277C142.071 163.025 141.767 161.897 141.11 160.957C140.456 160.189 139.323 160.162 138.442 160.505ZM163.027 178.769C165.403 179.034 167.827 179.603 169.844 180.941C171.15 181.784 171.922 183.2 172.474 184.611C173.324 186.765 173.789 189.046 174.147 191.328C174.428 190.317 174.558 189.27 174.656 188.227C174.844 185.613 174.571 182.808 173.052 180.593C172.167 179.251 170.695 178.365 169.123 178.09C167.08 177.743 164.963 178.065 163.027 178.769ZM142.227 211.592C140.49 212.936 139.347 214.905 138.534 216.915C137.448 219.533 137.119 222.498 137.671 225.285C138.042 226.983 138.832 228.776 140.417 229.656C141.662 230.36 143.237 230.109 144.391 229.343C146.285 228.112 147.493 226.075 148.27 223.998C149.125 221.583 149.494 218.939 149.027 216.402C149.036 215.028 148.883 213.609 148.288 212.353C147.873 211.467 147.091 210.712 146.109 210.521C144.738 210.25 143.315 210.761 142.227 211.592ZM154.091 212.912C153.154 214.129 152.553 215.634 152.409 217.162L152.393 217.205C151.754 220.11 152.047 223.206 153.151 225.963C153.856 227.644 154.92 229.306 156.578 230.172C157.682 230.769 159.095 230.715 160.132 230.001C161.573 229.029 162.35 227.358 162.779 225.725C163.521 222.714 163.237 219.467 162.07 216.603C161.889 215.741 161.437 214.968 161.034 214.195C160.301 212.92 159.289 211.592 157.772 211.263C156.357 211.042 154.96 211.835 154.091 212.912ZM171.851 226.673C170.969 227.034 170.804 228.364 171.576 228.927C172.314 229.586 173.627 229.061 173.726 228.081C173.923 227.085 172.756 226.202 171.851 226.673ZM147.736 228.82C145.766 229.051 143.773 229.635 142.172 230.845C141.175 231.605 140.325 232.753 140.38 234.064C140.412 235.399 141.345 236.512 142.387 237.251C144.437 238.673 146.983 239.185 149.44 239.227C151.923 239.217 154.499 238.728 156.592 237.324C157.769 236.53 158.816 235.235 158.687 233.733C158.554 232.172 157.303 230.995 156.016 230.258C153.516 228.872 150.546 228.517 147.736 228.82ZM123.74 229.57C122.738 229.936 122.555 231.446 123.445 232.037C124.284 232.722 125.687 232.058 125.705 230.979C125.815 229.963 124.663 229.153 123.74 229.57ZM131.845 235.899C131.133 236.193 131.089 237.317 131.792 237.649C132.394 238.025 133.238 237.507 133.238 236.815C133.275 236.12 132.472 235.579 131.845 235.899ZM163.589 237.21C163.158 237.392 163.095 238.043 163.498 238.292C163.833 238.566 164.362 238.336 164.464 237.936C164.618 237.458 164.032 236.948 163.589 237.21ZM174.281 238.688C173.263 238.835 172.466 239.838 172.57 240.867C172.628 241.931 173.635 242.835 174.703 242.752C175.82 242.731 176.767 241.659 176.649 240.546C176.594 239.391 175.419 238.456 174.281 238.688ZM115.429 249.61C118.56 254.37 122.722 258.304 126.421 262.6C128.143 264.732 129.293 267.256 130.288 269.792C132.985 276.833 134.358 284.275 136.435 291.503C137.051 293.523 137.68 295.618 139.039 297.283C141.136 299.924 144.346 301.57 147.666 302.001C151.401 302.518 155.287 301.387 158.253 299.08C159.221 298.383 160 297.461 160.641 296.463C162.025 294.307 163.014 291.929 163.958 289.555C165.575 285.388 166.959 281.137 168.46 276.93C169.792 273.233 171.152 269.528 172.984 266.045C174.231 263.644 176.081 261.584 178.252 259.984C182.126 257.131 186.844 255.619 191.581 255.038C189.804 254.391 187.864 254.73 186.043 254.994C183.723 255.452 181.347 255.925 179.26 257.094C177.4 258.113 175.691 259.384 173.829 260.402C171.382 261.777 168.706 262.72 165.962 263.297C160.748 264.387 155.381 264.41 150.081 264.154C147.658 264.006 145.228 263.862 142.831 263.459C140.092 263.008 137.39 262.312 134.788 261.341C129.33 259.323 124.344 256.065 120.268 251.911C116.651 248.207 113.645 243.865 111.651 239.076C111.832 242.871 113.36 246.472 115.429 249.61ZM122.95 241.915C122.333 242.048 121.838 242.655 121.898 243.298C121.927 244.037 122.662 244.666 123.4 244.548C124.07 244.468 124.624 243.818 124.559 243.138C124.533 242.359 123.714 241.717 122.95 241.915Z" fill="#FBED17" stroke="#FBED17" stroke-width="0.0938"/>
<path d="M171.387 183.092C173.887 182.876 176.438 183.018 178.845 183.769C183.058 184.819 187.004 187.39 189.238 191.173C188.04 192.801 186.845 194.434 185.577 196.008C185.365 196.237 185.551 196.56 185.585 196.824C186.245 199.113 186.645 201.463 187.066 203.804C188.374 211.457 188.864 219.217 189.484 226.945C189.704 228.78 189.791 230.636 190.203 232.444C191.159 236.778 192.54 241.014 194.249 245.108C196.233 249.882 198.61 254.489 200.396 259.344C201.796 263.073 202.636 267.013 202.802 270.995C203.169 277.799 203.09 284.66 202.011 291.4C201.232 296.173 199.948 300.921 197.656 305.202C196.295 307.771 194.48 310.069 192.475 312.16C191.66 312.984 190.803 313.799 189.77 314.343C189.306 314.571 188.72 314.773 188.234 314.494C187.75 314.191 187.627 313.573 187.57 313.047C187.46 311.732 187.736 310.423 188.03 309.148C188.488 307.314 188.935 305.474 189.212 303.602C189.368 302.466 189.571 301.301 189.36 300.16C189.323 299.814 189.025 299.405 188.637 299.599C187.997 299.888 187.578 300.491 187.151 301.025C184.731 304.516 181.718 307.543 178.635 310.445C177.161 311.823 175.617 313.124 174.065 314.413C172.922 315.261 171.795 316.132 170.613 316.925C169.817 317.475 168.954 317.919 168.161 318.475C165.779 318.528 163.491 317.575 161.494 316.342C161.502 317.241 161.557 318.175 161.958 319C160.902 318.397 159.977 317.594 159.124 316.732C157.417 315.096 155.939 313.238 154.589 311.302C152.188 307.772 150.046 303.978 148.988 299.811C148.707 298.944 148.367 298.054 147.724 297.388C147.348 296.987 146.779 296.735 146.229 296.88C145.502 297.06 144.976 297.663 144.597 298.28C143.938 299.394 143.576 300.679 143.531 301.974C143.471 303.115 143.635 304.259 143.533 305.4C143.257 308.259 142.099 311.087 140.086 313.161C139.158 314.071 138.01 314.831 136.704 315.027C135.269 315.219 133.849 314.789 132.501 314.344C128.783 313.073 125.289 311.258 121.797 309.48C122.978 310.852 124.315 312.089 125.704 313.25C126.139 313.624 126.656 313.93 126.941 314.448C123.915 312.389 121.151 309.932 118.788 307.132C116.572 304.496 114.756 301.517 113.482 298.314C112.082 294.866 111.455 291.162 111.179 287.467C110.651 281.032 111.291 274.498 113.114 268.302C115.847 258.938 121.219 250.478 128.002 243.526C131.191 240.269 134.68 237.29 138.485 234.776C139.846 233.544 140.873 231.985 141.782 230.4C144.458 225.588 145.665 220.105 146.162 214.663C146.659 210.145 147.356 205.619 148.779 201.29C150.08 197.279 152.111 193.44 155.095 190.426C158.01 187.459 161.772 185.423 165.74 184.253C165.953 185.117 166.159 185.983 166.335 186.855C166.206 187.082 166.063 187.315 166.074 187.587C166.037 188.615 166.117 189.66 165.88 190.669C165.831 190.856 165.731 191.161 165.479 191.1C164.994 190.633 164.781 189.962 164.351 189.449C163.849 188.839 163.326 188.137 162.519 187.935C162.472 188.532 162.986 189.19 162.561 189.724C161.996 190.307 160.943 190.119 160.472 189.503C160.128 189.07 160.172 188.488 160.122 187.968C159.89 188.05 159.568 188.043 159.454 188.305C159.123 189.045 159.284 189.958 159.798 190.577C160.455 191.38 161.424 191.83 162.357 192.23C163.941 192.853 165.594 193.284 167.265 193.599C168.714 193.738 170.177 193.601 171.597 193.306C172.521 193.263 173.411 192.992 174.308 192.788C175.808 192.395 177.331 191.983 178.688 191.21C179.242 190.866 179.868 190.433 179.988 189.741C180.055 189.222 179.699 188.776 179.338 188.449C178.397 187.604 177.427 186.731 176.225 186.279C175.375 185.963 174.478 185.793 173.595 185.599C173.208 185.531 172.714 185.417 172.418 185.76C172.245 186.464 172.602 187.159 172.624 187.864C172.678 188.47 172.388 189.029 172.081 189.529C171.959 187.373 171.692 185.229 171.387 183.092ZM158.581 195.627C157.595 196.011 156.83 196.791 156.185 197.606C155.027 199.115 154.217 200.86 153.564 202.638C153.436 202.963 153.374 203.322 153.162 203.608C153.175 203.696 153.203 203.873 153.216 203.961C152.476 204.487 151.753 205.055 151.208 205.793C149.666 207.815 148.997 210.36 148.72 212.853C149.615 210.818 150.723 208.84 152.269 207.224C151.979 208.801 151.809 210.396 151.621 211.988C151.473 213.157 151.277 214.321 151.11 215.487L151.079 215.495C150.805 217.137 150.439 218.761 150.064 220.381L150.041 220.386C149.614 222.14 149.083 223.867 148.518 225.579C148.25 226.185 148.056 226.821 147.8 227.431C146.323 231.12 144.384 234.731 141.475 237.492C140.371 238.566 139.037 239.349 137.807 240.261C137.006 240.849 136.213 241.447 135.452 242.086L135.446 242.123C134.982 242.452 134.559 242.836 134.125 243.206C127.225 249.181 121.814 256.827 118.29 265.238L118.262 265.24C117.248 267.636 116.345 270.088 115.669 272.601L115.64 272.567C115.166 274.356 114.681 276.151 114.437 277.989C116.384 274.538 118.283 271.056 120.377 267.69C121.093 266.487 121.923 265.352 122.622 264.14C122.894 263.88 123.065 263.524 123.293 263.224C124.74 261.144 126.287 259.133 127.952 257.221L127.957 257.167C128.073 257.075 128.183 256.977 128.29 256.876C131.104 253.75 134.329 250.89 138.151 249.066C139.245 248.594 140.384 248.209 141.404 247.582C142.597 246.873 143.705 246.03 144.76 245.129C147.946 242.369 150.69 239.129 153.141 235.706C156.018 231.635 158.548 227.255 160.099 222.497C160.439 221.362 160.798 220.213 160.914 219.034C161.217 217.712 161.367 216.359 161.553 215.018C161.599 214.467 161.734 213.919 161.703 213.366C161.839 212.318 161.964 211.259 161.968 210.202C162.086 209.232 162.105 208.255 162.136 207.28C162.198 205.454 162.224 203.621 162.086 201.798C162.039 200.722 161.91 199.648 161.724 198.588H161.703C161.536 197.679 161.288 196.76 160.753 195.995C160.221 195.37 159.298 195.347 158.581 195.627ZM178.597 210.5C180.532 210.717 182.505 211.18 184.147 212.269C185.211 212.956 185.839 214.109 186.289 215.258C186.981 217.013 187.359 218.87 187.65 220.728C187.88 219.905 187.985 219.052 188.065 218.203C188.218 216.074 187.996 213.789 186.759 211.986C186.038 210.893 184.84 210.172 183.561 209.947C181.897 209.665 180.173 209.928 178.597 210.5ZM161.663 237.23C160.248 238.325 159.318 239.928 158.656 241.566C157.772 243.698 157.504 246.112 157.954 248.382C158.256 249.764 158.899 251.225 160.189 251.941C161.203 252.515 162.485 252.311 163.425 251.686C164.967 250.684 165.95 249.025 166.583 247.334C167.278 245.367 167.579 243.214 167.199 241.147C167.206 240.029 167.082 238.873 166.597 237.85C166.26 237.129 165.623 236.514 164.823 236.358C163.707 236.138 162.548 236.553 161.663 237.23ZM171.322 238.306C170.559 239.296 170.07 240.522 169.953 241.766L169.939 241.802C169.419 244.168 169.657 246.689 170.556 248.934C171.131 250.303 171.997 251.656 173.346 252.362C174.245 252.848 175.396 252.804 176.241 252.222C177.414 251.431 178.046 250.07 178.395 248.74C178.999 246.288 178.768 243.644 177.818 241.311C177.671 240.609 177.303 239.98 176.975 239.351C176.378 238.312 175.554 237.23 174.319 236.963C173.167 236.783 172.03 237.428 171.322 238.306ZM185.781 249.512C185.063 249.806 184.929 250.89 185.557 251.347C186.158 251.884 187.227 251.457 187.308 250.659C187.468 249.847 186.518 249.128 185.781 249.512ZM166.148 251.26C164.544 251.449 162.921 251.924 161.618 252.91C160.806 253.528 160.114 254.464 160.159 255.531C160.185 256.618 160.944 257.525 161.793 258.126C163.462 259.285 165.535 259.702 167.535 259.736C169.557 259.728 171.654 259.33 173.358 258.186C174.316 257.539 175.169 256.485 175.064 255.262C174.956 253.99 173.937 253.032 172.889 252.432C170.854 251.303 168.436 251.014 166.148 251.26ZM146.611 251.871C145.796 252.169 145.647 253.399 146.371 253.881C147.054 254.439 148.197 253.898 148.211 253.019C148.301 252.192 147.363 251.532 146.611 251.871ZM153.21 257.026C152.631 257.265 152.595 258.18 153.167 258.451C153.657 258.757 154.344 258.335 154.344 257.771C154.374 257.205 153.72 256.765 153.21 257.026ZM179.054 258.093C178.704 258.241 178.652 258.771 178.981 258.975C179.253 259.198 179.684 259.01 179.767 258.684C179.893 258.295 179.416 257.88 179.054 258.093ZM187.76 259.297C186.931 259.417 186.282 260.233 186.367 261.071C186.414 261.938 187.234 262.674 188.104 262.607C189.013 262.59 189.784 261.716 189.688 260.81C189.643 259.869 188.686 259.108 187.76 259.297ZM139.845 268.192C142.394 272.068 145.782 275.271 148.794 278.77C150.196 280.506 151.132 282.562 151.943 284.627C154.138 290.361 155.256 296.422 156.947 302.308C157.449 303.953 157.96 305.659 159.067 307.015C160.774 309.166 163.388 310.506 166.091 310.857C169.131 311.278 172.296 310.357 174.71 308.478C175.499 307.911 176.133 307.16 176.654 306.347C177.781 304.591 178.587 302.655 179.355 300.722C180.672 297.328 181.798 293.866 183.02 290.44C184.105 287.429 185.212 284.412 186.704 281.575C187.719 279.62 189.225 277.943 190.993 276.639C194.147 274.316 197.988 273.085 201.845 272.611C200.398 272.085 198.819 272.361 197.336 272.576C195.447 272.949 193.513 273.334 191.814 274.286C190.299 275.116 188.908 276.151 187.392 276.98C185.399 278.1 183.221 278.868 180.987 279.338C176.741 280.225 172.372 280.244 168.057 280.035C166.084 279.915 164.106 279.798 162.154 279.469C159.924 279.103 157.724 278.535 155.606 277.745C151.162 276.101 147.103 273.448 143.784 270.065C140.84 267.049 138.392 263.513 136.769 259.613C136.916 262.703 138.161 265.636 139.845 268.192ZM145.968 261.925C145.466 262.033 145.063 262.528 145.111 263.051C145.135 263.653 145.734 264.165 146.335 264.069C146.88 264.004 147.331 263.475 147.278 262.921C147.257 262.286 146.59 261.764 145.968 261.925Z" fill="#FBED17" stroke="#FBED17" stroke-width="0.0938"/>
<path d="M176.387 205.092C178.887 204.876 181.438 205.018 183.845 205.769C188.058 206.819 192.004 209.39 194.238 213.173C193.04 214.801 191.845 216.434 190.577 218.008C190.365 218.237 190.551 218.56 190.585 218.824C191.245 221.113 191.645 223.463 192.066 225.804C193.374 233.457 193.864 241.217 194.484 248.945C194.704 250.78 194.791 252.636 195.203 254.444C196.159 258.778 197.54 263.014 199.249 267.108C201.233 271.882 203.61 276.489 205.396 281.344C206.796 285.073 207.636 289.013 207.802 292.995C208.169 299.799 208.09 306.66 207.011 313.4C206.232 318.173 204.948 322.921 202.656 327.202C201.295 329.771 199.48 332.069 197.475 334.16C196.66 334.984 195.803 335.799 194.77 336.343C194.306 336.571 193.72 336.773 193.234 336.494C192.75 336.191 192.627 335.573 192.57 335.047C192.46 333.732 192.736 332.423 193.03 331.148C193.488 329.314 193.935 327.474 194.212 325.602C194.368 324.466 194.571 323.301 194.36 322.16C194.323 321.814 194.025 321.405 193.637 321.599C192.997 321.888 192.578 322.491 192.151 323.025C189.731 326.516 186.718 329.543 183.635 332.445C182.161 333.823 180.617 335.124 179.065 336.413C177.922 337.261 176.795 338.132 175.613 338.925C174.817 339.475 173.954 339.919 173.161 340.475C170.779 340.528 168.491 339.575 166.494 338.342C166.502 339.241 166.557 340.175 166.958 341C165.902 340.397 164.977 339.594 164.124 338.732C162.417 337.096 160.939 335.238 159.589 333.302C157.188 329.772 155.046 325.978 153.988 321.811C153.707 320.944 153.367 320.054 152.724 319.388C152.348 318.987 151.779 318.735 151.229 318.88C150.502 319.06 149.976 319.663 149.597 320.28C148.938 321.394 148.576 322.679 148.531 323.974C148.471 325.115 148.635 326.259 148.533 327.4C148.257 330.259 147.099 333.087 145.086 335.161C144.158 336.071 143.01 336.831 141.704 337.027C140.269 337.219 138.849 336.789 137.501 336.344C133.783 335.073 130.289 333.258 126.797 331.48C127.978 332.852 129.315 334.089 130.704 335.25C131.139 335.624 131.656 335.93 131.941 336.448C128.915 334.389 126.151 331.932 123.788 329.132C121.572 326.496 119.756 323.517 118.482 320.314C117.082 316.866 116.455 313.162 116.179 309.467C115.651 303.032 116.291 296.498 118.114 290.302C120.847 280.938 126.219 272.478 133.002 265.526C136.191 262.269 139.68 259.29 143.485 256.776C144.846 255.544 145.873 253.985 146.782 252.4C149.458 247.588 150.665 242.105 151.162 236.663C151.659 232.145 152.356 227.619 153.779 223.29C155.08 219.279 157.111 215.44 160.095 212.426C163.01 209.459 166.772 207.423 170.74 206.253C170.953 207.117 171.159 207.983 171.335 208.855C171.206 209.082 171.063 209.315 171.074 209.587C171.037 210.615 171.117 211.66 170.88 212.669C170.831 212.856 170.731 213.161 170.479 213.1C169.994 212.633 169.781 211.962 169.351 211.449C168.849 210.839 168.326 210.137 167.519 209.935C167.472 210.532 167.986 211.19 167.561 211.724C166.996 212.307 165.943 212.119 165.472 211.503C165.128 211.07 165.172 210.488 165.122 209.968C164.89 210.05 164.568 210.043 164.454 210.305C164.123 211.045 164.284 211.958 164.798 212.577C165.455 213.38 166.424 213.83 167.357 214.23C168.941 214.853 170.594 215.284 172.265 215.599C173.714 215.738 175.177 215.601 176.597 215.306C177.521 215.263 178.411 214.992 179.308 214.788C180.808 214.395 182.331 213.983 183.688 213.21C184.242 212.866 184.868 212.433 184.988 211.741C185.055 211.222 184.699 210.776 184.338 210.449C183.397 209.604 182.427 208.731 181.225 208.279C180.375 207.963 179.478 207.793 178.595 207.599C178.208 207.531 177.714 207.417 177.418 207.76C177.245 208.464 177.602 209.159 177.624 209.864C177.678 210.47 177.388 211.029 177.081 211.529C176.959 209.373 176.692 207.229 176.387 205.092ZM163.581 217.627C162.595 218.011 161.83 218.791 161.185 219.606C160.027 221.115 159.217 222.86 158.564 224.638C158.436 224.963 158.374 225.322 158.162 225.608C158.175 225.696 158.203 225.873 158.216 225.961C157.476 226.487 156.753 227.055 156.208 227.793C154.666 229.815 153.997 232.36 153.72 234.853C154.615 232.818 155.723 230.84 157.269 229.224C156.979 230.801 156.809 232.396 156.621 233.988C156.473 235.157 156.277 236.321 156.11 237.487L156.079 237.495C155.805 239.137 155.439 240.761 155.064 242.381L155.041 242.386C154.614 244.14 154.083 245.867 153.518 247.579C153.25 248.185 153.056 248.821 152.8 249.431C151.323 253.12 149.384 256.731 146.475 259.492C145.371 260.566 144.037 261.349 142.807 262.261C142.006 262.849 141.213 263.447 140.452 264.086L140.446 264.123C139.982 264.452 139.559 264.836 139.125 265.206C132.225 271.181 126.814 278.827 123.29 287.238L123.262 287.24C122.248 289.636 121.345 292.088 120.669 294.601L120.64 294.567C120.166 296.356 119.681 298.151 119.437 299.989C121.384 296.538 123.283 293.056 125.377 289.69C126.093 288.487 126.923 287.352 127.622 286.14C127.894 285.88 128.065 285.524 128.293 285.224C129.74 283.144 131.287 281.133 132.952 279.221L132.957 279.167C133.073 279.075 133.183 278.977 133.29 278.876C136.104 275.75 139.329 272.89 143.151 271.066C144.245 270.594 145.384 270.209 146.404 269.582C147.597 268.873 148.705 268.03 149.76 267.129C152.946 264.369 155.69 261.129 158.141 257.706C161.018 253.635 163.548 249.255 165.099 244.497C165.439 243.362 165.798 242.213 165.914 241.034C166.217 239.712 166.367 238.359 166.553 237.018C166.599 236.467 166.734 235.919 166.703 235.366C166.839 234.318 166.964 233.259 166.968 232.202C167.086 231.232 167.105 230.255 167.136 229.28C167.198 227.454 167.224 225.621 167.086 223.798C167.039 222.722 166.91 221.648 166.724 220.588H166.703C166.536 219.679 166.288 218.76 165.753 217.995C165.221 217.37 164.298 217.347 163.581 217.627ZM183.597 232.5C185.532 232.717 187.505 233.18 189.147 234.269C190.211 234.956 190.839 236.109 191.289 237.258C191.981 239.013 192.359 240.87 192.65 242.728C192.88 241.905 192.985 241.052 193.065 240.203C193.218 238.074 192.996 235.789 191.759 233.986C191.038 232.893 189.84 232.172 188.561 231.947C186.897 231.665 185.173 231.928 183.597 232.5ZM166.663 259.23C165.248 260.325 164.318 261.928 163.656 263.566C162.772 265.698 162.504 268.112 162.954 270.382C163.256 271.764 163.899 273.225 165.189 273.941C166.203 274.515 167.485 274.311 168.425 273.686C169.967 272.684 170.95 271.025 171.583 269.334C172.278 267.367 172.579 265.214 172.199 263.147C172.206 262.029 172.082 260.873 171.597 259.85C171.26 259.129 170.623 258.514 169.823 258.358C168.707 258.138 167.548 258.553 166.663 259.23ZM176.322 260.306C175.559 261.296 175.07 262.522 174.953 263.766L174.939 263.802C174.419 266.168 174.657 268.689 175.556 270.934C176.131 272.303 176.997 273.656 178.346 274.362C179.245 274.848 180.396 274.804 181.241 274.222C182.414 273.431 183.046 272.07 183.395 270.74C183.999 268.288 183.768 265.644 182.818 263.311C182.671 262.609 182.303 261.98 181.975 261.351C181.378 260.312 180.554 259.23 179.319 258.963C178.167 258.783 177.03 259.428 176.322 260.306ZM190.781 271.512C190.063 271.806 189.929 272.89 190.557 273.347C191.158 273.884 192.227 273.457 192.308 272.659C192.468 271.847 191.518 271.128 190.781 271.512ZM171.148 273.26C169.544 273.449 167.921 273.924 166.618 274.91C165.806 275.528 165.114 276.464 165.159 277.531C165.185 278.618 165.944 279.525 166.793 280.126C168.462 281.285 170.535 281.702 172.535 281.736C174.557 281.728 176.654 281.33 178.358 280.186C179.316 279.539 180.169 278.485 180.064 277.262C179.956 275.99 178.937 275.032 177.889 274.432C175.854 273.303 173.436 273.014 171.148 273.26ZM151.611 273.871C150.796 274.169 150.647 275.399 151.371 275.881C152.054 276.439 153.197 275.898 153.211 275.019C153.301 274.192 152.363 273.532 151.611 273.871ZM158.21 279.026C157.631 279.265 157.595 280.18 158.167 280.451C158.657 280.757 159.344 280.335 159.344 279.771C159.374 279.205 158.72 278.765 158.21 279.026ZM184.054 280.093C183.704 280.241 183.652 280.771 183.981 280.975C184.253 281.198 184.684 281.01 184.767 280.684C184.893 280.295 184.416 279.88 184.054 280.093ZM192.76 281.297C191.931 281.417 191.282 282.233 191.367 283.071C191.414 283.938 192.234 284.674 193.104 284.607C194.013 284.59 194.784 283.716 194.688 282.81C194.643 281.869 193.686 281.108 192.76 281.297ZM144.845 290.192C147.394 294.068 150.782 297.271 153.794 300.77C155.196 302.506 156.132 304.562 156.943 306.627C159.138 312.361 160.256 318.422 161.947 324.308C162.449 325.953 162.96 327.659 164.067 329.015C165.774 331.166 168.388 332.506 171.091 332.857C174.131 333.278 177.296 332.357 179.71 330.478C180.499 329.911 181.133 329.16 181.654 328.347C182.781 326.591 183.587 324.655 184.355 322.722C185.672 319.328 186.798 315.866 188.02 312.44C189.105 309.429 190.212 306.412 191.704 303.575C192.719 301.62 194.225 299.943 195.993 298.639C199.147 296.316 202.988 295.085 206.845 294.611C205.398 294.085 203.819 294.361 202.336 294.576C200.447 294.949 198.513 295.334 196.814 296.286C195.299 297.116 193.908 298.151 192.392 298.98C190.399 300.1 188.221 300.868 185.987 301.338C181.741 302.225 177.372 302.244 173.057 302.035C171.084 301.915 169.106 301.798 167.154 301.469C164.924 301.103 162.724 300.535 160.606 299.745C156.162 298.101 152.103 295.448 148.784 292.065C145.84 289.049 143.392 285.513 141.769 281.613C141.916 284.703 143.161 287.636 144.845 290.192ZM150.968 283.925C150.466 284.033 150.063 284.528 150.111 285.051C150.135 285.653 150.734 286.165 151.335 286.069C151.88 286.004 152.331 285.475 152.278 284.921C152.257 284.286 151.59 283.764 150.968 283.925Z" fill="#FBED17" stroke="#FBED17" stroke-width="0.0938"/>
<path d="M146.387 209.092C148.887 208.876 151.438 209.018 153.845 209.769C158.058 210.819 162.004 213.39 164.238 217.173C163.04 218.801 161.845 220.434 160.577 222.008C160.365 222.237 160.551 222.56 160.585 222.824C161.245 225.113 161.645 227.463 162.066 229.804C163.374 237.457 163.864 245.217 164.484 252.945C164.704 254.78 164.791 256.636 165.203 258.444C166.159 262.778 167.54 267.014 169.249 271.108C171.233 275.882 173.61 280.489 175.396 285.344C176.796 289.073 177.636 293.013 177.802 296.995C178.169 303.799 178.09 310.66 177.011 317.4C176.232 322.173 174.948 326.921 172.656 331.202C171.295 333.771 169.48 336.069 167.475 338.16C166.66 338.984 165.803 339.799 164.77 340.343C164.306 340.571 163.72 340.773 163.234 340.494C162.75 340.191 162.627 339.573 162.57 339.047C162.46 337.732 162.736 336.423 163.03 335.148C163.488 333.314 163.935 331.474 164.212 329.602C164.368 328.466 164.571 327.301 164.36 326.16C164.323 325.814 164.025 325.405 163.637 325.599C162.997 325.888 162.578 326.491 162.151 327.025C159.731 330.516 156.718 333.543 153.635 336.445C152.161 337.823 150.617 339.124 149.065 340.413C147.922 341.261 146.795 342.132 145.613 342.925C144.817 343.475 143.954 343.919 143.161 344.475C140.779 344.528 138.491 343.575 136.494 342.342C136.502 343.241 136.557 344.175 136.958 345C135.902 344.397 134.977 343.594 134.124 342.732C132.417 341.096 130.939 339.238 129.589 337.302C127.188 333.772 125.046 329.978 123.988 325.811C123.707 324.944 123.367 324.054 122.724 323.388C122.348 322.987 121.779 322.735 121.229 322.88C120.502 323.06 119.976 323.663 119.597 324.28C118.938 325.394 118.576 326.679 118.531 327.974C118.471 329.115 118.635 330.259 118.533 331.4C118.257 334.259 117.099 337.087 115.086 339.161C114.158 340.071 113.01 340.831 111.704 341.027C110.269 341.219 108.849 340.789 107.501 340.344C103.783 339.073 100.289 337.258 96.7966 335.48C97.9775 336.852 99.3152 338.089 100.704 339.25C101.139 339.624 101.656 339.93 101.941 340.448C98.9146 338.389 96.1508 335.932 93.7877 333.132C91.5722 330.496 89.756 327.517 88.4815 324.314C87.0819 320.866 86.4545 317.162 86.179 313.467C85.6505 307.032 86.2911 300.498 88.1138 294.302C90.8473 284.938 96.2193 276.478 103.002 269.526C106.191 266.269 109.68 263.29 113.485 260.776C114.846 259.544 115.873 257.985 116.782 256.4C119.458 251.588 120.665 246.105 121.162 240.663C121.659 236.145 122.356 231.619 123.779 227.29C125.08 223.279 127.111 219.44 130.095 216.426C133.01 213.459 136.772 211.423 140.74 210.253C140.953 211.117 141.159 211.983 141.335 212.855C141.206 213.082 141.063 213.315 141.074 213.587C141.037 214.615 141.117 215.66 140.88 216.669C140.831 216.856 140.731 217.161 140.479 217.1C139.994 216.633 139.781 215.962 139.351 215.449C138.849 214.839 138.326 214.137 137.519 213.935C137.472 214.532 137.986 215.19 137.561 215.724C136.996 216.307 135.943 216.119 135.472 215.503C135.128 215.07 135.172 214.488 135.122 213.968C134.89 214.05 134.568 214.043 134.454 214.305C134.123 215.045 134.284 215.958 134.798 216.577C135.455 217.38 136.424 217.83 137.357 218.23C138.941 218.853 140.594 219.284 142.265 219.599C143.714 219.738 145.177 219.601 146.597 219.306C147.521 219.263 148.411 218.992 149.308 218.788C150.808 218.395 152.331 217.983 153.688 217.21C154.242 216.866 154.868 216.433 154.988 215.741C155.055 215.222 154.699 214.776 154.338 214.449C153.397 213.604 152.427 212.731 151.225 212.279C150.375 211.963 149.478 211.793 148.595 211.599C148.208 211.531 147.714 211.417 147.418 211.76C147.245 212.464 147.602 213.159 147.624 213.864C147.678 214.47 147.388 215.029 147.081 215.529C146.959 213.373 146.692 211.229 146.387 209.092ZM133.581 221.627C132.595 222.011 131.83 222.791 131.185 223.606C130.027 225.115 129.217 226.86 128.564 228.638C128.436 228.963 128.374 229.322 128.162 229.608C128.175 229.696 128.203 229.873 128.216 229.961C127.476 230.487 126.753 231.055 126.208 231.793C124.666 233.815 123.997 236.36 123.72 238.853C124.615 236.818 125.723 234.84 127.269 233.224C126.979 234.801 126.809 236.396 126.621 237.988C126.473 239.157 126.277 240.321 126.11 241.487L126.079 241.495C125.805 243.137 125.439 244.761 125.064 246.381L125.041 246.386C124.614 248.14 124.083 249.867 123.518 251.579C123.25 252.185 123.056 252.821 122.8 253.431C121.323 257.12 119.384 260.731 116.475 263.492C115.371 264.566 114.037 265.349 112.807 266.261C112.006 266.849 111.213 267.447 110.452 268.086L110.446 268.123C109.982 268.452 109.559 268.836 109.125 269.206C102.225 275.181 96.8138 282.827 93.2895 291.238L93.2618 291.24C92.2483 293.636 91.3455 296.088 90.6694 298.601L90.6404 298.567C90.1659 300.356 89.6809 302.151 89.4371 303.989C91.3837 300.538 93.2829 297.056 95.3772 293.69C96.0928 292.487 96.9231 291.352 97.6217 290.14C97.8945 289.88 98.0645 289.524 98.2925 289.224C99.7396 287.144 101.287 285.133 102.952 283.221L102.957 283.167C103.073 283.075 103.183 282.977 103.29 282.876C106.104 279.75 109.329 276.89 113.151 275.066C114.245 274.594 115.384 274.209 116.404 273.582C117.597 272.873 118.705 272.03 119.76 271.129C122.946 268.369 125.69 265.129 128.141 261.706C131.018 257.635 133.548 253.255 135.099 248.497C135.439 247.362 135.798 246.213 135.914 245.034C136.217 243.712 136.367 242.359 136.553 241.018C136.599 240.467 136.734 239.919 136.703 239.366C136.839 238.318 136.964 237.259 136.968 236.202C137.086 235.232 137.105 234.255 137.136 233.28C137.198 231.454 137.224 229.621 137.086 227.798C137.039 226.722 136.91 225.648 136.724 224.588H136.703C136.536 223.679 136.288 222.76 135.753 221.995C135.221 221.37 134.298 221.347 133.581 221.627ZM153.597 236.5C155.532 236.717 157.505 237.18 159.147 238.269C160.211 238.956 160.839 240.109 161.289 241.258C161.981 243.013 162.359 244.87 162.65 246.728C162.88 245.905 162.985 245.052 163.065 244.203C163.218 242.074 162.996 239.789 161.759 237.986C161.038 236.893 159.84 236.172 158.561 235.947C156.897 235.665 155.173 235.928 153.597 236.5ZM136.663 263.23C135.248 264.325 134.318 265.928 133.656 267.566C132.772 269.698 132.504 272.112 132.954 274.382C133.256 275.764 133.899 277.225 135.189 277.941C136.203 278.515 137.485 278.311 138.425 277.686C139.967 276.684 140.95 275.025 141.583 273.334C142.278 271.367 142.579 269.214 142.199 267.147C142.206 266.029 142.082 264.873 141.597 263.85C141.26 263.129 140.623 262.514 139.823 262.358C138.707 262.138 137.548 262.553 136.663 263.23ZM146.322 264.306C145.559 265.296 145.07 266.522 144.953 267.766L144.939 267.802C144.419 270.168 144.657 272.689 145.556 274.934C146.131 276.303 146.997 277.656 148.346 278.362C149.245 278.848 150.396 278.804 151.241 278.222C152.414 277.431 153.046 276.07 153.395 274.74C153.999 272.288 153.768 269.644 152.818 267.311C152.671 266.609 152.303 265.98 151.975 265.351C151.378 264.312 150.554 263.23 149.319 262.963C148.167 262.783 147.03 263.428 146.322 264.306ZM160.781 275.512C160.063 275.806 159.929 276.89 160.557 277.347C161.158 277.884 162.227 277.457 162.308 276.659C162.468 275.847 161.518 275.128 160.781 275.512ZM141.148 277.26C139.544 277.449 137.921 277.924 136.618 278.91C135.806 279.528 135.114 280.464 135.159 281.531C135.185 282.618 135.944 283.525 136.793 284.126C138.462 285.285 140.535 285.702 142.535 285.736C144.557 285.728 146.654 285.33 148.358 284.186C149.316 283.539 150.169 282.485 150.064 281.262C149.956 279.99 148.937 279.032 147.889 278.432C145.854 277.303 143.436 277.014 141.148 277.26ZM121.611 277.871C120.796 278.169 120.647 279.399 121.371 279.881C122.054 280.439 123.197 279.898 123.211 279.019C123.301 278.192 122.363 277.532 121.611 277.871ZM128.21 283.026C127.631 283.265 127.595 284.18 128.167 284.451C128.657 284.757 129.344 284.335 129.344 283.771C129.374 283.205 128.72 282.765 128.21 283.026ZM154.054 284.093C153.704 284.241 153.652 284.771 153.981 284.975C154.253 285.198 154.684 285.01 154.767 284.684C154.893 284.295 154.416 283.88 154.054 284.093ZM162.76 285.297C161.931 285.417 161.282 286.233 161.367 287.071C161.414 287.938 162.234 288.674 163.104 288.607C164.013 288.59 164.784 287.716 164.688 286.81C164.643 285.869 163.686 285.108 162.76 285.297ZM114.845 294.192C117.394 298.068 120.782 301.271 123.794 304.77C125.196 306.506 126.132 308.562 126.943 310.627C129.138 316.361 130.256 322.422 131.947 328.308C132.449 329.953 132.96 331.659 134.067 333.015C135.774 335.166 138.388 336.506 141.091 336.857C144.131 337.278 147.296 336.357 149.71 334.478C150.499 333.911 151.133 333.16 151.654 332.347C152.781 330.591 153.587 328.655 154.355 326.722C155.672 323.328 156.798 319.866 158.02 316.44C159.105 313.429 160.212 310.412 161.704 307.575C162.719 305.62 164.225 303.943 165.993 302.639C169.147 300.316 172.988 299.085 176.845 298.611C175.398 298.085 173.819 298.361 172.336 298.576C170.447 298.949 168.513 299.334 166.814 300.286C165.299 301.116 163.908 302.151 162.392 302.98C160.399 304.1 158.221 304.868 155.987 305.338C151.741 306.225 147.372 306.244 143.057 306.035C141.084 305.915 139.106 305.798 137.154 305.469C134.924 305.103 132.724 304.535 130.606 303.745C126.162 302.101 122.103 299.448 118.784 296.065C115.84 293.049 113.392 289.513 111.769 285.613C111.916 288.703 113.161 291.636 114.845 294.192ZM120.968 287.925C120.466 288.033 120.063 288.528 120.111 289.051C120.135 289.653 120.734 290.165 121.335 290.069C121.88 290.004 122.331 289.475 122.278 288.921C122.257 288.286 121.59 287.764 120.968 287.925Z" fill="#FBED17" stroke="#FBED17" stroke-width="0.0938"/>
<path d="M137.955 72.8198C138.561 72.1159 139.575 72.3514 140.37 72.4895C142.182 72.8875 144.021 73.2368 145.766 73.8866C148.232 74.8126 150.222 76.605 152.153 78.3379C152.894 79.0094 153.625 79.9245 153.487 80.9913C153.24 82.4101 151.956 83.2982 150.82 84.0048C148.035 85.5915 144.911 86.4362 141.833 87.2431C139.992 87.6628 138.166 88.2178 136.271 88.3072C136.606 87.855 137.006 87.411 137.087 86.8315C137.479 84.763 137.347 82.6429 137.263 80.5554C137.893 79.5292 138.488 78.3812 138.377 77.1384C138.331 75.6926 137.598 74.2657 137.955 72.8198Z" fill="#E7C220" stroke="#E7C220" stroke-width="0.0938"/>
<path d="M124.936 76.5697C124.915 76.012 125.207 75.5327 125.472 75.067C126.424 79.6266 127.23 84.2457 127.381 88.9081C123.952 88.261 120.561 87.3757 117.31 86.0977C115.395 85.2773 113.408 84.354 112.058 82.7051C111.003 81.4352 110.673 79.5616 111.352 78.0426C111.588 77.5065 112.247 77.5201 112.723 77.3522C112.826 78.419 112.737 79.613 113.443 80.5011C114.408 81.7656 116.569 82.1527 117.729 80.956C118.6 79.8594 117.545 78.5083 117.643 77.2845C119.298 77.6988 120.371 79.1392 121.402 80.3901C122.283 81.4434 122.722 82.8215 123.717 83.78C124.233 83.9045 124.439 83.2791 124.539 82.8946C125.026 80.8233 124.861 78.6789 124.936 76.5697Z" fill="#E7C220" stroke="#E7C220" stroke-width="0.0938"/>
<path d="M228.606 76.5156C229.114 78.7521 228.979 81.1916 228.319 83.3929C228.187 82.188 228.463 80.9967 228.519 79.7972C228.579 78.7033 228.487 77.6068 228.606 76.5156Z" fill="#518E40" stroke="#518E40" stroke-width="0.0938"/>
<path d="M98.5523 110.173C100.521 109.272 102.593 108.522 104.786 108.476C106.133 108.541 107.482 108.749 108.75 109.226C109.911 109.67 111.003 110.276 112.004 111.01C112.664 111.489 113.283 112.025 113.873 112.594C113.137 112.201 112.41 111.787 111.614 111.533C110.127 111.094 108.553 111.089 107.025 111.267C102.996 111.752 99.3366 113.915 96.6105 116.869C93.4383 120.186 91.1639 124.245 89.3276 128.42C89.8956 123.305 91.2694 118.082 94.4335 113.932C95.5504 112.418 97.0351 111.251 98.5523 110.173Z" fill="black" stroke="black" stroke-width="0.0938"/>
<path d="M114.819 113.701C114.57 113.404 114.324 113.103 114.092 112.794C114.936 113.482 115.655 114.316 116.188 115.266L116.312 115.497C115.79 114.917 115.32 114.297 114.819 113.701Z" fill="black" stroke="black" stroke-width="0.0938"/>
<path d="M150.633 123.592C153.868 122.417 157.405 121.878 160.818 122.458C163.444 122.918 165.902 124.399 167.382 126.641C169.918 130.342 170.375 135.032 170.062 139.399C169.897 141.143 169.68 142.892 169.21 144.581C168.612 140.769 167.836 136.957 166.416 133.356C165.494 130.997 164.204 128.631 162.021 127.223C158.652 124.987 154.603 124.036 150.633 123.592Z" fill="black" stroke="black" stroke-width="0.0938"/>
<path d="M115.885 178.448C117.702 177.059 120.079 176.206 122.37 176.658C124.011 176.977 125.318 178.239 126.01 179.72C127.005 181.819 127.259 184.19 127.246 186.486C127.13 186.056 127.008 185.628 126.886 185.203C126.324 182.953 125.185 180.589 123.043 179.477C121.037 178.456 118.651 179.119 116.845 180.256C114.606 181.67 112.664 183.549 111.082 185.666C110.633 186.229 110.173 186.784 109.716 187.345C111.074 183.985 112.983 180.695 115.885 178.448Z" fill="black" stroke="black" stroke-width="0.0938"/>
<path d="M135.705 180.654C137.157 178.854 139.491 177.53 141.855 177.898C144.389 178.448 146.079 180.668 147.304 182.799C147.978 184.09 148.732 185.382 149.035 186.822C148.621 186.042 148.132 185.309 147.626 184.588C146.558 182.929 145.119 181.459 143.353 180.551C141.33 179.498 138.75 179.791 136.933 181.139C135.448 182.246 134.337 183.822 133.685 185.55C133.344 186.256 133.117 187.006 132.895 187.756C133.136 185.203 134.139 182.688 135.705 180.654Z" fill="black" stroke="black" stroke-width="0.0938"/>
<path d="M116.845 180.256C118.651 179.119 121.037 178.456 123.043 179.477C125.185 180.589 126.324 182.953 126.886 185.203C125.575 183.738 124.136 182.254 122.208 181.656C119.736 180.803 117.015 181.521 114.865 182.872C113.518 183.684 112.377 184.781 111.082 185.666C112.664 183.549 114.606 181.67 116.845 180.256Z" fill="#ABBDC2" stroke="#ABBDC2" stroke-width="0.0938"/>
<path d="M136.933 181.139C138.75 179.791 141.33 179.498 143.353 180.551C145.119 181.458 146.558 182.929 147.626 184.588C146.168 183.725 144.97 182.43 143.332 181.881C141.219 180.995 138.715 181.374 136.884 182.723C135.657 183.484 134.889 184.762 133.685 185.55C134.337 183.822 135.448 182.246 136.933 181.139Z" fill="#ABBDC2" stroke="#ABBDC2" stroke-width="0.0938"/>
<path d="M114.865 182.872C117.015 181.521 119.736 180.803 122.208 181.656C124.136 182.254 125.574 183.738 126.886 185.203C127.008 185.628 127.13 186.056 127.246 186.486C128.025 190.726 127.408 195.145 125.98 199.182C124.682 202.653 122.665 206.057 119.5 208.115C117.572 209.395 114.941 209.815 112.861 208.637C110.214 207.167 108.894 204.17 108.275 201.332C107.352 196.675 107.901 191.72 109.716 187.345C110.173 186.784 110.633 186.229 111.082 185.666C112.377 184.781 113.518 183.684 114.865 182.872ZM118.524 193.578C117.196 194.198 116.393 195.551 115.887 196.873C115.044 199.261 114.946 202.001 115.977 204.348C116.48 205.448 117.44 206.566 118.749 206.569C119.944 206.569 120.918 205.68 121.55 204.741C122.824 202.8 123.238 200.376 123.003 198.088C122.824 196.67 122.386 195.194 121.358 194.154C120.647 193.402 119.471 193.101 118.524 193.578Z" fill="white" stroke="white" stroke-width="0.0938"/>
<path d="M136.884 182.723C138.715 181.375 141.219 180.995 143.331 181.881C144.97 182.43 146.168 183.725 147.626 184.588C148.132 185.309 148.621 186.042 149.035 186.822C150.985 191.609 151.458 197.035 150.219 202.068C149.503 204.798 148.205 207.589 145.798 209.214C144.064 210.408 141.703 210.497 139.859 209.501C137.09 208.052 135.313 205.274 134.134 202.467C132.289 197.858 131.8 192.684 132.868 187.829L132.895 187.756C133.117 187.006 133.344 186.256 133.685 185.55C134.888 184.762 135.656 183.484 136.884 182.723ZM139.697 193.716C138.104 194.374 137.368 196.131 137.009 197.707C136.589 199.967 136.76 202.41 137.823 204.481C138.358 205.488 139.175 206.471 140.327 206.761C141.428 207.021 142.512 206.355 143.137 205.485C144.229 204.007 144.565 202.112 144.565 200.311C144.513 198.329 144.037 196.25 142.72 194.715C142.004 193.87 140.795 193.261 139.697 193.716Z" fill="white" stroke="white" stroke-width="0.0938"/>
<path d="M118.524 193.578C119.471 193.101 120.647 193.402 121.358 194.154C122.386 195.194 122.824 196.67 123.003 198.088C123.238 200.376 122.824 202.8 121.55 204.741C120.918 205.68 119.944 206.569 118.749 206.569C117.44 206.566 116.48 205.448 115.977 204.348C114.946 202.001 115.044 199.261 115.887 196.873C116.393 195.551 117.196 194.198 118.524 193.578ZM118.043 195.232C117.229 195.7 117.286 196.997 118.135 197.395C119.014 197.972 120.252 196.967 119.925 195.982C119.76 195.167 118.716 194.777 118.043 195.232Z" fill="black" stroke="black" stroke-width="0.0938"/>
<path d="M139.697 193.716C140.795 193.261 142.004 193.87 142.72 194.715C144.037 196.25 144.513 198.329 144.565 200.311C144.565 202.112 144.229 204.007 143.137 205.486C142.512 206.355 141.428 207.021 140.327 206.761C139.175 206.471 138.358 205.488 137.823 204.481C136.76 202.41 136.589 199.967 137.009 197.707C137.368 196.131 138.104 194.374 139.697 193.716ZM139.329 195.714C138.669 196.066 138.477 197.062 139.026 197.593C139.572 198.273 140.814 198.021 141.052 197.179C141.471 196.199 140.235 195.167 139.329 195.714Z" fill="black" stroke="black" stroke-width="0.0938"/>
<path d="M118.043 195.232C118.716 194.777 119.76 195.167 119.925 195.982C120.252 196.967 119.014 197.972 118.135 197.395C117.286 196.997 117.229 195.7 118.043 195.232Z" fill="white" stroke="white" stroke-width="0.0938"/>
<path d="M139.329 195.714C140.235 195.167 141.471 196.199 141.052 197.179C140.814 198.021 139.572 198.273 139.026 197.593C138.477 197.062 138.669 196.066 139.329 195.714Z" fill="white" stroke="white" stroke-width="0.0938"/>
<path d="M204.359 196.957C213.118 206.696 220.726 217.613 225.81 229.735C225.264 229.767 225.147 229.18 224.936 228.809C224.598 228.067 224.209 227.352 223.8 226.651C222.716 224.154 221.226 221.858 219.855 219.516C216.942 214.645 213.689 209.988 210.352 205.404C209.024 203.536 207.623 201.719 206.241 199.892C205.557 198.952 204.597 198.151 204.359 196.957Z" fill="#F7E816" stroke="#F7E816" stroke-width="0.0938"/>
<path d="M165.375 203.653C166.887 202.865 168.837 204.34 168.507 206.005C168.342 207.643 166.148 208.521 164.915 207.419C163.625 206.479 163.901 204.256 165.375 203.653Z" fill="#EE9124" stroke="#EE9124" stroke-width="0.0938"/>
<path d="M125.088 207.24C129.783 206.734 134.745 207.327 138.921 209.644C141.071 210.876 143.161 212.842 143.383 215.452C143.599 217.962 141.85 220.125 139.884 221.452C136.387 223.799 132.084 224.617 127.936 224.633C123.83 224.563 119.576 223.707 116.153 221.33C114.411 220.096 112.853 218.235 112.799 216.004C112.707 213.814 114.127 211.894 115.793 210.624C118.468 208.602 121.797 207.627 125.088 207.24ZM122.884 208.534C120.975 208.867 119.065 209.509 117.535 210.733C116.523 211.561 115.641 212.747 115.69 214.117C115.725 215.663 116.84 216.941 118.059 217.764C120.488 219.332 123.452 219.882 126.305 219.795C128.798 219.689 131.357 219.126 133.455 217.721C134.721 216.849 135.87 215.455 135.735 213.825C135.613 212.103 134.237 210.814 132.825 210.007C129.834 208.309 126.232 208.041 122.884 208.534Z" fill="#EE9124" stroke="#EE9124" stroke-width="0.0938"/>
<path d="M85.0007 208.494C86.5422 207.798 88.4677 209.152 88.2838 210.849C88.2541 212.653 85.9094 213.763 84.5085 212.617C83.0211 211.629 83.3267 209.106 85.0007 208.494Z" fill="#EE9124" stroke="#EE9124" stroke-width="0.0938"/>
<path d="M122.884 208.534C126.232 208.041 129.834 208.309 132.825 210.007C134.237 210.814 135.613 212.103 135.735 213.825C135.87 215.455 134.721 216.849 133.455 217.721C131.357 219.126 128.798 219.689 126.305 219.795C123.452 219.882 120.488 219.332 118.059 217.764C116.84 216.941 115.725 215.663 115.69 214.117C115.641 212.747 116.523 211.561 117.535 210.733C119.065 209.509 120.975 208.867 122.884 208.534Z" fill="#F5BE15" stroke="#F5BE15" stroke-width="0.0938"/>
<path d="M98.5416 219.072C99.5882 218.536 100.93 219.44 100.867 220.602C100.867 221.758 99.4584 222.624 98.4524 221.996C97.2787 221.441 97.3517 219.562 98.5416 219.072Z" fill="#EE9124" stroke="#EE9124" stroke-width="0.0938"/>
<path d="M151.572 221.263C152.313 220.824 153.292 221.677 153.035 222.476C152.864 223.144 151.98 223.529 151.42 223.071C150.747 222.654 150.852 221.566 151.572 221.263Z" fill="#EE9324" stroke="#EE9324" stroke-width="0.0938"/>
<path d="M169.434 223.732C171.335 223.345 173.299 224.907 173.391 226.837C173.588 228.698 172.006 230.49 170.14 230.525C168.355 230.663 166.673 229.152 166.576 227.374C166.403 225.654 167.733 223.978 169.434 223.732Z" fill="#EE9124" stroke="#EE9124" stroke-width="0.0938"/>
<path d="M80.247 256.703C77.3739 252.323 75.2518 247.296 75 242C77.7696 248.684 81.9442 254.745 86.9664 259.914C92.627 265.712 99.551 270.259 107.131 273.077C110.744 274.431 114.496 275.403 118.3 276.032C121.629 276.595 125.004 276.796 128.369 277.002C135.729 277.359 143.181 277.328 150.422 275.806C154.233 275.001 157.949 273.685 161.348 271.765C163.933 270.345 166.307 268.57 168.89 267.148C171.788 265.517 175.088 264.857 178.309 264.217C180.838 263.848 183.532 263.376 186 264.278C179.422 265.09 172.869 267.2 167.49 271.182C164.475 273.416 161.905 276.29 160.174 279.641C157.63 284.503 155.741 289.674 153.891 294.835C151.807 300.707 149.885 306.641 147.639 312.457C146.329 315.769 144.955 319.089 143.033 322.099C142.143 323.492 141.061 324.778 139.717 325.751C135.599 328.971 130.201 330.549 125.015 329.828C120.404 329.226 115.946 326.929 113.035 323.243C111.146 320.918 110.274 317.994 109.418 315.175C106.533 305.087 104.627 294.699 100.882 284.871C99.4993 281.332 97.9032 277.809 95.5113 274.834C90.3745 268.837 84.5947 263.346 80.247 256.703ZM126.089 290.728C127.701 293.066 129.066 295.59 130.014 298.274C130.918 300.804 131.264 303.563 130.866 306.227C130.839 306.482 130.619 307.014 130.284 306.817C129.459 306.297 128.978 305.397 128.396 304.642C126.449 301.768 124.304 299.002 121.755 296.639C120.537 295.533 119.217 294.455 117.634 293.939C116.762 293.645 115.712 293.711 115.013 294.362C113.97 295.285 113.788 296.777 113.725 298.093C113.631 301.582 114.51 305.031 115.777 308.257C117.077 311.437 118.884 314.499 121.51 316.746C123.466 318.426 126.013 319.478 128.609 319.349C130.88 319.288 133.076 318.243 134.623 316.579C136.835 314.225 137.923 311.003 138.213 307.819C138.58 303.459 137.415 298.862 134.56 295.495C132.431 292.935 129.331 291.325 126.089 290.728Z" fill="black" stroke="black" stroke-width="0.0938"/>
<path d="M83.6811 229.125C84.9576 228.795 86.326 229.867 86.3693 231.17C86.4774 232.307 85.5525 233.392 84.4329 233.525C83.1997 233.723 81.9719 232.672 81.9233 231.438C81.8232 230.363 82.6507 229.347 83.6811 229.125Z" fill="#EE9124" stroke="#EE9124" stroke-width="0.0938"/>
<path d="M116.753 105.733C116.658 103.526 116.393 101.322 116.012 99.1455H115.969C115.625 97.28 115.117 95.3955 114.019 93.8251C112.926 92.5417 111.033 92.4957 109.562 93.0697C107.539 93.8576 105.968 95.4578 104.645 97.1311C102.268 100.229 100.608 103.808 99.2664 107.458C99.0041 108.124 98.877 108.86 98.4416 109.448C98.4686 109.629 98.5254 109.992 98.5525 110.173C100.521 109.272 102.593 108.522 104.786 108.476C106.133 108.541 107.482 108.749 108.751 109.226C109.911 109.67 111.003 110.276 112.004 111.01C112.664 111.489 113.283 112.025 113.873 112.594C113.137 112.201 112.41 111.787 111.615 111.533C110.127 111.094 108.553 111.089 107.025 111.267C102.996 111.752 99.3367 113.915 96.6107 116.869C96.0157 120.105 95.6669 123.378 95.2801 126.646C94.9772 129.045 94.5743 131.433 94.2308 133.827L94.1686 133.843C93.6061 137.211 92.8543 140.544 92.0862 143.869L92.0376 143.88C91.1614 147.478 90.0715 151.023 88.914 154.537C88.3624 155.78 87.9648 157.085 87.4401 158.339C84.4085 165.909 80.4304 173.32 74.4618 178.984C72.1955 181.188 69.4587 182.796 66.9355 184.667C65.2912 185.875 63.6632 187.101 62.1028 188.412L62.0893 188.487C61.1373 189.164 60.2692 189.952 59.3795 190.71C45.2221 202.973 34.1179 218.663 26.8864 235.924L26.8296 235.929C24.7499 240.846 22.8974 245.877 21.51 251.035L21.4505 250.965C20.477 254.636 19.4818 258.321 18.9814 262.093C22.9758 255.01 26.8728 247.864 31.1701 240.957C32.6386 238.488 34.3423 236.16 35.7757 233.671C36.3355 233.138 36.6843 232.407 37.1522 231.792C40.1216 227.522 43.2965 223.396 46.7122 219.473L46.723 219.362C46.961 219.172 47.1881 218.972 47.4072 218.763C53.1811 212.349 59.7986 206.479 67.6414 202.737C69.886 201.768 72.2226 200.977 74.3158 199.691C76.7632 198.237 79.0376 196.507 81.2011 194.658C87.7403 188.994 93.3708 182.344 98.3983 175.32C104.302 166.965 109.494 157.976 112.677 148.212C113.375 145.884 114.111 143.525 114.349 141.105C114.971 138.392 115.279 135.617 115.66 132.863C115.755 131.734 116.031 130.608 115.969 129.473C116.247 127.323 116.504 125.149 116.512 122.98C116.753 120.99 116.793 118.984 116.856 116.983C116.983 113.236 117.037 109.475 116.753 105.733ZM114.819 113.701C114.571 113.404 114.324 113.103 114.092 112.794C114.936 113.482 115.655 114.316 116.188 115.266L116.312 115.497C115.79 114.917 115.32 114.297 114.819 113.701Z" fill="url(#paint0_linear_106_2)" stroke="#FAF165" stroke-width="0.0938"/>
<path d="M126.089 290C129.257 290.605 132.286 292.235 134.366 294.828C137.156 298.238 138.294 302.895 137.936 307.311C137.653 310.535 136.589 313.799 134.428 316.184C132.916 317.869 130.77 318.927 128.551 318.989C126.014 319.12 123.525 318.055 121.614 316.353C119.048 314.076 117.282 310.975 116.012 307.755C114.773 304.487 113.915 300.994 114.007 297.46C114.068 296.127 114.246 294.615 115.266 293.681C115.949 293.021 116.975 292.955 117.827 293.252C119.373 293.775 120.663 294.867 121.854 295.987C124.345 298.38 126.44 301.182 128.343 304.093C128.912 304.858 129.382 305.769 130.188 306.296C130.515 306.495 130.731 305.957 130.757 305.698C131.146 303 130.808 300.206 129.924 297.643C128.997 294.924 127.664 292.368 126.089 290Z" fill="#E22528" stroke="#E22528" stroke-width="0.0938"/>
<path d="M235.824 262.502C234.84 254.04 232.208 245.866 229.109 237.968C227.938 235.25 226.994 232.445 225.81 229.735C225.263 229.767 225.147 229.179 224.936 228.809C224.598 228.067 224.209 227.352 223.8 226.651C222.716 224.154 221.226 221.858 219.855 219.516C216.942 214.645 213.689 209.988 210.351 205.404C209.024 203.536 207.623 201.719 206.241 199.892C205.557 198.952 204.596 198.151 204.358 196.957C203.242 195.616 201.981 194.398 200.91 193.02C198.301 189.646 195.718 186.254 193.26 182.769C187.967 175.193 183.099 167.079 180.83 158.033C180.192 155.563 179.697 153.056 179.319 150.533C177.255 136.423 178.591 122.136 177.983 107.945C177.558 99.7304 176.541 91.2259 172.468 83.929C170.01 87.2701 167.557 90.6221 164.956 93.8522C164.52 94.3206 164.902 94.984 164.972 95.5255C166.327 100.223 167.146 105.045 168.012 109.851C170.694 125.555 171.7 141.481 172.971 157.339C173.423 161.106 173.602 164.915 174.448 168.625C176.409 177.519 179.243 186.213 182.75 194.615C186.821 204.411 191.699 213.865 195.364 223.829C198.236 231.481 199.958 239.568 200.299 247.74C201.054 261.703 200.891 275.782 198.677 289.615C197.078 299.409 194.444 309.153 189.741 317.939C186.948 323.211 183.224 327.927 179.11 332.219C177.436 333.908 175.679 335.582 173.558 336.697C172.606 337.166 171.406 337.58 170.408 337.009C169.415 336.386 169.161 335.119 169.045 334.038C168.82 331.339 169.385 328.653 169.989 326.038C170.93 322.274 171.846 318.497 172.414 314.655C172.733 312.324 173.15 309.933 172.717 307.591C172.642 306.881 172.03 306.042 171.235 306.44C169.921 307.033 169.061 308.27 168.185 309.367C163.219 316.531 157.037 322.742 150.712 328.699C147.686 331.526 144.519 334.195 141.333 336.841C141.341 338.278 140.716 339.603 140.229 340.924C138.747 344.617 136.103 348.083 132.3 349.564C129.474 350.679 126.351 350.471 123.395 350.138C120.739 349.783 117.835 348.762 116.49 346.255C114.324 345.018 112.426 343.369 110.676 341.601C107.174 338.243 104.14 334.431 101.37 330.456C96.4429 323.214 92.0483 315.427 89.8766 306.876C89.3006 305.097 88.6029 303.27 87.2831 301.902C86.5124 301.079 85.3441 300.562 84.2164 300.86C82.7236 301.231 81.6445 302.468 80.8683 303.733C79.5161 306.02 78.7724 308.658 78.6805 311.314C78.5561 313.656 78.8941 316.003 78.6832 318.345C78.118 324.213 75.7408 330.015 71.6112 334.271C69.7073 336.139 67.3518 337.699 64.6718 338.102C61.7267 338.495 58.8141 337.612 56.0475 336.7C48.4184 334.093 41.2491 330.367 34.0825 326.717C36.5056 329.533 39.2506 332.073 42.101 334.455C42.9935 335.222 44.0536 335.85 44.6377 336.914C46.6092 338.349 48.7078 339.594 50.7604 340.908C51.4203 341.319 52.0775 341.733 52.7373 342.15C58.5842 345.816 64.8313 348.83 71.3192 351.175C74.7672 352.296 78.2397 353.373 81.7986 354.093C83.6998 354.543 85.6389 354.803 87.5427 355.233C88.6786 355.409 89.7928 355.696 90.9286 355.864C91.7264 355.729 92.5378 355.65 93.3437 355.767C95.6721 356.043 98.0195 356.097 100.353 356.314C102.365 356.492 104.399 356.419 106.392 356.779C108.404 356.758 110.408 356.996 112.418 357.037C114.706 357.256 117.021 357.337 119.262 357.895C122.381 358.639 125.485 359.441 128.633 360.064C133.582 360.884 138.615 361.228 143.629 360.965C148.932 360.76 154.19 359.942 159.404 358.981C160.399 358.761 161.397 358.545 162.395 358.32C168.223 357.061 173.945 355.358 179.64 353.606C183.567 352.236 187.375 350.544 191.039 348.578C200.242 343.469 208.372 336.519 215.098 328.431C219.127 323.601 222.627 318.337 225.642 312.819C229.058 306.391 231.792 299.587 233.623 292.537C236.192 282.779 237.025 272.53 235.824 262.502Z" fill="url(#paint1_linear_106_2)" stroke="#F6CD11" stroke-width="0.0938"/>
<path d="M134.25 341.996C136.676 340.369 138.988 338.582 141.333 336.841C140.884 339.02 139.288 340.748 137.604 342.099C135.189 343.894 132.243 345.066 129.22 345.177C130.845 344.038 132.617 343.125 134.25 341.996Z" fill="#F5C610" stroke="#F5C610" stroke-width="0.0938"/>
<path d="M141.333 336.841C141.341 338.279 140.716 339.603 140.23 340.924C138.748 344.617 136.103 348.083 132.3 349.564C129.474 350.679 126.351 350.471 123.395 350.138C120.739 349.783 117.835 348.762 116.491 346.255C115.668 344.563 115.555 342.646 115.539 340.799C119.636 343.331 124.331 345.286 129.22 345.177C132.244 345.066 135.189 343.894 137.604 342.099C139.288 340.748 140.884 339.02 141.333 336.841Z" fill="black" stroke="black" stroke-width="0.0938"/>
<path d="M90.9287 355.864C91.7265 355.729 92.5378 355.65 93.3437 355.767C95.6722 356.043 98.0196 356.097 100.353 356.314C102.366 356.492 104.399 356.419 106.392 356.779C104.378 356.888 102.366 357.134 100.345 357.031C97.1812 356.888 94.036 356.457 90.9287 355.864Z" fill="#FFF10B" stroke="#FFF10B" stroke-width="0.0938"/>
<defs>
<linearGradient id="paint0_linear_106_2" x1="84.2504" y1="192.844" x2="49.1025" y2="163.386" gradientUnits="userSpaceOnUse">
<stop stop-color="#FAF165"/>
<stop offset="1" stop-color="#FEFDEC"/>
</linearGradient>
<linearGradient id="paint1_linear_106_2" x1="135.223" y1="361.052" x2="135.223" y2="83.929" gradientUnits="userSpaceOnUse">
<stop stop-color="#F8D914"/>
<stop offset="0.2404" stop-color="#F6CD11"/>
<stop offset="0.5043" stop-color="#F8D914"/>
<stop offset="1" stop-color="#F6CD11"/>
</linearGradient>
</defs>
</svg>
