<svg width="574" height="558" viewBox="0 0 574 558" fill="none" xmlns="http://www.w3.org/2000/svg">
<g clip-path="url(#clip0_405_2)">
<g filter="url(#filter0_f_405_2)">
<path d="M186.954 518.844C331.454 570.348 492.633 501.041 546.957 364.044C601.281 227.047 528.179 74.236 383.679 22.733C239.179 -28.771 78 40.536 23.676 177.533C-30.648 314.53 42.454 467.341 186.954 518.844Z" fill="white"/>
</g>
<path d="M186.24 524.577C333.539 577.08 497.842 506.432 553.22 366.78C608.598 227.128 534.081 71.356 386.781 18.854C239.482 -33.649 75.1792 36.9991 19.8012 176.651C-35.5769 316.302 38.9402 472.074 186.24 524.577Z" fill="#E7E7E7" stroke="#B3B3B3" stroke-width="3"/>
<g filter="url(#filter1_f_405_2)">
<path d="M210.374 463.746C322.235 503.616 447.007 449.964 489.06 343.912C531.114 237.859 474.524 119.565 362.663 79.695C250.803 39.825 126.031 93.477 83.9772 199.529C41.9242 305.582 98.5142 423.876 210.374 463.746Z" fill="url(#paint0_linear_405_2)"/>
</g>
<g filter="url(#filter2_f_405_2)">
<path d="M219.193 441.506C318.098 476.759 428.42 429.321 465.603 335.55C502.786 241.78 452.75 137.187 353.844 101.934C254.939 66.682 144.617 114.12 107.434 207.89C70.2511 301.66 120.287 406.254 219.193 441.506Z" fill="url(#paint1_linear_405_2)"/>
</g>
<g filter="url(#filter3_f_405_2)">
<path d="M222.694 432.679C313.941 465.202 415.721 421.437 450.025 334.927C484.329 248.417 438.167 151.921 346.92 119.399C255.672 86.876 153.892 130.641 119.588 217.151C85.284 303.661 131.446 400.156 222.694 432.679Z" fill="url(#paint2_radial_405_2)"/>
</g>
<g filter="url(#filter4_f_405_2)">
<path d="M187.141 522.329C333.639 574.545 497.046 504.28 552.121 365.388C607.196 226.496 533.083 71.5739 386.585 19.3579C240.087 -32.8571 76.6801 37.4079 21.6051 176.3C-33.4696 315.191 40.6431 470.114 187.141 522.329Z" stroke="#E6E6E6" stroke-width="1.86857"/>
</g>
<g filter="url(#filter5_f_405_2)">
<path d="M324.936 86.139C217.337 66.207 113.068 132.746 92.0438 234.758C71.0198 336.77 141.202 435.625 248.801 455.558C356.4 475.49 460.669 408.952 481.693 306.94C502.717 204.927 432.534 106.072 324.936 86.139Z" stroke="url(#paint3_linear_405_2)" stroke-width="5"/>
</g>
<g filter="url(#filter6_f_405_2)">
<path d="M227.796 449.85C332.074 480.775 443.051 425.7 475.67 326.836C508.288 227.972 450.197 122.757 345.918 91.832C241.64 60.907 130.663 115.982 98.0441 214.846C65.4261 313.71 123.517 418.925 227.796 449.85Z" stroke="url(#paint4_linear_405_2)" stroke-width="4.98301"/>
</g>
<g opacity="0.047" filter="url(#filter7_f_405_2)">
<path d="M178.421 447.854C75.3078 391.069 40.2738 265.786 100.169 168.028C160.064 70.2691 292.207 37.0541 395.319 93.8391C498.432 150.624 533.466 275.907 473.571 373.665C413.676 471.424 281.533 504.639 178.421 447.854Z" stroke="url(#paint5_linear_405_2)" stroke-width="5.43838"/>
</g>
<g opacity="0.365" filter="url(#filter8_f_405_2)">
<path d="M155.089 117.849C160.3 119.706 246.391 37.601 374.878 96.089C503.36 154.571 493.165 266.543 493.165 266.543C493.165 266.543 472.357 145.34 361.676 106.887C228.356 60.578 177.574 117.399 155.091 117.843L155.089 117.849Z" fill="url(#paint6_linear_405_2)"/>
</g>
<path d="M92.4748 441.448C119.106 464.88 153.917 470.366 170.228 453.702C186.54 437.039 178.175 404.536 151.545 381.105C124.915 357.674 90.1038 352.187 73.7918 368.851C57.4798 385.514 65.8448 418.017 92.4748 441.448Z" fill="url(#paint7_radial_405_2)"/>
<path d="M107.256 426.349C120.559 438.053 137.949 440.794 146.097 432.47C154.245 424.146 150.066 407.909 136.764 396.204C123.461 384.5 106.071 381.759 97.9231 390.083C89.7751 398.407 93.9531 414.644 107.256 426.349Z" fill="url(#paint8_radial_405_2)"/>
<g filter="url(#filter9_f_405_2)">
<path d="M113.682 81.99C121.414 84.686 159.417 89.022 164.958 96.562C139.951 104.191 102.792 154.544 81.7659 218.914C61.9689 279.521 87.5689 346.65 80.5349 350.662C71.7899 353.222 34.6119 336.34 26.8799 333.645C-17.2496 314.272 8.95657 226.225 19.0589 193.328C30.8329 160.754 75.9229 70.001 113.684 81.986L113.682 81.99Z" fill="url(#paint9_radial_405_2)"/>
</g>
<g filter="url(#filter10_f_405_2)">
<path d="M548.116 236.793C540.427 233.992 508.823 213.519 499.414 215.73C512.928 237.089 505.894 298.179 476.985 359.74C449.765 417.702 383.861 452.216 386.364 459.628C391.165 467.016 430.865 477.536 438.555 480.337C485.216 493.324 526.681 410.715 541.94 379.656C555.716 347.796 584.854 251.356 548.117 236.789L548.116 236.793Z" fill="url(#paint10_radial_405_2)"/>
</g>
</g>
<defs>
<filter id="filter0_f_405_2" x="-0.58976" y="-0.600747" width="571.812" height="542.778" filterUnits="userSpaceOnUse" color-interpolation-filters="sRGB">
<feFlood flood-opacity="0" result="BackgroundImageFix"/>
<feBlend mode="normal" in="SourceGraphic" in2="BackgroundImageFix" result="shape"/>
<feGaussianBlur stdDeviation="3.15572" result="effect1_foregroundBlur_405_2"/>
</filter>
<filter id="filter1_f_405_2" x="63.8605" y="60.2997" width="445.317" height="422.841" filterUnits="userSpaceOnUse" color-interpolation-filters="sRGB">
<feFlood flood-opacity="0" result="BackgroundImageFix"/>
<feBlend mode="normal" in="SourceGraphic" in2="BackgroundImageFix" result="shape"/>
<feGaussianBlur stdDeviation="3.10905" result="effect1_foregroundBlur_405_2"/>
</filter>
<filter id="filter2_f_405_2" x="88.9269" y="84.0651" width="395.183" height="375.31" filterUnits="userSpaceOnUse" color-interpolation-filters="sRGB">
<feFlood flood-opacity="0" result="BackgroundImageFix"/>
<feBlend mode="normal" in="SourceGraphic" in2="BackgroundImageFix" result="shape"/>
<feGaussianBlur stdDeviation="3.10905" result="effect1_foregroundBlur_405_2"/>
</filter>
<filter id="filter3_f_405_2" x="101.863" y="102.263" width="365.887" height="347.552" filterUnits="userSpaceOnUse" color-interpolation-filters="sRGB">
<feFlood flood-opacity="0" result="BackgroundImageFix"/>
<feBlend mode="normal" in="SourceGraphic" in2="BackgroundImageFix" result="shape"/>
<feGaussianBlur stdDeviation="3.19362" result="effect1_foregroundBlur_405_2"/>
</filter>
<filter id="filter4_f_405_2" x="-1.60504" y="-2.90448" width="576.936" height="547.496" filterUnits="userSpaceOnUse" color-interpolation-filters="sRGB">
<feFlood flood-opacity="0" result="BackgroundImageFix"/>
<feBlend mode="normal" in="SourceGraphic" in2="BackgroundImageFix" result="shape"/>
<feGaussianBlur stdDeviation="2.03592" result="effect1_foregroundBlur_405_2"/>
</filter>
<filter id="filter5_f_405_2" x="71.9657" y="66.2581" width="429.805" height="409.181" filterUnits="userSpaceOnUse" color-interpolation-filters="sRGB">
<feFlood flood-opacity="0" result="BackgroundImageFix"/>
<feBlend mode="normal" in="SourceGraphic" in2="BackgroundImageFix" result="shape"/>
<feGaussianBlur stdDeviation="6.92704" result="effect1_foregroundBlur_405_2"/>
</filter>
<filter id="filter6_f_405_2" x="79.1645" y="73.4294" width="415.385" height="394.823" filterUnits="userSpaceOnUse" color-interpolation-filters="sRGB">
<feFlood flood-opacity="0" result="BackgroundImageFix"/>
<feBlend mode="normal" in="SourceGraphic" in2="BackgroundImageFix" result="shape"/>
<feGaussianBlur stdDeviation="3.6548" result="effect1_foregroundBlur_405_2"/>
</filter>
<filter id="filter7_f_405_2" x="54.0164" y="49.2099" width="465.707" height="443.273" filterUnits="userSpaceOnUse" color-interpolation-filters="sRGB">
<feFlood flood-opacity="0" result="BackgroundImageFix"/>
<feBlend mode="normal" in="SourceGraphic" in2="BackgroundImageFix" result="shape"/>
<feGaussianBlur stdDeviation="7.09118" result="effect1_foregroundBlur_405_2"/>
</filter>
<filter id="filter8_f_405_2" x="140.741" y="60.6828" width="366.964" height="220.209" filterUnits="userSpaceOnUse" color-interpolation-filters="sRGB">
<feFlood flood-opacity="0" result="BackgroundImageFix"/>
<feBlend mode="normal" in="SourceGraphic" in2="BackgroundImageFix" result="shape"/>
<feGaussianBlur stdDeviation="7.17412" result="effect1_foregroundBlur_405_2"/>
</filter>
<filter id="filter9_f_405_2" x="-5.81656" y="72.9942" width="178.683" height="285.84" filterUnits="userSpaceOnUse" color-interpolation-filters="sRGB">
<feFlood flood-opacity="0" result="BackgroundImageFix"/>
<feBlend mode="normal" in="SourceGraphic" in2="BackgroundImageFix" result="shape"/>
<feGaussianBlur stdDeviation="3.95442" result="effect1_foregroundBlur_405_2"/>
</filter>
<filter id="filter10_f_405_2" x="378.386" y="207.655" width="195.494" height="281.965" filterUnits="userSpaceOnUse" color-interpolation-filters="sRGB">
<feFlood flood-opacity="0" result="BackgroundImageFix"/>
<feBlend mode="normal" in="SourceGraphic" in2="BackgroundImageFix" result="shape"/>
<feGaussianBlur stdDeviation="3.95442" result="effect1_foregroundBlur_405_2"/>
</filter>
<linearGradient id="paint0_linear_405_2" x1="410.817" y1="76.271" x2="221.027" y2="608.754" gradientUnits="userSpaceOnUse">
<stop stop-color="#BFBFBF"/>
<stop offset="1" stop-color="#BFBFBF" stop-opacity="0"/>
</linearGradient>
<linearGradient id="paint1_linear_405_2" x1="539.433" y1="6.47102" x2="203.814" y2="577.034" gradientUnits="userSpaceOnUse">
<stop stop-color="#ABABAB"/>
<stop offset="1" stop-color="#ABABAB" stop-opacity="0"/>
</linearGradient>
<radialGradient id="paint2_radial_405_2" cx="0" cy="0" r="1" gradientUnits="userSpaceOnUse" gradientTransform="translate(233.638 378.505) rotate(19.6173) scale(388.253 340.66)">
<stop stop-color="white"/>
<stop offset="1" stop-color="#FDFDFD" stop-opacity="0"/>
</radialGradient>
<linearGradient id="paint3_linear_405_2" x1="317.555" y1="78.864" x2="252.052" y2="460.064" gradientUnits="userSpaceOnUse">
<stop stop-opacity="0.020231"/>
<stop offset="1" stop-color="white"/>
</linearGradient>
<linearGradient id="paint4_linear_405_2" x1="403.557" y1="39.849" x2="61.4361" y2="660.664" gradientUnits="userSpaceOnUse">
<stop stop-opacity="0.020231"/>
<stop offset="1" stop-color="#7C7C7C" stop-opacity="0.42775"/>
</linearGradient>
<linearGradient id="paint5_linear_405_2" x1="217.696" y1="487.309" x2="411.542" y2="3.38405" gradientUnits="userSpaceOnUse">
<stop stop-color="white"/>
<stop offset="1" stop-color="#ECECEC" stop-opacity="0"/>
</linearGradient>
<linearGradient id="paint6_linear_405_2" x1="383.393" y1="37.095" x2="330.337" y2="185.953" gradientUnits="userSpaceOnUse">
<stop/>
<stop offset="1" stop-opacity="0"/>
</linearGradient>
<radialGradient id="paint7_radial_405_2" cx="0" cy="0" r="1" gradientUnits="userSpaceOnUse" gradientTransform="translate(121.994 411.27) rotate(41.3436) scale(64.2234 42.1611)">
<stop stop-color="white"/>
<stop offset="1" stop-color="white" stop-opacity="0"/>
</radialGradient>
<radialGradient id="paint8_radial_405_2" cx="0" cy="0" r="1" gradientUnits="userSpaceOnUse" gradientTransform="translate(122.01 411.278) rotate(41.3436) scale(32.0828 21.061)">
<stop stop-color="white"/>
<stop offset="1" stop-color="white" stop-opacity="0"/>
</radialGradient>
<radialGradient id="paint9_radial_405_2" cx="0" cy="0" r="1" gradientUnits="userSpaceOnUse" gradientTransform="translate(65.3939 198.653) rotate(-70.656) scale(151.158 109.032)">
<stop stop-color="white"/>
<stop offset="1" stop-color="#ECECEC" stop-opacity="0"/>
</radialGradient>
<radialGradient id="paint10_radial_405_2" cx="0" cy="0" r="1" gradientUnits="userSpaceOnUse" gradientTransform="translate(503.38 354.722) rotate(-66.0902) scale(151.582 108.727)">
<stop stop-color="white"/>
<stop offset="1" stop-color="#ECECEC" stop-opacity="0"/>
</radialGradient>
<clipPath id="clip0_405_2">
<rect width="573.03" height="557.91" fill="white"/>
</clipPath>
</defs>
</svg>
