<svg width="734" height="770" viewBox="0 0 734 770" fill="none" xmlns="http://www.w3.org/2000/svg">
<g opacity="0.054" filter="url(#filter0_f_210_3309)">
<path d="M259.804 681.407C396.945 730.288 552.317 658.457 606.836 520.968C661.355 383.48 594.377 232.397 457.236 183.516C320.094 134.635 164.723 206.465 110.203 343.954C55.684 481.443 122.662 632.526 259.804 681.407Z" stroke="black" stroke-width="7.49315"/>
</g>
<g filter="url(#filter1_f_210_3309)">
<path d="M257.326 681.721C392.448 729.565 545.533 659.258 599.249 524.687C652.966 390.116 586.974 242.239 451.851 194.395C316.728 146.55 163.644 216.857 109.927 351.428C56.2105 486 122.203 633.877 257.326 681.721Z" stroke="black" stroke-opacity="0.99422" stroke-width="15.0003"/>
</g>
<g filter="url(#filter2_f_210_3309)">
<path d="M267.424 665.164C411.924 716.668 573.103 647.361 627.427 510.364C681.751 373.367 608.649 220.556 464.149 169.053C319.649 117.549 158.47 186.856 104.146 323.853C49.822 460.85 122.924 613.661 267.424 665.164Z" fill="white"/>
</g>
<path d="M266.71 670.897C414.009 723.4 578.312 652.752 633.69 513.1C689.068 373.448 614.551 217.676 467.251 165.174C319.952 112.671 155.649 183.319 100.271 322.971C44.8929 462.622 119.41 618.394 266.71 670.897Z" fill="#E7E7E7" stroke="#B3B3B3" stroke-width="3"/>
<g filter="url(#filter3_f_210_3309)">
<path d="M290.844 610.066C402.705 649.936 527.477 596.284 569.53 490.232C611.584 384.179 554.994 265.885 443.133 226.015C331.273 186.145 206.501 239.797 164.447 345.849C122.394 451.902 178.984 570.196 290.844 610.066Z" fill="url(#paint0_linear_210_3309)"/>
</g>
<g filter="url(#filter4_f_210_3309)">
<path d="M299.663 587.826C398.568 623.079 508.89 575.641 546.073 481.87C583.256 388.1 533.22 283.507 434.314 248.254C335.409 213.002 225.087 260.44 187.904 354.21C150.721 447.98 200.757 552.574 299.663 587.826Z" fill="url(#paint1_linear_210_3309)"/>
</g>
<g filter="url(#filter5_f_210_3309)">
<path d="M303.164 578.999C394.411 611.522 496.191 567.757 530.495 481.247C564.799 394.737 518.637 298.241 427.39 265.719C336.142 233.196 234.362 276.961 200.058 363.471C165.754 449.981 211.916 546.476 303.164 578.999Z" fill="url(#paint2_radial_210_3309)"/>
</g>
<g filter="url(#filter6_f_210_3309)">
<path d="M267.611 668.649C414.109 720.865 577.516 650.6 632.591 511.708C687.666 372.816 613.553 217.894 467.055 165.678C320.557 113.463 157.15 183.728 102.075 322.62C47.0003 461.511 121.113 616.434 267.611 668.649Z" stroke="#E6E6E6" stroke-width="1.86857"/>
</g>
<g filter="url(#filter7_f_210_3309)">
<path d="M405.406 232.459C297.807 212.527 193.538 279.066 172.514 381.078C151.49 483.09 221.672 581.945 329.271 601.878C436.87 621.81 541.139 555.272 562.163 453.26C583.187 351.247 513.004 252.392 405.406 232.459Z" stroke="url(#paint3_linear_210_3309)" stroke-width="5"/>
</g>
<g filter="url(#filter8_f_210_3309)">
<path d="M308.266 596.17C412.544 627.095 523.521 572.02 556.14 473.156C588.758 374.292 530.667 269.077 426.388 238.152C322.11 207.227 211.133 262.302 178.514 361.166C145.896 460.03 203.987 565.245 308.266 596.17Z" stroke="url(#paint4_linear_210_3309)" stroke-width="4.98301"/>
</g>
<g opacity="0.047" filter="url(#filter9_f_210_3309)">
<path d="M258.891 594.174C155.778 537.389 120.744 412.106 180.639 314.348C240.534 216.589 372.677 183.374 475.789 240.159C578.902 296.944 613.936 422.227 554.041 519.985C494.146 617.744 362.003 650.959 258.891 594.174Z" stroke="url(#paint5_linear_210_3309)" stroke-width="5.43838"/>
</g>
<g opacity="0.365" filter="url(#filter10_f_210_3309)">
<path d="M235.559 264.169C240.77 266.026 326.861 183.921 455.348 242.409C583.83 300.891 573.635 412.863 573.635 412.863C573.635 412.863 552.827 291.66 442.146 253.207C308.826 206.898 258.044 263.719 235.561 264.163L235.559 264.169Z" fill="url(#paint6_linear_210_3309)"/>
</g>
<path d="M172.945 587.768C199.576 611.2 234.387 616.686 250.698 600.022C267.01 583.359 258.645 550.856 232.015 527.425C205.385 503.994 170.574 498.507 154.262 515.171C137.95 531.834 146.315 564.337 172.945 587.768Z" fill="url(#paint7_radial_210_3309)"/>
<path d="M187.726 572.669C201.029 584.373 218.419 587.114 226.567 578.79C234.715 570.466 230.536 554.229 217.234 542.524C203.931 530.82 186.541 528.079 178.393 536.403C170.245 544.727 174.423 560.964 187.726 572.669Z" fill="url(#paint8_radial_210_3309)"/>
<g filter="url(#filter11_f_210_3309)">
<path d="M194.152 228.31C201.884 231.006 239.887 235.342 245.428 242.882C220.421 250.511 183.262 300.864 162.236 365.234C142.439 425.841 168.039 492.97 161.005 496.982C152.26 499.542 115.082 482.66 107.35 479.965C63.2205 460.592 89.4267 372.545 99.529 339.648C111.303 307.074 156.393 216.321 194.154 228.306L194.152 228.31Z" fill="url(#paint9_radial_210_3309)"/>
</g>
<g filter="url(#filter12_f_210_3309)">
<path d="M628.586 383.113C620.897 380.312 589.293 359.839 579.884 362.05C593.398 383.409 586.364 444.499 557.455 506.06C530.235 564.022 464.331 598.536 466.834 605.948C471.635 613.336 511.335 623.856 519.025 626.657C565.686 639.644 607.151 557.035 622.41 525.976C636.186 494.116 665.324 397.676 628.587 383.109L628.586 383.113Z" fill="url(#paint10_radial_210_3309)"/>
</g>
<defs>
<filter id="filter0_f_210_3309" x="38.2275" y="115.259" width="640.584" height="634.404" filterUnits="userSpaceOnUse" color-interpolation-filters="sRGB">
<feFlood flood-opacity="0" result="BackgroundImageFix"/>
<feBlend mode="normal" in="SourceGraphic" in2="BackgroundImageFix" result="shape"/>
<feGaussianBlur stdDeviation="24.6067" result="effect1_foregroundBlur_210_3309"/>
</filter>
<filter id="filter1_f_210_3309" x="44.0215" y="132.361" width="621.134" height="611.393" filterUnits="userSpaceOnUse" color-interpolation-filters="sRGB">
<feFlood flood-opacity="0" result="BackgroundImageFix"/>
<feBlend mode="normal" in="SourceGraphic" in2="BackgroundImageFix" result="shape"/>
<feGaussianBlur stdDeviation="19.8075" result="effect1_foregroundBlur_210_3309"/>
</filter>
<filter id="filter2_f_210_3309" x="79.8802" y="145.719" width="571.812" height="542.778" filterUnits="userSpaceOnUse" color-interpolation-filters="sRGB">
<feFlood flood-opacity="0" result="BackgroundImageFix"/>
<feBlend mode="normal" in="SourceGraphic" in2="BackgroundImageFix" result="shape"/>
<feGaussianBlur stdDeviation="3.15572" result="effect1_foregroundBlur_210_3309"/>
</filter>
<filter id="filter3_f_210_3309" x="144.33" y="206.62" width="445.317" height="422.841" filterUnits="userSpaceOnUse" color-interpolation-filters="sRGB">
<feFlood flood-opacity="0" result="BackgroundImageFix"/>
<feBlend mode="normal" in="SourceGraphic" in2="BackgroundImageFix" result="shape"/>
<feGaussianBlur stdDeviation="3.10905" result="effect1_foregroundBlur_210_3309"/>
</filter>
<filter id="filter4_f_210_3309" x="169.397" y="230.385" width="395.183" height="375.31" filterUnits="userSpaceOnUse" color-interpolation-filters="sRGB">
<feFlood flood-opacity="0" result="BackgroundImageFix"/>
<feBlend mode="normal" in="SourceGraphic" in2="BackgroundImageFix" result="shape"/>
<feGaussianBlur stdDeviation="3.10905" result="effect1_foregroundBlur_210_3309"/>
</filter>
<filter id="filter5_f_210_3309" x="182.333" y="248.582" width="365.887" height="347.553" filterUnits="userSpaceOnUse" color-interpolation-filters="sRGB">
<feFlood flood-opacity="0" result="BackgroundImageFix"/>
<feBlend mode="normal" in="SourceGraphic" in2="BackgroundImageFix" result="shape"/>
<feGaussianBlur stdDeviation="3.19362" result="effect1_foregroundBlur_210_3309"/>
</filter>
<filter id="filter6_f_210_3309" x="78.8544" y="143.427" width="576.957" height="547.474" filterUnits="userSpaceOnUse" color-interpolation-filters="sRGB">
<feFlood flood-opacity="0" result="BackgroundImageFix"/>
<feBlend mode="normal" in="SourceGraphic" in2="BackgroundImageFix" result="shape"/>
<feGaussianBlur stdDeviation="2.03592" result="effect1_foregroundBlur_210_3309"/>
</filter>
<filter id="filter7_f_210_3309" x="152.426" y="212.588" width="429.824" height="409.162" filterUnits="userSpaceOnUse" color-interpolation-filters="sRGB">
<feFlood flood-opacity="0" result="BackgroundImageFix"/>
<feBlend mode="normal" in="SourceGraphic" in2="BackgroundImageFix" result="shape"/>
<feGaussianBlur stdDeviation="6.92704" result="effect1_foregroundBlur_210_3309"/>
</filter>
<filter id="filter8_f_210_3309" x="159.614" y="219.771" width="415.427" height="394.78" filterUnits="userSpaceOnUse" color-interpolation-filters="sRGB">
<feFlood flood-opacity="0" result="BackgroundImageFix"/>
<feBlend mode="normal" in="SourceGraphic" in2="BackgroundImageFix" result="shape"/>
<feGaussianBlur stdDeviation="3.6548" result="effect1_foregroundBlur_210_3309"/>
</filter>
<filter id="filter9_f_210_3309" x="134.433" y="195.585" width="465.815" height="443.163" filterUnits="userSpaceOnUse" color-interpolation-filters="sRGB">
<feFlood flood-opacity="0" result="BackgroundImageFix"/>
<feBlend mode="normal" in="SourceGraphic" in2="BackgroundImageFix" result="shape"/>
<feGaussianBlur stdDeviation="7.09118" result="effect1_foregroundBlur_210_3309"/>
</filter>
<filter id="filter10_f_210_3309" x="221.21" y="207.003" width="366.964" height="220.208" filterUnits="userSpaceOnUse" color-interpolation-filters="sRGB">
<feFlood flood-opacity="0" result="BackgroundImageFix"/>
<feBlend mode="normal" in="SourceGraphic" in2="BackgroundImageFix" result="shape"/>
<feGaussianBlur stdDeviation="7.17412" result="effect1_foregroundBlur_210_3309"/>
</filter>
<filter id="filter11_f_210_3309" x="74.6537" y="219.315" width="178.684" height="285.84" filterUnits="userSpaceOnUse" color-interpolation-filters="sRGB">
<feFlood flood-opacity="0" result="BackgroundImageFix"/>
<feBlend mode="normal" in="SourceGraphic" in2="BackgroundImageFix" result="shape"/>
<feGaussianBlur stdDeviation="3.95442" result="effect1_foregroundBlur_210_3309"/>
</filter>
<filter id="filter12_f_210_3309" x="458.856" y="353.975" width="195.495" height="281.964" filterUnits="userSpaceOnUse" color-interpolation-filters="sRGB">
<feFlood flood-opacity="0" result="BackgroundImageFix"/>
<feBlend mode="normal" in="SourceGraphic" in2="BackgroundImageFix" result="shape"/>
<feGaussianBlur stdDeviation="3.95442" result="effect1_foregroundBlur_210_3309"/>
</filter>
<linearGradient id="paint0_linear_210_3309" x1="491.287" y1="222.591" x2="301.497" y2="755.074" gradientUnits="userSpaceOnUse">
<stop stop-color="#BFBFBF"/>
<stop offset="1" stop-color="#BFBFBF" stop-opacity="0"/>
</linearGradient>
<linearGradient id="paint1_linear_210_3309" x1="619.903" y1="152.791" x2="284.284" y2="723.354" gradientUnits="userSpaceOnUse">
<stop stop-color="#ABABAB"/>
<stop offset="1" stop-color="#ABABAB" stop-opacity="0"/>
</linearGradient>
<radialGradient id="paint2_radial_210_3309" cx="0" cy="0" r="1" gradientUnits="userSpaceOnUse" gradientTransform="translate(314.108 524.825) rotate(19.6173) scale(388.253 340.66)">
<stop stop-color="white"/>
<stop offset="1" stop-color="#FDFDFD" stop-opacity="0"/>
</radialGradient>
<linearGradient id="paint3_linear_210_3309" x1="398.025" y1="225.184" x2="332.522" y2="606.384" gradientUnits="userSpaceOnUse">
<stop stop-opacity="0.020231"/>
<stop offset="1" stop-color="white"/>
</linearGradient>
<linearGradient id="paint4_linear_210_3309" x1="484.027" y1="186.169" x2="141.906" y2="806.984" gradientUnits="userSpaceOnUse">
<stop stop-opacity="0.020231"/>
<stop offset="1" stop-color="#7C7C7C" stop-opacity="0.42775"/>
</linearGradient>
<linearGradient id="paint5_linear_210_3309" x1="298.166" y1="633.629" x2="492.012" y2="149.704" gradientUnits="userSpaceOnUse">
<stop stop-color="white"/>
<stop offset="1" stop-color="#ECECEC" stop-opacity="0"/>
</linearGradient>
<linearGradient id="paint6_linear_210_3309" x1="463.863" y1="183.415" x2="410.807" y2="332.273" gradientUnits="userSpaceOnUse">
<stop/>
<stop offset="1" stop-opacity="0"/>
</linearGradient>
<radialGradient id="paint7_radial_210_3309" cx="0" cy="0" r="1" gradientUnits="userSpaceOnUse" gradientTransform="translate(202.464 557.59) rotate(41.3436) scale(64.2234 42.1611)">
<stop stop-color="white"/>
<stop offset="1" stop-color="white" stop-opacity="0"/>
</radialGradient>
<radialGradient id="paint8_radial_210_3309" cx="0" cy="0" r="1" gradientUnits="userSpaceOnUse" gradientTransform="translate(202.48 557.598) rotate(41.3436) scale(32.0828 21.061)">
<stop stop-color="white"/>
<stop offset="1" stop-color="white" stop-opacity="0"/>
</radialGradient>
<radialGradient id="paint9_radial_210_3309" cx="0" cy="0" r="1" gradientUnits="userSpaceOnUse" gradientTransform="translate(145.864 344.973) rotate(-70.656) scale(151.158 109.032)">
<stop stop-color="white"/>
<stop offset="1" stop-color="#ECECEC" stop-opacity="0"/>
</radialGradient>
<radialGradient id="paint10_radial_210_3309" cx="0" cy="0" r="1" gradientUnits="userSpaceOnUse" gradientTransform="translate(583.85 501.042) rotate(-66.0902) scale(151.582 108.727)">
<stop stop-color="white"/>
<stop offset="1" stop-color="#ECECEC" stop-opacity="0"/>
</radialGradient>
</defs>
</svg>
