<svg width="121" height="119" viewBox="0 0 121 119" fill="none" xmlns="http://www.w3.org/2000/svg">
<path d="M28.282 61.8647C35.942 44.3747 52.522 33.3847 74.852 26.5647C75.452 37.3347 78.972 57.0547 70.842 81.3947" stroke="black" stroke-width="5.9967" stroke-linecap="round" stroke-linejoin="round"/>
<path fill-rule="evenodd" clip-rule="evenodd" d="M35.792 75.7547C35.822 84.8047 28.452 92.1548 19.398 92.1548C10.346 92.1548 3 84.8047 3 75.7547C3 66.7047 10.346 59.3647 19.398 59.3647C28.412 59.3647 35.732 66.6347 35.792 75.6447V75.7547Z" fill="#AA0000" stroke="black" stroke-width="5.9967" stroke-linejoin="round"/>
<path fill-rule="evenodd" clip-rule="evenodd" d="M85.612 99.0448C85.642 108.095 78.272 115.435 69.212 115.435C60.162 115.435 52.822 108.095 52.822 99.0448C52.822 89.9848 60.162 82.6448 69.212 82.6448C78.232 82.6448 85.552 89.9148 85.612 98.9348V99.0448Z" fill="#AA0000" stroke="black" stroke-width="5.9967" stroke-linejoin="round"/>
<path fill-rule="evenodd" clip-rule="evenodd" d="M74.672 26.6647C77.312 24.2747 64.532 8.20472 53.112 4.84472C40.042 0.984716 23.762 3.48469 11.509 9.53469C26.042 24.4847 46.332 31.2747 74.672 26.6647Z" fill="#008000" stroke="black" stroke-width="5.2436" stroke-linecap="round" stroke-linejoin="round"/>
<path fill-rule="evenodd" clip-rule="evenodd" d="M117.022 82.5047C115.182 85.3747 93.422 76.4047 86.172 66.4247C77.872 55.0047 75.642 39.4847 78.592 27.0447C99.652 37.8347 113.422 55.4247 117.022 82.5047Z" fill="#008000" stroke="black" stroke-width="5.9967" stroke-linecap="round" stroke-linejoin="round"/>
</svg>
