<svg width="203" height="164" viewBox="0 0 203 164" fill="none" xmlns="http://www.w3.org/2000/svg">
<g clip-path="url(#clip0_116_699)">
<path fill-rule="evenodd" clip-rule="evenodd" d="M4.15833 101.416L141.004 99.531L135.711 115.365H135.333V116.12H134.955L134.577 116.874L134.199 117.251L133.821 118.005V118.382L133.443 118.759V119.136L132.687 119.89V120.267L132.309 121.021L131.931 121.398V121.775L131.553 122.152L131.175 122.906L130.797 123.283V123.66L130.419 124.414L130.041 124.791L129.663 125.545L129.285 125.922L128.907 126.676L128.529 127.053L128.151 127.43L127.773 128.184L127.395 128.561L127.017 129.315L126.639 129.692L126.261 130.446L124.749 131.954L124.371 132.708L122.859 134.216L122.48 134.97L122.102 135.347L121.346 135.724L120.968 136.478L119.456 137.986L119.078 138.74L118.322 139.117L117.944 139.494L117.188 139.871L116.81 140.625L116.432 141.002L115.676 141.379L115.298 141.756L114.542 142.133L114.164 142.51L113.408 142.887L113.03 143.264L112.274 143.641L111.518 144.395L110.762 144.772L110.384 145.149H110.006L109.25 145.526L108.494 146.28H108.115L106.981 147.411H106.603L106.225 147.788H105.847L105.469 148.165L103.957 148.92H103.579L102.823 149.297L102.067 150.051H101.311L100.933 150.428H100.177L99.4209 150.805H98.6648L98.2868 151.182L99.0429 157.591H98.2868L97.9088 157.968H97.5308L97.1527 158.345H96.3967L96.0187 158.722H95.2626L94.5066 159.099H93.7505L92.9945 159.476H92.2384L91.8604 159.853H91.1043L90.7263 160.23H89.2142L88.4581 160.607H88.0801L87.7021 160.984H85.812L85.0559 161.361H83.9218L83.5438 161.738H81.6537L80.8976 162.115H76.7393L76.3613 162.492H72.581L72.203 162.115H67.6667L67.2887 161.738H64.2645L63.5084 161.361H62.7524L62.3743 160.984H60.4842L60.1062 160.607H58.5941L57.838 160.23H56.3259L55.9479 159.853H55.5699L54.8138 159.476H53.3017L52.9237 159.099H51.7896L51.0336 158.722H50.2775L49.5215 158.345H49.1434L48.3874 157.968H48.0093L47.6313 157.591H46.8753V152.313L29.8641 140.248L29.4861 139.871H29.108L23.8157 134.593L23.0596 133.462L22.3036 133.085L21.9256 132.331L21.5475 131.954L20.7915 131.577V131.2L20.0354 130.823V130.069L19.2794 129.692V129.315L18.5233 128.938L18.1453 128.561L17.7673 127.807L16.6332 126.676L16.2552 125.922L15.8771 125.545L15.4991 124.791L15.1211 124.414V124.037L14.7431 123.283L14.365 122.906L13.987 122.152L13.231 121.398L12.8529 120.644L12.4749 120.267V119.89L12.0969 119.136L11.7188 118.759V118.005L10.9628 117.251V116.497L10.5848 116.12V115.365L9.82872 114.611V113.857L9.45069 113.48V113.103L9.07266 112.726V112.349L8.69464 111.972V111.595L8.31661 111.218V110.464L7.93859 110.087V109.71L7.56056 108.956L7.18253 108.579L6.80451 107.825V107.071L6.42648 106.317V105.94L5.67043 105.186V104.432L5.2924 104.055V103.678L4.91438 103.301V102.547L4.53635 102.17V101.793H4.15833V101.416Z" fill="#ED1C24"/>
<path fill-rule="evenodd" clip-rule="evenodd" d="M28.73 64.8459H28.352L27.9739 65.223H27.2179L26.4618 65.6H25.7058L24.9497 65.977H24.5717L24.1937 66.354H23.0596L22.3035 67.108H21.5475L21.1695 67.485H20.7914L20.0354 67.862L19.6574 68.2391H19.2793L18.5233 68.6161L18.1453 68.9931L17.3892 69.3701L17.0112 69.7471H16.2551L15.8771 70.1241L15.121 70.5011L14.743 70.8781L13.2309 71.6322L12.8529 72.3862L12.4749 72.7632L11.7188 73.1402L11.3408 73.5172L10.5847 73.8942L10.2067 74.6482L9.45066 75.0253L7.93855 76.5333L7.56053 77.2873L7.1825 77.6643L6.80448 78.4184L6.04842 78.7954L5.29237 80.3034L4.91435 80.6804L3.02421 84.4505V85.2046L2.26816 86.7126V87.8437L1.89014 88.5977V92.3678L2.26816 93.1218V94.2528L3.02421 95.7609V96.5149L3.78027 97.2689V98.023L4.53632 98.777L5.6704 101.039L7.1825 102.547L7.56053 103.301L8.31658 103.678L8.69461 104.432L10.9628 106.694L11.7188 107.071L13.2309 108.579L13.987 108.956L16.2551 111.218L17.7672 111.972L18.5233 112.726L19.6574 113.103L20.7914 114.234L21.5475 114.611L22.6816 115.365L23.4376 115.743L23.8156 116.12L27.5959 118.005L27.9739 118.382L28.73 118.759L29.108 119.136H29.8641L30.2421 119.513L30.9981 119.89H31.3762L31.7542 120.267H32.1322L32.8883 120.644L33.2663 121.021H34.0224L34.4004 121.398H35.1564L35.5345 121.775H36.6685L37.0466 122.152H37.8026L38.5587 122.529H38.9367L39.6927 122.906H40.0708L40.8268 123.283H42.717L44.2291 124.037H46.1192L46.8752 124.414H48.0093L49.1434 124.791H50.2775L51.0335 125.168H52.1676L53.3017 125.545H54.4358L55.5698 125.922H58.216L59.3501 126.299H61.9963L63.1304 126.676H69.9348L71.4469 127.053H75.9832L77.4954 126.676H83.5438L85.0559 126.299H86.568L88.0801 125.922H89.9702L91.4823 125.545H92.9944L94.5065 125.168L96.3967 124.791L99.4209 124.037L101.311 123.66L105.847 122.529L106.981 122.152L110.006 121.398L111.14 121.021L112.652 120.644L120.59 118.005L121.346 117.628L122.48 117.251L123.237 116.874L123.993 116.12L124.749 115.743L125.883 115.365L127.395 114.611L127.773 114.234L130.041 113.103L130.419 112.726L131.175 112.349L131.553 111.972L132.309 111.595L134.199 109.71H134.577L135.333 108.956L136.089 108.579L136.467 107.825L136.845 107.448L137.223 106.694L138.358 105.563V105.186H138.736V104.432L139.114 104.055V103.678L139.492 102.924V102.547L139.87 101.793V101.039L140.248 100.285V99.154L140.626 98.777V96.8919L141.004 96.5149V91.9908L140.626 91.2368V89.3517L140.248 88.9747V87.8437L139.87 87.0896V86.7126L139.492 85.9586V85.5816L139.114 84.8276L138.736 84.4505L138.358 83.6965L137.98 83.3195V82.5655L136.467 81.0574L136.089 80.3034L135.711 79.9264L135.333 79.1724L134.577 78.7954L134.199 78.4184V78.0414H133.821V77.6643L133.443 76.9103L132.687 76.5333L132.309 75.7793L130.797 74.2712L130.041 73.8942L129.663 73.5172L128.907 73.1402L128.529 72.7632L127.773 72.3862L127.395 72.0092L125.883 71.2551H125.505L124.749 70.8781H124.371L123.993 70.5011H123.237L122.858 70.1241H121.724L121.346 69.7471H119.834L119.078 69.3701H118.322L28.73 64.8459Z" fill="#F48072"/>
<path fill-rule="evenodd" clip-rule="evenodd" d="M7.9386 104.432L8.31662 98.4L10.9628 93.4989L10.5848 87.4667L11.7189 82.1885L20.4135 76.1563L26.4619 74.6483L28.352 69.3701V68.9931L28.73 68.6161V67.4851L29.1081 67.1081V66.7311L29.4861 65.977V65.223L29.8641 64.846V63.715H30.2421V61.4529V61.0759V58.4368H30.6202L40.0708 55.7977L50.2775 55.4207L55.5699 50.8966L59.7282 47.5035L65.0205 47.1265L67.6667 47.8805L72.5811 49.3885L79.3855 46.3724L87.7021 47.5035L91.4824 52.4046L93.7505 56.5517L104.713 61.0759L116.81 65.6L120.59 68.9931L123.615 73.8943L121.724 79.9265L128.151 81.8115L132.309 91.6138V100.285L137.224 104.432L136.467 105.94L135.711 106.694L135.333 107.448L134.577 108.202H134.199L130.419 111.972L128.907 112.726L128.529 113.103L126.261 114.235L125.505 114.989L124.371 115.366L122.859 116.12L121.724 116.497L120.968 116.874L119.834 117.251L119.078 118.005L117.944 118.382L116.432 118.759L111.896 120.267L110.384 120.644L108.872 121.398L107.359 121.775L106.225 122.152L104.335 122.529L101.311 123.283L99.4209 123.66L97.9088 124.037L96.0187 124.414H94.1285L88.4582 125.545H86.568L84.2999 125.922H82.4097L80.5196 126.299H78.6295L76.7393 126.676H66.1546L64.6425 126.299H61.2403L59.7282 125.922H58.2161L56.3259 125.545H55.1919L53.6798 125.168H52.1676L49.1434 124.414H48.0094L46.8753 124.037L45.3632 123.66L43.095 122.906L41.5829 122.529L39.3148 121.775H38.5587L35.1565 120.644L34.4004 120.267L33.2663 119.89L31.7542 119.136L30.6202 118.759L27.596 117.251L27.2179 116.874L25.7058 116.12H25.3278L24.5717 115.743L24.1937 115.366H23.8157L23.0596 114.612L22.3036 114.235H21.9256L21.1695 113.48H20.7915L7.9386 104.432Z" fill="white"/>
<path fill-rule="evenodd" clip-rule="evenodd" d="M30.2421 67.1081H29.486L29.108 67.4851H28.352L27.5959 67.8621H26.8399L26.4618 68.2391H25.3277L24.9497 68.6161H24.5717L23.8156 68.9931H23.4376L22.6816 69.3701H22.3035L21.5475 69.7471L21.1695 70.1242H20.4134L20.0354 70.5012L19.2793 70.8782H18.5233L18.1453 71.2552L17.3892 71.6322L17.0112 72.0092L16.2551 72.3862L15.4991 72.7632L15.121 73.1403L13.6089 73.8943L13.2309 74.2713L12.4749 74.6483L12.0968 75.4023L11.3408 75.7793L10.9628 76.1563L10.2067 76.5334L9.82868 77.2874L9.07263 77.6644L8.6946 78.4184L8.31657 78.7954L7.93855 79.5494L6.80447 80.6805L6.04842 82.1885L5.67039 82.5655L4.91434 84.0736V84.8276L4.53631 85.5816V86.3357L4.15829 87.0897V88.2207L3.78026 88.9747V93.1219L4.15829 94.2529V95.0069L4.53631 95.7609L4.91434 96.892L6.04842 99.154L6.80447 100.285L7.1825 101.039L7.93855 101.793L8.31657 102.547L10.9628 105.186L11.7188 105.563L13.2309 107.071L15.4991 108.579L16.2551 109.333L19.6574 111.595L20.7914 111.972L22.3035 112.726L23.4376 113.48L24.5717 113.857L25.7058 114.612L27.2179 115.366L28.73 115.743L29.8641 116.497L31.3762 116.874L32.5102 117.251L34.0223 118.005L37.0466 118.759L38.5587 119.513L49.1434 122.152L51.0335 122.529L52.5456 122.906H54.0577L55.5698 123.283H57.0819L58.9721 123.66L60.4842 124.037H63.8864L65.3985 124.414H68.4227L70.3129 124.791H79.7635L81.2756 124.414H83.9218L85.4339 124.037H88.0801L89.5922 123.66H91.1043L92.2384 123.283H93.7505L94.8845 122.906L96.3966 122.529H97.5307L98.6648 122.152L100.177 121.775H101.311L104.713 120.644L106.225 120.267H107.359L111.896 118.759L112.652 118.382L116.054 117.251L116.81 116.874L117.944 116.497L118.7 116.12L119.834 115.743L120.59 115.366L121.724 114.612L124.749 113.103L125.883 112.726L127.017 111.595L128.529 110.841L129.285 110.087L130.797 109.333L131.175 108.956L131.931 108.579L132.309 107.825L132.687 107.448L133.443 107.071L133.821 106.317L134.199 105.94L134.955 105.563L135.711 104.809L136.089 104.055L136.467 103.678V103.301L137.601 102.17V101.793L137.98 101.039L138.358 100.662V99.5311H138.736V98.023L139.114 97.646V96.892L139.492 96.138V91.9908L139.114 91.2368V89.3517L138.736 88.9747V88.2207L138.358 87.4667V87.0897L137.98 86.7127V85.9586L137.601 85.5816V85.2046L136.845 84.8276V84.4506L139.492 82.1885H139.87V82.5655L140.248 82.9426L141.004 84.4506V84.8276L141.382 85.2046V85.5816L141.76 86.3357V86.7127L142.138 87.0897V87.8437L142.516 88.2207V89.3517L142.894 90.1058V93.4989L143.272 93.8759L142.894 94.2529V98.023L142.516 98.777V99.5311L142.138 99.9081V101.039L141.382 102.547L141.004 102.924L140.248 104.432L139.87 104.809L138.358 107.825L137.601 108.202L136.845 108.956L136.467 109.71L135.711 110.087L133.065 112.726H132.687L131.931 113.48L131.175 113.857L130.797 114.235H130.419L130.041 114.989H129.285L128.529 115.743L127.773 116.12L127.395 116.497L126.639 116.874H126.261L125.883 117.251L125.127 117.628H124.749L124.371 118.005H123.993L123.615 118.382H123.236L122.48 119.136H121.724L121.346 119.513H120.968L120.59 119.89H119.834L119.456 120.267H119.078L118.7 120.644H117.944L117.566 121.021H117.188L116.432 121.398H116.054L115.676 121.775H114.92L114.542 122.152H114.164L113.408 122.529H112.652L112.274 122.906H111.896L111.14 123.283H110.762L110.006 123.66H109.25L108.872 124.037H107.737L106.981 124.414H106.603L105.847 124.791H104.335L103.957 125.168H103.201L102.823 125.545H101.311L100.555 125.922H99.4209L98.6648 126.299H97.9088L97.1527 126.676H95.2626L94.5065 127.053H93.7505L92.9944 127.43H90.7263L89.9702 127.807H86.946L85.4339 128.184H80.8976L79.3855 128.561H68.0447L66.5326 128.184H62.3743L60.8622 127.807H59.7281L58.216 127.43H55.5698L54.4358 127.053H52.9236L51.7896 126.676H50.6555L49.1434 126.299L46.8752 125.545H45.3631L43.095 124.791L41.5829 124.414L40.4488 124.037H39.3147L38.1806 123.283H37.0466L32.5102 121.775L31.7542 121.021L28.352 119.89L27.5959 119.513L25.3277 118.759L24.5717 118.382L23.4376 117.628L22.6816 117.251L21.5475 116.874L20.0354 116.12L18.9013 115.743L18.1453 114.989L17.3892 114.612L16.2551 113.857L13.987 112.726L13.2309 111.972L12.4749 111.595L12.0968 111.218L11.3408 110.841L10.9628 110.087L10.5847 109.71L9.82868 109.333L7.93855 107.448L7.56052 106.694L4.91434 104.055L4.53631 103.301L3.78026 102.547L2.26816 99.5311L1.89013 99.154L1.13408 97.646V96.892L0.756052 96.138L0.378026 95.0069V93.1219L0 92.3678V88.9747L0.378026 88.2207V86.7127L0.756052 85.9586V85.2046L1.13408 84.4506V83.6966L2.26816 81.4345L3.02421 81.0575V80.3035L3.78026 79.5494L4.91434 77.2874L5.67039 76.5334L6.42644 76.1563L6.80447 75.4023L9.45065 72.7632L10.5847 72.3862L12.0968 70.8782L12.8529 70.5012L13.987 69.7471L14.743 69.3701L15.8771 68.6161L16.6331 68.2391L17.7672 67.8621L18.9013 67.1081L26.8399 64.469L28.352 64.092L29.486 63.715H30.9981L30.2421 67.1081Z" fill="#010101"/>
<path fill-rule="evenodd" clip-rule="evenodd" d="M91.1042 104.432L91.8603 105.563L92.6164 107.448L94.5065 107.825L148.186 78.7954L201.11 48.2575V42.9793L196.952 41.8483L91.1042 104.432Z" fill="#FFCB05"/>
<path fill-rule="evenodd" clip-rule="evenodd" d="M121.346 72.3862L121.724 72.7632H122.102L122.48 73.1402H123.237L123.615 73.5172H123.993L124.371 73.8942H124.749L125.127 74.2713L125.883 74.6483H126.261L127.017 75.4023H127.395L128.151 75.7793L128.529 76.5333H129.285L129.663 76.9103L130.419 77.2874L130.797 78.0414L131.553 78.4184L131.931 78.7954L132.687 79.1724L133.065 79.9264L136.089 78.4184V78.0414L135.333 77.2874L134.577 76.9103L132.309 74.6483L131.553 74.2713L130.797 73.5172L129.285 72.7632L128.907 72.3862L127.395 71.6322L127.017 71.2552H126.639L126.261 70.8782H125.883L125.505 70.5011H125.127L124.749 70.1241H124.371L123.993 69.7471H123.615L123.237 69.3701H122.48L122.102 68.9931H121.346L120.968 68.6161L121.346 72.3862Z" fill="#010101"/>
<path fill-rule="evenodd" clip-rule="evenodd" d="M74.4712 93.1218L139.492 1.50806L144.784 3.0161L145.162 6.78622L79.3855 96.1379L78.6295 95.7609L76.7393 94.6299L74.4712 93.1218Z" fill="#FFCB05"/>
<path fill-rule="evenodd" clip-rule="evenodd" d="M12.0969 91.6138L11.7189 91.2368V90.8598L11.3408 90.1058V87.8437L11.7189 87.0897V86.3356L12.0969 85.9586V85.5816L12.4749 85.2046V84.8276L13.231 84.0736L13.609 83.3195L14.365 82.9425L15.1211 82.1885L15.8771 81.8115L16.2552 81.0575L16.6332 80.6805L18.1453 79.9264L18.5233 79.5494L19.2794 79.1724L20.0354 78.7954H20.4135L20.7915 78.4184L22.3036 77.6644H22.6816L23.4377 77.2874H23.8157L24.5717 76.9104H24.9498L25.3278 76.5333H25.7058L26.4619 76.1563H27.2179V75.7793H27.974L28.352 75.4023H29.1081V74.6483L28.73 74.2713V72.3862L29.1081 71.6322V70.5012L29.8641 69.7471L30.2421 68.9931L30.6202 68.6161L30.9982 67.8621V67.4851L31.3762 66.731V62.9609L31.7542 62.5839V61.4529L32.5103 60.6989L32.8883 59.9448V59.5678L33.2663 59.1908H33.6444L34.0224 58.8138L34.7785 58.4368H35.5345L35.9125 58.0598H45.3632L46.1192 57.6828H47.2533L48.0094 57.3058H49.1434L49.8995 56.9287H50.6555L51.4116 56.5517H52.1676V55.7977L52.5457 55.4207V54.6667L52.9237 53.9127V53.5356L53.3017 53.1586V52.7816H52.5457L51.7896 53.1586H51.4116L50.6555 53.5356H49.5215L49.1434 53.9127H47.6313L47.2533 54.2897H44.6071L44.2291 54.6667H34.7785L33.2663 55.4207H32.5103L32.1323 55.7977L31.3762 56.1747L29.4861 58.0598V58.4368L29.1081 58.8138V59.1908L28.73 59.5678V60.6989L28.352 61.0759V65.223L27.974 65.977V66.354L27.596 66.731V67.1081L27.2179 67.4851V67.8621L26.4619 68.6161V69.3701L26.0839 69.7471V70.1241L25.7058 70.5012V73.1402H24.5717L24.1937 73.5172H23.4377L23.0596 73.8943H22.6816L22.3036 74.2713H21.5475L21.1695 74.6483H20.7915L20.4135 75.0253H19.6574L19.2794 75.4023H18.9014L18.1453 76.1563H17.7673L17.3893 76.5333L16.6332 76.9104L16.2552 77.2874H15.4991L13.987 78.7954H13.609L10.5848 81.8115L10.2068 82.5655L9.82873 82.9425L9.4507 83.6966L9.07268 84.0736L8.69465 84.8276L8.31662 85.2046V85.5816L7.9386 86.3356V90.4828L8.31662 91.2368V91.9908L8.69465 92.7448L9.07268 93.1218V93.4989L9.4507 93.8759V94.2529L12.0969 91.6138Z" fill="#010101"/>
<path fill-rule="evenodd" clip-rule="evenodd" d="M53.6797 59.5678V58.8137L54.0578 58.4367V57.3057L54.8138 55.7977V55.0436L55.1918 54.6666V54.2896L55.5699 53.9126V53.5356L56.3259 52.7816L56.7039 51.6505L57.46 51.2735L58.5941 50.1425H58.9721L59.3501 49.7655H59.7281L60.1062 49.3885H60.8622L61.2402 49.0114H64.6425L65.0205 49.3885H66.1546L66.5326 49.7655H67.2887L68.8008 50.5195L69.1788 50.8965L69.9348 51.2735L70.6909 52.0275L71.0689 51.6505H71.447L71.825 51.2735L72.581 50.8965H72.9591L74.0931 50.5195L74.4712 50.1425L75.2272 49.7655H75.6052L75.9833 49.3885H76.7393L77.1173 49.0114H78.6294L79.3855 48.6344H83.1658L83.9218 49.0114L84.2998 49.3885H85.0559L85.4339 49.7655L86.19 50.1425H86.568L86.946 50.8965H87.324L87.7021 51.6505L88.0801 52.0275L88.8362 52.4046V53.1586L89.2142 53.5356V53.9126L89.9702 54.6666L90.3483 55.4206L90.7263 55.7977L91.4823 56.1747L91.8604 56.5517H92.2384L92.9944 57.3057L93.7505 57.6827H94.1285L94.8846 58.4367H96.0186L96.3967 58.8137H99.4209L99.7989 58.4367H100.177L101.311 55.4206H100.177L99.7989 55.7977H97.9088L97.1527 55.4206L96.7747 55.0436H96.3967L95.6406 54.6666H95.2626L94.8846 54.2896L94.1285 53.9126L93.7505 53.5356L92.9944 53.1586L92.6164 52.7816L91.8604 51.2735L90.3483 49.7655L89.9702 49.0114L89.2142 48.6344L88.8362 47.8804L87.324 47.1264L86.946 46.7494L84.6779 45.6183H83.9218L83.1658 45.2413H79.0075L78.2514 45.6183H76.7393L76.3613 45.9954H75.6052L74.8492 46.3724L74.4712 46.7494H73.7151L72.9591 47.1264H72.581L72.203 47.5034H71.825L71.447 47.8804V48.2574L71.0689 47.8804H70.6909L70.3129 47.5034H69.9348L69.5568 47.1264L68.8008 46.7494H68.0447L67.6667 46.3724H67.2887L66.9106 45.9954H60.4842L59.7281 46.3724H59.3501L58.5941 46.7494H58.216L57.46 47.1264L57.082 47.5034H56.3259L55.9479 47.8804L55.5699 48.6344L52.9237 51.2735L52.5456 52.0275V52.4046L52.1676 52.7816L51.7896 53.5356V53.9126L51.4116 54.2896V54.6666L51.0335 55.4206V56.5517L50.6555 56.9287V59.1908L53.6797 59.5678Z" fill="#010101"/>
<path fill-rule="evenodd" clip-rule="evenodd" d="M103.579 61.0758L104.713 62.2069H105.091L105.847 62.9609H106.225L106.981 63.3379L108.115 64.469H108.871L109.249 64.846H109.628L110.006 65.223H111.14L111.518 65.6H112.652L113.03 65.977H113.786L114.542 66.354H114.92L115.676 66.731H116.054L116.81 67.108L117.188 67.485H117.566L119.834 69.7471V70.8781L120.59 71.6322V72.3862L120.968 73.1402V75.7793L120.59 76.5333V76.9103L119.834 77.6644V78.4184L119.456 78.7954V79.1724L119.078 79.9264V80.3034L119.456 80.6804V81.4345L119.834 81.8115H120.59L121.346 82.1885H125.127L125.883 82.5655V82.9425H126.261L126.639 83.6965L129.663 81.8115H129.285L127.773 80.3034L127.017 79.9264L126.639 79.5494L125.883 79.1724H123.236L122.858 78.7954V78.4184L123.236 78.0414L123.614 77.2873L123.993 76.9103V72.0092L123.614 71.6322V71.2552L123.236 70.5011V69.7471L122.102 67.485L119.834 65.223L119.078 64.846L118.322 64.0919L117.566 63.7149H117.188L116.81 63.3379H115.676L115.298 62.9609H114.164L113.786 62.5839H113.03L112.652 62.2069H111.518L111.14 61.8299H110.762L110.384 61.4529H110.006L109.249 61.0758H108.871L108.493 60.6988L107.737 60.3218L107.359 59.9448V59.5678L106.603 59.1908L106.225 58.4368L103.579 61.0758Z" fill="#010101"/>
<path fill-rule="evenodd" clip-rule="evenodd" d="M129.663 88.2207L130.041 88.5977V88.9747L130.419 89.3517V89.7287L130.797 90.1057V91.2368L131.175 91.9908V97.269L130.797 97.646V101.039V101.416L131.175 101.793V102.547L132.687 103.301L133.065 103.678L133.821 104.055L134.577 104.809L135.333 105.186V105.563L135.711 105.94L136.467 107.448L139.114 106.317V105.563L138.736 104.809V104.432L137.98 103.678V103.301L137.223 102.924L136.845 102.547L136.467 101.793L134.955 101.039L134.199 100.285L133.821 99.531V99.154L134.199 98.4V96.1379L134.577 95.7609V93.4989L134.199 92.7448V90.1057L133.821 89.7287V88.5977L133.443 88.2207V87.8437L132.687 87.0897V86.7126L129.663 88.2207Z" fill="#010101"/>
<path fill-rule="evenodd" clip-rule="evenodd" d="M30.2421 102.547V102.17H30.6201L31.7542 101.039H32.1322L32.5103 100.662H32.8883L33.2663 100.285H34.4004L34.7784 100.662H35.1564L35.9125 101.039H36.2905L38.9367 103.678V104.055L39.3147 104.432V105.186L39.6928 105.563V105.94L42.717 105.186V104.432L42.3389 104.055V103.301L41.9609 102.547L41.5829 102.17V101.416L39.6928 99.531L39.3147 98.777L36.2905 97.2689H32.1322L31.7542 97.6459H30.9982L30.2421 98.4L28.73 99.154L28.352 99.908L27.5959 100.662V101.039L27.2179 101.416L30.2421 102.547Z" fill="#010101"/>
<path fill-rule="evenodd" clip-rule="evenodd" d="M46.1191 80.6805V80.3035L45.7411 79.9265V79.5495L45.3631 78.7954V78.4184L47.2532 76.5334H51.7895L52.1675 76.9104L53.6796 74.2713H53.3016L52.9236 73.8943H52.5456L52.1675 73.5173H51.4115H51.0335L50.2774 73.1403H47.6312L47.2532 73.5173H46.8752L46.1191 73.8943H45.3631L44.607 74.6483L43.851 75.0253L43.0949 75.7793L42.3389 77.2874V80.6805L42.7169 81.4345V81.8115L43.851 82.9426L46.1191 80.6805Z" fill="#010101"/>
<path fill-rule="evenodd" clip-rule="evenodd" d="M79.7635 69.7472L79.3855 69.3702H77.4953L76.7393 68.9931L76.3613 69.3702H75.6052L75.2272 69.7472H74.8492L74.4711 70.1242L74.0931 70.8782L73.337 71.6322V72.7633L72.959 73.1403V73.5173L73.337 73.8943V75.4023L73.7151 75.7794V76.1564V76.5334H70.6909L70.3128 75.7794V73.8943L69.9348 73.1403V72.0092L70.3128 71.2552V70.5012L70.6909 70.1242L71.0689 69.3702L71.4469 68.9931L71.8249 68.2391L72.959 67.1081L74.4711 66.3541H74.8492L75.6052 65.9771H78.6294L79.3855 66.3541H79.7635L81.2756 67.1081H82.0316L79.7635 69.7472Z" fill="#010101"/>
<path fill-rule="evenodd" clip-rule="evenodd" d="M71.8249 114.989L72.203 114.612V114.235H72.581L72.959 113.858H73.337L73.7151 113.481H74.4711L74.8491 113.103H75.6052L75.9832 112.726H79.0074L79.7635 113.103H80.5195L81.2756 113.858L82.0316 114.235V114.989L82.7877 115.743V116.12H83.1657V116.874V117.251H83.5437L86.946 116.874H86.568V115.366L86.1899 114.989L85.8119 114.235V113.858L84.6778 112.726L84.2998 111.972L83.5437 111.595L82.4097 110.464H82.0316L81.2756 110.087H80.8976L80.1415 109.71H79.7635L79.3855 109.333H75.2272L74.4711 109.71H73.7151L73.337 110.087H72.581L72.203 110.464H71.8249L71.0689 110.841V111.218H70.6909L69.9348 111.595L69.5568 111.972L68.8007 112.349L68.4227 112.726V113.103L68.0447 113.481L71.8249 114.989Z" fill="#010101"/>
<path fill-rule="evenodd" clip-rule="evenodd" d="M108.871 84.8276L110.762 86.7127V87.0897L111.518 87.8437L111.896 88.5977L112.274 88.9747L112.652 89.7288V90.4828L113.03 91.2368V91.6138H113.408L114.164 91.2368L114.92 90.4828L115.676 90.1058H116.054V89.7288L115.676 88.9747V88.5977L115.298 88.2207V87.8437L114.92 87.0897L114.542 86.7127L114.164 85.9587L113.786 85.5816L113.03 84.0736L112.274 83.6966L111.896 82.9426L111.14 82.5656L108.871 84.8276Z" fill="#010101"/>
<path fill-rule="evenodd" clip-rule="evenodd" d="M91.4823 105.186L197.33 43.7333L197.708 44.1103H198.086L198.464 44.8643L198.842 45.2414L199.22 45.9954V47.5034L92.6164 107.448L94.8845 110.087L202.622 49.3885L203 49.0115V46.7494L202.622 45.9954V45.2414L202.244 44.4873V44.1103L201.866 43.7333V43.3563L201.488 42.9793L201.11 42.2253L200.354 41.4712L199.976 41.0942H199.598L198.842 40.3402H198.464L198.086 39.9632H197.708L197.33 39.5862L89.5922 102.547L91.4823 105.186Z" fill="#010101"/>
<path fill-rule="evenodd" clip-rule="evenodd" d="M6.04844 101.039V101.416L6.42647 101.793V102.547L6.80449 103.301L7.18252 103.678V104.432L7.56055 104.809V105.186L7.93857 105.563V105.94L8.3166 106.694V107.071L8.69462 107.825L9.07265 108.202L9.45068 108.956V109.333L9.8287 110.087L10.2067 110.464L10.9628 111.972V112.726L11.3408 113.48L11.7188 113.857L12.4749 115.365L12.8529 116.119L13.609 117.628L14.365 118.005L16.2551 121.775L17.0112 122.529L17.7673 124.037L18.5233 124.791L19.2794 126.299L20.4134 127.43L20.7915 128.184L22.3036 129.692L22.6816 130.446L24.5717 132.331L24.9497 133.085L25.7058 133.462L26.4619 134.216L26.8399 134.97L27.5959 135.347L29.8641 137.609H30.2421L30.6201 138.363H31.3762L31.7542 139.117H32.1322V139.494L32.8883 139.871L33.2663 140.248H33.6443V140.625L34.4004 141.002L34.7784 141.379H35.1564L37.0466 143.264H37.4246L38.1807 143.641L39.3147 144.772H40.0708L40.8268 145.526L42.3389 146.28L42.717 146.657H43.095L43.473 147.034H43.8511L44.2291 147.411H44.6071L45.3632 148.165H46.4972L47.2533 148.919H48.3874L49.1434 149.674H50.2775L50.6555 150.051H51.0335L51.7896 150.428H52.5457L53.3017 150.805H54.0578L54.8138 151.182H55.5699L56.3259 151.559H57.082L57.838 151.936H59.3501L59.7281 152.313H62.3743L63.1304 152.69H65.0205L65.7766 153.067H80.5196L81.2756 152.69H82.7877L83.9218 152.313H86.19L86.946 151.936H87.7021L88.4581 151.559H90.3483L91.8604 150.805H93.3725L95.6406 149.674H96.7747L98.2868 148.919H99.0429L100.555 148.165L101.689 147.788L102.067 147.411L103.201 147.034L103.579 146.657L104.713 146.28L105.091 145.903L106.225 145.526L107.737 144.772L108.494 144.018L111.518 142.51L112.274 141.756L113.03 141.379L114.92 139.494L115.676 139.117L117.188 137.609L117.944 137.232L118.322 136.478L120.59 134.216L120.968 133.462L122.858 131.577L123.615 130.446L123.993 129.692L124.749 128.938L125.127 128.184L125.883 127.43L126.639 125.922L127.395 125.168L127.773 124.414L128.151 124.037L129.663 121.021L130.041 120.644L131.175 118.382L131.553 118.005L131.931 117.251V116.874L132.309 116.119L133.065 115.365V114.611L133.443 113.857L134.199 113.103V112.726L134.577 111.972V111.595L134.955 111.218V110.841L135.333 110.087V109.333L135.711 108.956V108.202L136.089 107.825V107.071L136.467 106.694V105.94L136.845 105.563V104.432L137.223 104.055V103.678L142.894 98.777V99.154L142.516 99.531V100.285L142.138 100.662V101.416L141.76 102.17V102.547L141.382 103.301L141.004 103.678V104.432L140.626 105.186V105.94L139.492 108.202V108.956L139.114 110.087L138.358 111.595L137.98 112.726L137.602 113.48L136.845 115.742L136.089 116.496L135.333 118.759L134.955 119.513L134.199 120.644L133.821 121.775L133.065 122.906L132.309 123.66L131.931 124.791L131.175 125.922L130.797 127.053L130.041 128.184L129.285 128.938L127.017 132.331L125.127 134.216L123.615 136.478L122.48 137.232L121.724 138.363L119.834 140.248L118.7 141.002L117.944 142.133L116.81 143.264L113.408 145.526L112.274 146.657L111.14 147.034L110.006 147.788L108.494 148.542L107.359 149.296L106.603 150.051L103.201 151.182L102.445 151.559L100.177 152.313L99.0429 153.067H97.9088L96.7747 153.444L96.0186 153.821L93.7505 154.575H92.6164L91.4823 154.952L90.7263 155.329H89.5922L88.4581 155.706H87.3241L86.19 156.083H85.0559L83.9218 156.46H80.8976L79.7635 156.837H67.2887L66.1546 156.46H63.1304L61.9963 156.083H61.2402L60.1062 155.706H58.216L57.46 155.329H56.3259L55.5699 154.952H54.8138L54.0578 154.575H52.9237L52.1676 154.198H51.4116L49.8995 153.444H49.1434L48.3874 153.067H47.6313L46.1192 152.313H45.3632L44.6071 151.936L44.2291 151.559L42.717 150.805H41.9609L41.2049 150.051L40.4488 149.674L40.0708 149.296L36.2905 147.411L34.4004 145.526L32.8883 144.772L32.1322 144.018L30.6201 143.264L30.2421 142.51L29.4861 142.133L28.73 141.379L27.974 141.002L27.5959 140.248L26.8399 139.871L25.7058 138.74L24.9497 138.363L24.5717 137.609L23.8157 137.232L23.4376 136.478L23.0596 136.101L22.3036 135.724L21.9255 134.97L19.6574 132.708L19.2794 131.954L18.9013 131.577L18.5233 130.823L16.6332 128.938L16.2551 128.184L15.8771 127.807L15.4991 127.053L15.1211 126.676L14.365 125.168L13.609 124.791L13.2309 124.037L12.8529 123.66L12.4749 122.906L12.0969 122.529L11.3408 121.021L10.9628 120.644L9.8287 118.382L9.45068 118.005L8.3166 115.742L7.93857 115.365L7.56055 114.234L7.18252 113.857V113.103L5.29239 109.333L4.91436 108.956L4.53634 108.202V107.448L3.78029 105.94V105.186L2.64621 102.924V101.793L2.26818 101.416L1.89016 100.285V99.531L1.1341 98.0229V97.2689L0.756078 96.5149V95.7609L0.378052 95.0068L6.04844 101.039Z" fill="#010101"/>
<path fill-rule="evenodd" clip-rule="evenodd" d="M48.7653 151.936V155.706H49.1434L49.5214 156.083H49.8994L50.2774 156.46H50.6555L51.0335 156.837H51.4115L52.1676 157.214H52.5456L53.3017 157.591H54.0577L54.4357 157.968H55.5698L55.9478 158.345H57.0819L57.4599 158.722H58.972L59.3501 159.099H60.1061H60.8622L61.2402 159.476H63.8864L64.2644 159.853H66.9106L67.6666 160.23H79.3855L79.7635 159.853H82.4097L82.7877 159.476H85.4339L85.8119 159.099H87.702L88.0801 158.722H89.2141L89.9702 158.345H90.7262L91.1043 157.968H92.6164L92.9944 157.591L93.7504 157.214H94.1285L94.8845 156.837H95.2626L95.6406 156.46H96.3966L96.7747 156.083H97.1527V151.182L100.933 150.051V158.345H100.555L100.177 158.722H99.7989L99.4208 159.099H99.0428L98.6648 159.476H98.2868L96.7747 160.23H96.3966L95.6406 160.607H95.2626L94.8845 160.984H94.1285L93.3724 161.361H92.9944L92.2383 161.738H91.4823L91.1043 162.115H89.2141L88.8361 162.492H87.702L86.946 162.869H85.8119L85.0558 163.246H83.1657L82.4097 163.623H77.1173L76.3612 164H71.8249L71.0689 163.623H65.3985L64.6424 163.246H62.3743L61.6182 162.869H59.7281L58.972 162.492H57.838L57.0819 162.115H55.5698L54.8138 161.738H54.4357L54.0577 161.361H53.3017L52.9236 160.984H51.4115L51.0335 160.607H50.6555L50.2774 160.23H49.5214L49.1434 159.853H48.3873L47.6313 159.476H47.2532L46.8752 159.099L46.1192 158.722H45.7411L45.3631 158.345H44.9851L44.6071 157.968V149.674L48.7653 151.936Z" fill="#010101"/>
<path fill-rule="evenodd" clip-rule="evenodd" d="M6.80442 102.547V102.17L6.42639 101.416V99.5311L6.80442 98.777V98.023L7.18244 97.269V96.892L7.56047 96.138L7.9385 95.7609L8.69455 94.2529L9.4506 93.4989L9.82863 92.7449L10.5847 92.3678L10.9627 91.9908L11.7188 91.6138L12.4748 90.8598H13.2309L13.6089 90.4828H14.3649H14.743L16.6331 93.1219H15.877L15.121 93.4989H14.743L14.3649 93.8759L13.6089 94.2529H13.2309L12.0968 95.3839L11.7188 96.138L10.9627 96.892L10.5847 97.646V98.023L9.82863 98.777V100.662L9.4506 101.416L9.82863 102.17V104.432L10.2067 104.809V105.186L6.80442 102.547Z" fill="#010101"/>
<path fill-rule="evenodd" clip-rule="evenodd" d="M76.3612 94.2529L140.248 3.77011L140.626 3.3931H141.004L141.76 3.77011H142.138L142.894 4.14713L143.272 4.90115L143.65 5.27816V6.03218L78.6294 95.7609L82.0316 97.646L147.808 6.40919V5.27816L147.43 4.52414L147.052 4.14713L146.674 3.3931L146.296 3.01609L145.918 2.26207L143.65 1.13103L142.894 0.377011H142.516H142.138H141.76L141.004 0H138.736L138.358 0.377011L73.337 92.3678L76.3612 94.2529Z" fill="#010101"/>
<path fill-rule="evenodd" clip-rule="evenodd" d="M60.4842 55.7977H59.7282L59.3501 55.4207L58.5941 55.0437H58.2161L57.082 54.6667L56.3259 54.2897L58.5941 51.2736V51.6506H59.3501L59.7282 52.0276L60.4842 52.4046H60.8622L61.6183 52.7816L60.4842 55.7977Z" fill="#010101"/>
<path fill-rule="evenodd" clip-rule="evenodd" d="M60.4841 61.4528H60.1061L59.7281 61.0758H58.594L58.216 60.6988H57.4599L57.0819 60.3218H56.7039L55.9478 59.9448L55.1917 59.1908H54.8137L55.5698 56.1747H55.9478V56.5517H56.7039V56.9287H57.0819L57.4599 57.3057H58.594L58.972 57.6827L59.7281 58.0597H60.1061L60.4841 61.4528Z" fill="#010101"/>
<path fill-rule="evenodd" clip-rule="evenodd" d="M32.1322 67.4851H35.5345L36.2905 67.8621L35.1564 70.8782H34.4004L33.6443 70.5012H30.6201L32.1322 67.4851Z" fill="#010101"/>
<path fill-rule="evenodd" clip-rule="evenodd" d="M35.1564 76.1563V75.7793H33.2662L32.8882 75.4023H31.3761L30.9981 75.0252H30.6201L29.864 74.6482V72.0092H30.6201L31.3761 72.3862H33.2662L33.6443 72.7632H34.7784L35.1564 76.1563Z" fill="#010101"/>
<path fill-rule="evenodd" clip-rule="evenodd" d="M28.73 76.5333H30.6201L31.3762 76.9103L31.7542 77.2873H32.5102L32.8883 77.6644L29.864 79.5494L29.486 79.1724H29.108L28.73 78.7954H27.9739L27.5959 78.4184H27.2179L26.4618 78.0414H24.9497L28.73 76.5333Z" fill="#010101"/>
<path fill-rule="evenodd" clip-rule="evenodd" d="M22.6815 78.7954H24.5717L24.9497 79.1724H25.7057L26.4618 79.9264H26.8398L27.2178 80.3035H27.9739L24.5717 82.1885H24.1936L23.8156 81.8115L23.0596 81.4345H22.3035L21.9255 81.0575H21.5475L20.7914 80.6805H19.2793L22.6815 78.7954Z" fill="#010101"/>
<path fill-rule="evenodd" clip-rule="evenodd" d="M17.0112 81.8115H17.7672L18.5233 82.1885H19.6574L20.0354 82.5655H20.7914L21.1695 82.9426L22.6816 83.6966L20.0354 85.9587H19.6574V85.5816H19.2793L18.5233 85.2046H18.1453L17.7672 84.8276H17.0112L16.2551 84.4506H15.8771L15.121 84.0736H14.365L17.0112 81.8115Z" fill="#010101"/>
<path fill-rule="evenodd" clip-rule="evenodd" d="M17.7672 90.8598H17.3892L16.6331 90.4828H16.2551L15.499 90.1058H15.121L14.365 89.3518H13.6089L13.2309 88.9748L12.4748 88.5978H12.0968L13.2309 85.5817H13.6089L14.365 85.9587L14.743 86.3357H15.499L15.8771 86.7127L16.6331 87.0897H17.0111L17.3892 87.4667H18.1452L18.9013 87.8437L17.7672 90.8598Z" fill="#010101"/>
<path fill-rule="evenodd" clip-rule="evenodd" d="M36.6685 65.977H34.0224L33.6443 65.6H32.5103V62.5839H33.2663L33.6443 62.9609H36.2905L36.6685 65.977Z" fill="#010101"/>
<path fill-rule="evenodd" clip-rule="evenodd" d="M14.743 107.071V106.694H14.365L13.987 106.317L13.2309 105.94H12.8529L12.4748 105.563V105.186L11.7188 104.432H11.3408L10.9627 103.678H10.5847V99.9081L12.0968 101.416L12.8529 101.793L13.2309 102.17H13.6089L14.365 102.547L14.743 102.924V107.071Z" fill="#010101"/>
<path fill-rule="evenodd" clip-rule="evenodd" d="M15.1211 100.662L14.7431 100.285H14.365L13.609 99.531L12.8529 99.154L12.4749 98.777H12.0969L11.3408 98.023L13.609 95.3839L14.365 96.1379H14.7431L15.4991 96.5149L16.2552 97.269H16.6332L17.0112 97.646L15.1211 100.662Z" fill="#010101"/>
<path fill-rule="evenodd" clip-rule="evenodd" d="M26.4618 123.283H24.5717L23.8156 122.906H23.4376L22.6815 122.529H21.9255L21.1694 122.152H20.4134L17.3892 120.644L13.9869 114.611V114.988L14.743 115.365H15.121L15.8771 116.119L18.1452 117.251H18.5233L18.9013 117.628H19.2793L20.0354 118.005L20.4134 118.382H20.7914L21.1694 118.759H21.9255L22.3035 119.136L23.0596 119.513H23.8156L24.1936 119.89L26.4618 123.283Z" fill="#010101"/>
<path fill-rule="evenodd" clip-rule="evenodd" d="M40.4487 144.018H44.985L45.3631 143.641L52.9236 148.92H51.7895L51.4115 148.543H50.2774L49.5214 148.165H48.3873L46.8752 147.411H46.1191L45.3631 147.034L44.985 146.657L43.4729 145.903L43.0949 145.526H42.7169L41.9608 145.149L41.5828 144.772H41.2048L40.4487 144.018Z" fill="#010101"/>
<path fill-rule="evenodd" clip-rule="evenodd" d="M31.7542 130.069H28.73L27.9739 129.692H26.4618L25.7058 129.315H24.9497L24.1937 128.938H23.4376L23.0596 128.561L19.6573 124.037L20.0354 124.414H20.7914L21.1695 124.791H21.5475L22.3035 125.168H23.8156H24.1937L24.5717 125.545H25.7058L26.4618 125.922H27.9739L28.73 126.299L31.7542 130.069Z" fill="#010101"/>
<path fill-rule="evenodd" clip-rule="evenodd" d="M37.8026 136.478H31.3762L30.6201 136.101H30.2421L25.7058 131.577L26.0838 131.954H27.2179L27.5959 132.331H29.8641L30.2421 132.708H30.6201H34.0224L37.8026 136.478Z" fill="#010101"/>
<path fill-rule="evenodd" clip-rule="evenodd" d="M43.4729 141.756H42.3389L41.9608 142.133H37.4245L33.2662 138.74H38.1806H38.9366H39.6927L43.4729 141.756Z" fill="#010101"/>
</g>
<defs>
<clipPath id="clip0_116_699">
<rect width="203" height="164" fill="white"/>
</clipPath>
</defs>
</svg>
