<svg width="237" height="153" viewBox="0 0 237 153" fill="none" xmlns="http://www.w3.org/2000/svg">
<g clip-path="url(#clip0_207_2495)">
<path d="M235.186 77.0488H8.8335V152.285H235.186V77.0488Z" fill="#FFFF00" stroke="black" stroke-width="3.7294"/>
<path d="M9.93218 72.4203L190.137 4.12842L236.284 78.2068L8.83398 75.8907L9.93372 72.4203H9.93218Z" fill="#FFFF00" stroke="black" stroke-width="3.7294"/>
<path d="M108.072 120.438C108.085 122.09 107.76 123.727 107.117 125.256C106.473 126.786 105.524 128.176 104.323 129.349C103.121 130.521 101.693 131.451 100.118 132.086C98.5442 132.721 96.8558 133.048 95.1505 133.048C93.4453 133.048 91.7569 132.721 90.1827 132.086C88.6085 131.451 87.1796 130.521 85.9785 129.349C84.7773 128.176 83.8277 126.786 83.1842 125.256C82.5407 123.727 82.2162 122.09 82.2294 120.438C82.2162 118.787 82.5407 117.15 83.1842 115.62C83.8277 114.091 84.7773 112.7 85.9785 111.528C87.1796 110.356 88.6085 109.425 90.1827 108.791C91.7569 108.156 93.4453 107.829 95.1505 107.829C96.8558 107.829 98.5442 108.156 100.118 108.791C101.693 109.425 103.121 110.356 104.323 111.528C105.524 112.7 106.473 114.091 107.117 115.62C107.76 117.15 108.085 118.787 108.072 120.438Z" fill="white" stroke="black" stroke-width="2.588"/>
<path d="M93.5243 132.667C81.5324 130.543 83.4908 119.618 83.414 116.761C83.2642 111.051 86.4129 122.175 91.0284 124.215C93.7777 125.435 96.2621 125.776 98.7619 124.994C101.265 124.208 103.784 122.302 106.599 119.027C107.106 118.437 107.993 121.938 106.058 125.489C104.122 129.039 99.357 132.64 93.5243 132.667Z" fill="#FFFF00" stroke="black" stroke-width="2.5321"/>
<path d="M27.4075 113.783C27.4219 115.693 27.078 117.586 26.3958 119.355C25.7135 121.124 24.7064 122.732 23.4324 124.088C22.1585 125.443 20.6429 126.519 18.9731 127.254C17.3033 127.988 15.5123 128.366 13.7035 128.366C11.8946 128.366 10.1036 127.988 8.43384 127.254C6.76404 126.519 5.24846 125.443 3.9745 124.088C2.70054 122.732 1.69339 121.124 1.01115 119.355C0.32891 117.586 -0.0149307 115.693 -0.000543006 113.783C-0.0149307 111.874 0.32891 109.98 1.01115 108.211C1.69339 106.443 2.70054 104.834 3.9745 103.479C5.24846 102.123 6.76404 101.047 8.43384 100.313C10.1036 99.5785 11.8946 99.2004 13.7035 99.2004C15.5123 99.2004 17.3033 99.5785 18.9731 100.313C20.6429 101.047 22.1585 102.123 23.4324 103.479C24.7064 104.834 25.7135 106.443 26.3958 108.211C27.078 109.98 27.4219 111.874 27.4075 113.783Z" fill="white"/>
<path d="M16.3198 99.915C19.7012 100.54 21.8419 102.377 23.5161 104.041C25.3361 105.855 27.1217 109.536 27.1102 112.481C27.0948 115.572 27.9396 119.15 23.6274 123.537C20.4853 126.731 19.4447 127.084 16.1109 127.69C12.7683 128.292 10.588 128.115 8.65887 126.976C7.7972 126.466 18.4816 123.241 17.7344 112.857C17.077 103.685 6.74009 100.763 9.02788 100.268C10.8756 99.8652 13.7993 99.4242 16.3198 99.915Z" fill="#FFFF00" stroke="black" stroke-width="3.025"/>
<path d="M183.251 15.6411C183.251 17.6952 182.725 19.7291 181.702 21.6269C180.678 23.5246 179.178 25.2488 177.288 26.7013C175.397 28.1537 173.152 29.3059 170.682 30.0919C168.212 30.878 165.564 31.2825 162.89 31.2825C160.216 31.2825 157.569 30.878 155.098 30.0919C152.628 29.3059 150.383 28.1537 148.493 26.7013C146.602 25.2488 145.102 23.5246 144.079 21.6269C143.056 19.7291 142.529 17.6952 142.529 15.6411C142.529 13.5871 143.056 11.5531 144.079 9.65545C145.102 7.75775 146.602 6.03345 148.493 4.58101C150.383 3.12857 152.628 1.97644 155.098 1.19039C157.569 0.404333 160.216 -0.000244141 162.89 -0.000244141C165.564 -0.000244141 168.212 0.404333 170.682 1.19039C173.152 1.97644 175.397 3.12857 177.288 4.58101C179.178 6.03345 180.678 7.75775 181.702 9.65545C182.725 11.5531 183.251 13.5871 183.251 15.6411Z" fill="white"/>
<path d="M144.115 21.0088C145.574 23.0489 147.348 24.717 148.169 25.411C149.068 26.1703 153.035 28.4634 155.542 29.0463C157.953 29.6023 162.573 29.9705 165.023 29.6138C167.442 29.2611 168.766 29.1 171.082 28.2257C173.397 27.3552 174.787 26.3467 176.984 24.5597C178.9 22.999 179.549 22.374 180.666 19.6437C181.745 16.9977 181.849 16.0698 181.668 13.2666C181.484 10.4673 180.248 7.19629 180.248 7.19629" stroke="black" stroke-width="3.761"/>
<path d="M216.121 98.5272C217.073 100.894 217.516 103.425 217.426 105.975C217.336 108.524 216.713 111.042 215.594 113.383C214.475 115.724 212.881 117.842 210.906 119.614C208.93 121.386 206.611 122.778 204.082 123.709C201.553 124.64 198.865 125.092 196.172 125.039C193.479 124.986 190.835 124.429 188.391 123.4C185.948 122.371 183.754 120.89 181.936 119.043C180.118 117.196 178.712 115.02 177.799 112.639C176.847 110.272 176.403 107.741 176.494 105.191C176.584 102.642 177.207 100.124 178.326 97.783C179.445 95.4421 181.038 93.3245 183.014 91.5522C184.99 89.78 187.309 88.3882 189.838 87.457C192.366 86.5258 195.055 86.0737 197.748 86.1267C200.441 86.1798 203.085 86.7369 205.528 87.766C207.971 88.7951 210.165 90.2758 211.983 92.1227C213.801 93.9697 215.207 96.1463 216.121 98.5272Z" fill="white" stroke="black" stroke-width="4.0431"/>
<path d="M178.044 112.776C172.844 94.7611 188.453 87.8433 192.489 86.6661C201.148 84.139 188.185 94.834 188.43 102.584C188.503 104.892 188.845 106.963 189.525 108.823C190.201 110.687 191.218 112.339 192.635 113.808C195.477 116.753 199.938 118.966 206.566 120.68C207.756 120.986 203.214 124.43 196.801 124.791C190.108 125.166 182.095 120.833 178.044 112.776Z" fill="#FFFF00" stroke="black" stroke-width="3.9552"/>
<path d="M118.9 38.9727C120.627 39.1517 122.323 39.6596 123.89 40.4671C125.457 41.2745 126.864 42.3656 128.03 43.6774C129.197 44.9891 130.099 46.4956 130.685 48.11C131.271 49.7245 131.53 51.4149 131.446 53.0838C131.362 54.7527 130.937 56.3671 130.196 57.8339C129.455 59.3007 128.412 60.591 127.127 61.6303C125.843 62.6696 124.342 63.4374 122.711 63.8894C121.081 64.3414 119.353 64.4687 117.628 64.2639C115.901 64.0849 114.205 63.577 112.638 62.7695C111.071 61.962 109.664 60.871 108.497 59.5592C107.331 58.2475 106.429 56.7409 105.843 55.1265C105.256 53.5121 104.998 51.8217 105.082 50.1528C105.166 48.4839 105.591 46.8695 106.332 45.4027C107.073 43.9358 108.116 42.6456 109.4 41.6063C110.685 40.567 112.186 39.7992 113.816 39.3472C115.447 38.8952 117.174 38.7679 118.9 38.9727Z" fill="white" stroke="black" stroke-width="2.62747"/>
<path d="M126.989 42.4677C135.291 52.2653 127.338 59.6355 125.725 61.9555C122.504 66.6031 126.505 55.6245 124.028 50.881C122.554 48.0548 120.776 46.1029 118.326 45.0331C115.876 43.9632 112.754 43.7791 108.6 44.4847C107.851 44.6112 109.191 41.2214 112.808 39.7067C116.429 38.192 122.327 38.5486 126.989 42.4677Z" fill="#FFFF00" stroke="black" stroke-width="2.5683"/>
</g>
<defs>
<clipPath id="clip0_207_2495">
<rect width="237" height="153" fill="white"/>
</clipPath>
</defs>
</svg>
