<svg width="173" height="109" viewBox="0 0 173 109" fill="none" xmlns="http://www.w3.org/2000/svg">
<path fill-rule="evenodd" clip-rule="evenodd" d="M144.542 1.46857C161.735 5.10095 171.044 14.6856 172.407 30.2935C173.605 43.7589 169.425 56.8412 159.837 69.5616C151.17 80.7568 139.913 89.405 126.066 95.4424C110.993 101.955 90.7617 106.283 65.3444 108.383C40.2411 110.66 21.9575 105.417 10.5579 92.7252C-0.114093 81.0618 -2.67508 66.0924 2.78931 47.7744C6.60582 34.9192 16.8569 25.9091 33.6068 20.7585C40.291 18.6231 54.7581 16.2961 76.9937 13.7208C82.0087 13.2738 92.5166 10.0033 108.482 3.96583C120.045 -0.276688 132.059 -1.10674 144.542 1.46857Z" fill="url(#paint0_linear_202_1144)"/>
<path fill-rule="evenodd" clip-rule="evenodd" d="M94.3284 16.6579C95.9977 17.268 98.2805 18.098 101.184 19.1764C103.773 19.9284 106.584 20.3115 109.623 20.3115C112.798 20.3115 115.337 20.5882 117.149 21.1983C118.512 21.6737 119.211 22.1135 119.211 22.5605C116.172 21.5034 111.349 21.5885 104.829 22.8088C101.462 23.4189 98.8155 23.2487 96.8324 22.3335L95.0204 20.9784C91.2039 22.5037 88.5288 22.2838 87.0236 20.3115C86.2745 19.2332 84.7408 18.5663 82.458 18.2612C77.2719 17.793 72.6492 17.1261 68.5188 16.2109C66.2075 15.7143 63.5609 15.5724 60.5505 15.771C64.9805 15.2177 70.4735 14.5508 76.9651 13.7207C80.6175 13.2738 84.2129 12.5785 87.6941 11.6704C85.8822 13.6356 85.8822 14.941 87.6941 15.544C88.9211 15.8491 91.1183 16.2109 94.3284 16.6579Z" fill="url(#paint1_linear_202_1144)"/>
<path fill-rule="evenodd" clip-rule="evenodd" d="M151.448 43.1209C155.885 39.7935 158.917 36.523 160.593 33.3659C161.956 31.0957 162.655 31.0957 162.655 33.3659C162.655 36.828 162.962 38.8003 163.547 39.2402C164.631 40.0206 165.694 39.4104 166.75 37.4382C167.977 35.3098 168.59 32.5359 168.59 29.0454C168.59 26.6332 167.449 23.0576 165.159 18.3752C162.712 13.8276 159.98 9.75539 156.941 6.09463C167.891 12.1675 173.134 22.0076 172.685 35.6149C172.242 47.5833 167.977 58.9203 159.894 69.6685C151.227 80.8636 139.97 89.5118 126.123 95.5564C111.043 102.069 90.8117 106.39 65.4015 108.497C41.3539 110.632 23.5483 105.865 11.9846 94.1942C23.855 99.7918 38.4577 101.899 55.8139 100.544C67.5202 99.657 77.1863 97.3867 84.798 93.7543C88.9212 91.7892 93.3227 89.2919 98.0309 86.2413C101.99 84.7443 106.862 82.3109 112.662 78.9836C113.861 78.2316 116.621 77.6214 120.88 77.1816C124.839 76.7062 127.179 76.1032 127.935 75.3512L132.28 70.3638C130.917 69.8955 129.69 69.3634 128.627 68.7533C126.202 67.7033 125.424 67.0364 126.344 66.7314C126.787 66.5682 127.707 66.0432 129.077 65.128C130.161 64.2412 131.666 63.5459 133.642 63.1061C136.239 62.3257 137.823 61.5808 138.436 60.8287C139.221 60.2186 139.577 58.9984 139.577 57.1964C139.577 55.6781 137.994 54.543 134.791 53.791L129.997 52.8758L140.277 49.2434C143.622 48.1934 147.353 46.1431 151.448 43.1209Z" fill="black"/>
<path fill-rule="evenodd" clip-rule="evenodd" d="M116.365 16.6583C117.87 17.2684 118.876 18.4035 119.325 20.0636C119.632 21.4258 119.632 22.2558 119.325 22.5609C119.325 22.114 118.654 21.6741 117.263 21.1988C115.451 20.5886 112.94 20.2836 109.737 20.2836C106.698 20.2836 103.881 19.9288 101.291 19.1768C98.3948 18.0985 96.112 17.2684 94.4356 16.6583C91.2611 16.2113 89.0283 15.8211 87.8298 15.5232C85.9965 14.9343 85.9965 13.636 87.8298 11.6708H87.359L92.4025 10.3087L101.291 6.67631C102.211 6.67631 103.189 6.98137 104.273 7.5915C105.336 8.03845 105.778 8.56345 105.643 9.17358C105.643 10.5286 105.557 11.6141 105.386 12.359C105.386 12.5009 106.085 12.5009 107.447 12.359C109.595 12.1958 111.713 12.884 113.861 14.3809L114.531 15.2961C115.145 16.0765 115.758 16.5164 116.365 16.6583Z" fill="#FFE5A3"/>
<path fill-rule="evenodd" clip-rule="evenodd" d="M104.358 20.4255C103.16 20.2552 101.847 19.8154 100.485 19.0421C98.0594 17.3749 95.3843 16.5448 92.488 16.5448C89.7558 16.5448 88.0009 16.1049 87.2447 15.1897C86.8025 14.4377 87.0236 13.3026 87.9438 11.7773C89.449 12.3874 90.512 12.4726 91.1183 11.9972H94.3285C94.6352 11.9972 94.7708 12.4726 94.7708 13.3877C94.7708 14.1327 95.5555 14.5796 97.0535 14.7428C98.894 14.8847 100.035 15.0479 100.485 15.1897C100.792 15.3529 101.712 15.8779 103.217 16.7647C104.444 17.3749 105.279 17.8999 105.749 18.3752C106.056 18.6802 107.119 18.9002 108.931 19.0421C111.827 19.5103 115.337 20.7306 119.432 22.6674C114.56 20.8654 110.907 20.0353 108.482 20.1772C106.056 20.3404 104.665 20.4255 104.358 20.4255Z" fill="#FFE39E"/>
<path fill-rule="evenodd" clip-rule="evenodd" d="M98.3661 17.7366L90.1481 16.8498C88.9497 16.6867 87.9438 16.1546 87.1948 15.2394L86.7454 14.3313C87.3303 14.9343 87.9438 15.1613 88.5573 15.0194C90.5333 14.5796 92.4309 14.5796 94.2714 15.0194C97.9238 15.9346 100.121 16.6867 100.877 17.2968C102.404 18.5099 104.915 19.4819 108.425 20.2339C107.198 21.142 105.692 21.2271 103.859 20.4822C102.325 18.9569 100.513 18.0417 98.3661 17.7366Z" fill="#FFD670"/>
<path fill-rule="evenodd" clip-rule="evenodd" d="M171.265 31.8122L170.566 21.142C173.462 28.2649 173.769 36.5229 171.486 45.8948C169.367 54.5146 165.551 62.4675 160.065 69.7252C151.398 80.9203 140.141 89.5685 126.287 95.6131C111.214 102.126 90.9827 106.446 65.5655 108.553C45.7838 110.214 30.0969 107.191 18.5332 99.4867C24.7752 102.814 32.3797 104.836 41.3823 105.616C49.9071 106.361 60.7788 105.836 74.0117 104.006C84.5196 102.651 93.9646 100.906 102.325 98.7985C108.26 97.4363 114.281 95.081 120.352 91.7607C123.555 89.9304 127.571 87.5182 132.444 84.496C136.881 82.0555 139.527 80.4805 140.448 79.7285C140.747 78.8133 141.14 77.7633 141.589 76.543C142.509 74.1309 143.479 72.3005 144.542 71.1086C145.32 70.2005 147.66 68.0651 151.619 64.7378C155.578 61.2473 157.946 59.0551 158.696 58.1683C159.473 57.2531 161.82 54.4578 165.772 49.7471C169.589 44.3127 171.401 38.3249 171.265 31.8122Z" fill="black"/>
<path fill-rule="evenodd" clip-rule="evenodd" d="M67.1563 58.2246C73.2627 59.2817 74.8464 61.3036 71.9501 64.3471C68.9112 67.5397 66.179 68.3413 63.7321 66.8444C61.9202 65.766 61.3852 64.0421 62.1413 61.6087C63.0616 59.0546 64.7308 57.9195 67.1563 58.2246Z" fill="url(#paint2_linear_202_1144)"/>
<path fill-rule="evenodd" clip-rule="evenodd" d="M45.256 31.8685C47.6815 31.7337 48.295 32.3438 47.068 33.6989C45.8695 35.2242 44.6425 35.7492 43.4155 35.2809C42.3598 34.9759 42.1315 34.3658 42.745 33.4789C43.1944 32.5637 44.029 32.0388 45.256 31.8685Z" fill="url(#paint3_linear_202_1144)"/>
<path fill-rule="evenodd" clip-rule="evenodd" d="M87.0238 42.7869C90.983 42.1768 92.267 43.319 90.8973 46.1993C89.3921 49.2216 87.2449 50.4135 84.5198 49.8246C82.0659 49.2216 81.2598 47.9446 82.0088 45.951C82.765 44.149 84.4342 43.0636 87.0238 42.7869Z" fill="url(#paint4_linear_202_1144)"/>
<path fill-rule="evenodd" clip-rule="evenodd" d="M32.6864 88.1847C36.0321 88.9296 36.7241 89.9299 34.748 91.1218C32.6008 92.3421 30.7104 92.3421 29.034 91.1218C27.5288 90.0647 27.3647 89.2347 28.5917 88.6529C29.6475 88.0144 31.0171 87.8796 32.6864 88.1847Z" fill="url(#paint5_linear_202_1144)"/>
<path fill-rule="evenodd" clip-rule="evenodd" d="M94.3285 75.2442C98.4518 74.7973 99.5932 75.8473 97.7527 78.4297C95.9407 80.8418 93.7935 81.835 91.3752 81.3668C89.5347 80.9198 89.228 79.7847 90.4549 77.9543C91.5107 76.2942 92.7948 75.4074 94.3285 75.2442Z" fill="url(#paint6_linear_202_1144)"/>
<path fill-rule="evenodd" clip-rule="evenodd" d="M112.134 26.881C114.417 26.7462 115.173 27.406 114.417 28.9313C113.497 30.4566 112.213 30.9816 110.543 30.5134C109.009 30.2083 108.482 29.5414 108.931 28.4631C109.402 27.5762 110.458 27.0513 112.134 26.881Z" fill="url(#paint7_linear_202_1144)"/>
<path fill-rule="evenodd" clip-rule="evenodd" d="M130.382 38.4664C134.341 36.8062 136.01 37.2461 135.397 39.8214C134.648 42.5386 133.057 43.844 130.61 43.6737C128.627 43.5389 127.793 42.7089 128.128 41.1836C128.406 39.9917 129.184 39.0765 130.382 38.4664Z" fill="url(#paint8_linear_202_1144)"/>
<path fill-rule="evenodd" clip-rule="evenodd" d="M113.276 55.2591C117.399 54.8192 118.761 55.7841 117.399 58.2246C115.865 60.6367 113.582 61.6867 110.543 61.41C107.783 60.9418 107.119 59.8067 108.482 57.9763C109.709 56.3162 111.299 55.401 113.276 55.2591Z" fill="url(#paint9_linear_202_1144)"/>
<path fill-rule="evenodd" clip-rule="evenodd" d="M130.61 57.9763C132.893 57.9763 133.671 58.5864 132.893 59.8067C132.137 61.0269 130.917 61.4668 129.241 61.1617C127.878 60.8567 127.429 60.2465 127.878 59.3313C128.492 58.4445 129.412 57.9763 130.61 57.9763Z" fill="url(#paint10_linear_202_1144)"/>
<path fill-rule="evenodd" clip-rule="evenodd" d="M141.111 10.7836C143.708 10.3083 144.706 11.0887 144.093 13.0255C143.48 14.9907 142.424 15.7711 140.89 15.2957C139.663 14.8559 139.135 14.0258 139.299 12.8056C139.442 11.6137 140.055 10.9184 141.111 10.7836Z" fill="url(#paint11_linear_202_1144)"/>
<path fill-rule="evenodd" clip-rule="evenodd" d="M152.76 20.5385C155.043 21.1487 155.214 22.7236 153.21 25.299C151.227 28.0162 149.557 28.7114 148.188 27.3564C146.989 26.1361 147.132 24.554 148.666 22.5605C150.171 20.7585 151.533 20.0632 152.76 20.5385Z" fill="url(#paint12_linear_202_1144)"/>
<path fill-rule="evenodd" clip-rule="evenodd" d="M149.108 31.4286C151.091 31.2867 151.926 31.9536 151.619 33.4789C151.169 34.834 150.171 35.664 148.637 35.9691C147.275 36.2742 146.825 35.586 147.275 33.9188C147.603 32.2587 148.188 31.4286 149.108 31.4286Z" fill="url(#paint13_linear_202_1144)"/>
<path fill-rule="evenodd" clip-rule="evenodd" d="M150.478 6.45597C152.011 6.29279 153.153 6.59786 153.902 7.37116C154.658 8.12318 154.908 9.03127 154.601 10.0884C154.294 10.8333 153.288 10.4786 151.619 8.95323C150.085 7.59109 149.722 6.76103 150.478 6.45597Z" fill="url(#paint14_linear_202_1144)"/>
<path fill-rule="evenodd" clip-rule="evenodd" d="M117.149 9.17312C118.069 8.4282 119.068 8.038 120.131 8.038C121.051 8.20117 121.665 8.50623 121.943 8.95319C122.25 9.39305 122.193 9.91804 121.715 10.5282C121.108 11.1383 120.266 11.4434 119.211 11.4434C118.29 11.4434 117.541 11.1383 116.928 10.5282C116.478 9.94642 116.536 9.47818 117.149 9.17312Z" fill="url(#paint15_linear_202_1144)"/>
<path fill-rule="evenodd" clip-rule="evenodd" d="M13.5183 80.6716C16.1078 81.7499 16.6357 82.807 15.1305 83.857C13.7395 84.9425 12.4554 85.0773 11.2284 84.3323C10.3082 83.5519 10.087 82.6651 10.5579 81.5868C11.1714 80.3949 12.1487 80.0898 13.5183 80.6716Z" fill="url(#paint16_linear_202_1144)"/>
<path fill-rule="evenodd" clip-rule="evenodd" d="M55.7568 92.2569C59.1025 91.8099 60.6363 92.342 60.3295 93.8673C60.1654 95.2224 59.1881 96.1092 57.3476 96.5774C55.9851 96.7193 55.0649 96.1092 54.6155 94.7542C54.1446 93.2572 54.537 92.4201 55.7568 92.2569Z" fill="url(#paint17_linear_202_1144)"/>
<path fill-rule="evenodd" clip-rule="evenodd" d="M47.5389 21.142C62.8905 22.5042 72.5638 28.9602 76.523 40.4604C79.8615 49.8251 79.1981 58.4733 74.4613 66.3199C68.519 76.3231 61.0001 83.6659 51.8619 88.3483C40.1555 94.3928 27.8071 94.556 14.8809 88.7953C8.80304 86.0781 4.90806 80.3386 3.23165 71.5556C1.11295 60.6655 3.84514 48.8603 11.4496 36.1398C14.2104 31.5922 20.2026 27.7399 29.4835 24.5545C37.3948 21.9792 43.4156 20.8441 47.5389 21.142Z" fill="#FFEBBA"/>
<path fill-rule="evenodd" clip-rule="evenodd" d="M23.7979 30.7338C32.1586 27.7115 39.0925 26.5764 44.5569 27.3284C50.6633 28.2365 53.8378 32.3442 54.1446 39.6019C54.3086 43.5394 53.7807 48.6119 52.5537 54.8196C52.4182 57.8348 48.5161 61.5523 40.9045 65.9296C33.6067 70.4772 27.4504 72.8326 22.4354 72.9674C17.556 73.1093 13.6824 71.7471 10.7861 68.8951C8.05393 66.0148 6.82694 62.0773 7.13369 57.0899C7.57597 49.8038 9.72321 43.6742 13.5183 38.6867C16.5501 34.6145 19.9814 31.954 23.7979 30.7338Z" fill="#FFE39E"/>
<path fill-rule="evenodd" clip-rule="evenodd" d="M34.2489 39.5451C36.3676 43.7876 35.9181 47.193 32.8507 49.747C29.3694 52.7906 25.8597 54.5145 22.3784 54.9828C18.8687 55.4226 16.4932 54.5145 15.3018 52.2372C14.0748 50.1301 14.6883 46.9447 17.1067 42.7093C19.3966 38.4951 21.822 35.9695 24.4115 35.2246C28.8415 33.8624 32.1016 35.3097 34.2489 39.5451Z" fill="#FFD670"/>
<defs>
<linearGradient id="paint0_linear_202_1144" x1="79.1054" y1="26.7323" x2="102.385" y2="102.519" gradientUnits="userSpaceOnUse">
<stop stop-color="#B39345"/>
<stop offset="1" stop-color="#6E5720"/>
</linearGradient>
<linearGradient id="paint1_linear_202_1144" x1="87.1404" y1="10.3098" x2="93.2432" y2="30.194" gradientUnits="userSpaceOnUse">
<stop stop-color="#997E38"/>
<stop offset="1" stop-color="#9C7F3A"/>
</linearGradient>
<linearGradient id="paint2_linear_202_1144" x1="66.5997" y1="59.6374" x2="68.6331" y2="66.3405" gradientUnits="userSpaceOnUse">
<stop stop-color="#856629"/>
<stop offset="0.9882" stop-color="#96782D"/>
<stop offset="1" stop-color="#96782D"/>
</linearGradient>
<linearGradient id="paint3_linear_202_1144" x1="44.756" y1="32.4829" x2="45.4334" y2="34.8663" gradientUnits="userSpaceOnUse">
<stop stop-color="#7A5E26"/>
<stop offset="0.9882" stop-color="#96782D"/>
<stop offset="1" stop-color="#96782D"/>
</linearGradient>
<linearGradient id="paint4_linear_202_1144" x1="86.0996" y1="44.2851" x2="87.681" y2="49.3974" gradientUnits="userSpaceOnUse">
<stop stop-color="#8F6E2C"/>
<stop offset="0.9882" stop-color="#9E7F2F"/>
<stop offset="1" stop-color="#9E7F2F"/>
</linearGradient>
<linearGradient id="paint5_linear_202_1144" x1="31.4348" y1="88.522" x2="32.4516" y2="91.8164" gradientUnits="userSpaceOnUse">
<stop stop-color="#7A5E26"/>
<stop offset="0.9882" stop-color="#96782D"/>
<stop offset="1" stop-color="#96782D"/>
</linearGradient>
<linearGradient id="paint6_linear_202_1144" x1="93.6129" y1="76.4886" x2="94.9697" y2="80.6955" gradientUnits="userSpaceOnUse">
<stop stop-color="#7A5E26"/>
<stop offset="0.9882" stop-color="#96782D"/>
<stop offset="1" stop-color="#96782D"/>
</linearGradient>
<linearGradient id="paint7_linear_202_1144" x1="111.454" y1="27.5853" x2="112.245" y2="30.3119" gradientUnits="userSpaceOnUse">
<stop stop-color="#A17C31"/>
<stop offset="0.9882" stop-color="#A18130"/>
<stop offset="1" stop-color="#A18130"/>
</linearGradient>
<linearGradient id="paint8_linear_202_1144" x1="131.437" y1="39.224" x2="132.681" y2="43.0898" gradientUnits="userSpaceOnUse">
<stop stop-color="#91702D"/>
<stop offset="0.9882" stop-color="#A38332"/>
<stop offset="1" stop-color="#A38332"/>
</linearGradient>
<linearGradient id="paint9_linear_202_1144" x1="112.345" y1="56.5255" x2="113.701" y2="60.8424" gradientUnits="userSpaceOnUse">
<stop stop-color="#856629"/>
<stop offset="0.9882" stop-color="#96782D"/>
<stop offset="1" stop-color="#96782D"/>
</linearGradient>
<linearGradient id="paint10_linear_202_1144" x1="130.208" y1="58.682" x2="130.886" y2="60.954" gradientUnits="userSpaceOnUse">
<stop stop-color="#7A5E26"/>
<stop offset="0.9882" stop-color="#96782D"/>
<stop offset="1" stop-color="#96782D"/>
</linearGradient>
<linearGradient id="paint11_linear_202_1144" x1="141.425" y1="11.5166" x2="142.442" y2="14.9247" gradientUnits="userSpaceOnUse">
<stop stop-color="#AB8435"/>
<stop offset="0.9882" stop-color="#997B2E"/>
<stop offset="1" stop-color="#997B2E"/>
</linearGradient>
<linearGradient id="paint12_linear_202_1144" x1="150.449" y1="22.1792" x2="151.917" y2="27.0647" gradientUnits="userSpaceOnUse">
<stop stop-color="#96742E"/>
<stop offset="0.9882" stop-color="#A38332"/>
<stop offset="1" stop-color="#A38332"/>
</linearGradient>
<linearGradient id="paint13_linear_202_1144" x1="148.876" y1="32.1978" x2="149.893" y2="35.6059" gradientUnits="userSpaceOnUse">
<stop stop-color="#96742E"/>
<stop offset="0.9882" stop-color="#A38332"/>
<stop offset="1" stop-color="#A38332"/>
</linearGradient>
<linearGradient id="paint14_linear_202_1144" x1="152.138" y1="7.00893" x2="153.155" y2="10.5309" gradientUnits="userSpaceOnUse">
<stop stop-color="#AB8435"/>
<stop offset="0.9882" stop-color="#997B2E"/>
<stop offset="1" stop-color="#997B2E"/>
</linearGradient>
<linearGradient id="paint15_linear_202_1144" x1="119.132" y1="8.87441" x2="119.922" y2="11.3725" gradientUnits="userSpaceOnUse">
<stop stop-color="#AB8435"/>
<stop offset="0.9882" stop-color="#997B2E"/>
<stop offset="1" stop-color="#997B2E"/>
</linearGradient>
<linearGradient id="paint16_linear_202_1144" x1="12.6235" y1="81.0601" x2="13.6416" y2="84.3588" gradientUnits="userSpaceOnUse">
<stop stop-color="#7A5E26"/>
<stop offset="0.9882" stop-color="#96782D"/>
<stop offset="1" stop-color="#96782D"/>
</linearGradient>
<linearGradient id="paint17_linear_202_1144" x1="57.106" y1="92.7738" x2="58.1227" y2="96.2958" gradientUnits="userSpaceOnUse">
<stop stop-color="#7A5E26"/>
<stop offset="0.9882" stop-color="#96782D"/>
<stop offset="1" stop-color="#96782D"/>
</linearGradient>
</defs>
</svg>
