<svg width="140" height="190" viewBox="0 0 140 190" fill="none" xmlns="http://www.w3.org/2000/svg">
<g clip-path="url(#clip0_207_2631)">
<path fill-rule="evenodd" clip-rule="evenodd" d="M139.077 116.958C139.488 155.726 114.108 189.089 71.5659 189.089C29.0275 189.089 0.636755 167.097 0.918831 113.822C1.19358 60.4272 36.3688 1.69397 68.4265 0.925646C102.624 0.0804847 138.465 57.9722 139.077 116.958Z" fill="white" stroke="black" stroke-width="2.82481" stroke-linecap="round" stroke-linejoin="round"/>
<path fill-rule="evenodd" clip-rule="evenodd" d="M118.145 119.574C118.145 132.466 113.128 144.83 104.196 153.946C95.2654 163.062 83.1523 168.184 70.5218 168.184C57.8914 168.184 45.7783 163.062 36.8472 153.946C27.9161 144.83 22.8987 132.466 22.8987 119.574C22.8987 106.682 27.9161 94.3179 36.8472 85.2018C45.7783 76.0857 57.8914 70.9644 70.5218 70.9644C83.1523 70.9644 95.2654 76.0857 104.196 85.2018C113.128 94.3179 118.145 106.682 118.145 119.574Z" fill="#FFF11F" stroke="black" stroke-width="1.12998" stroke-linecap="round" stroke-linejoin="round"/>
</g>
<defs>
<clipPath id="clip0_207_2631">
<rect width="140" height="190" fill="white"/>
</clipPath>
</defs>
</svg>
