<svg id="visual" viewBox="0 0 900 600" width="900" height="600" xmlns="http://www.w3.org/2000/svg" xmlns:xlink="http://www.w3.org/1999/xlink" version="1.1"><rect x="0" y="0" width="900" height="600" fill="#001220"></rect><path d="M0 428L21.5 421.2C43 414.3 86 400.7 128.8 394.5C171.7 388.3 214.3 389.7 257.2 390.3C300 391 343 391 385.8 399.3C428.7 407.7 471.3 424.3 514.2 429.8C557 435.3 600 429.7 642.8 423.7C685.7 417.7 728.3 411.3 771.2 406.5C814 401.7 857 398.3 878.5 396.7L900 395L900 601L878.5 601C857 601 814 601 771.2 601C728.3 601 685.7 601 642.8 601C600 601 557 601 514.2 601C471.3 601 428.7 601 385.8 601C343 601 300 601 257.2 601C214.3 601 171.7 601 128.8 601C86 601 43 601 21.5 601L0 601Z" fill="#fa7268"></path><path d="M0 395L21.5 395.3C43 395.7 86 396.3 128.8 409.2C171.7 422 214.3 447 257.2 448.8C300 450.7 343 429.3 385.8 428.5C428.7 427.7 471.3 447.3 514.2 453.3C557 459.3 600 451.7 642.8 452.5C685.7 453.3 728.3 462.7 771.2 466.8C814 471 857 470 878.5 469.5L900 469L900 601L878.5 601C857 601 814 601 771.2 601C728.3 601 685.7 601 642.8 601C600 601 557 601 514.2 601C471.3 601 428.7 601 385.8 601C343 601 300 601 257.2 601C214.3 601 171.7 601 128.8 601C86 601 43 601 21.5 601L0 601Z" fill="#ef5f67"></path><path d="M0 445L21.5 443.7C43 442.3 86 439.7 128.8 449.7C171.7 459.7 214.3 482.3 257.2 489.7C300 497 343 489 385.8 482.7C428.7 476.3 471.3 471.7 514.2 467.5C557 463.3 600 459.7 642.8 459.7C685.7 459.7 728.3 463.3 771.2 462C814 460.7 857 454.3 878.5 451.2L900 448L900 601L878.5 601C857 601 814 601 771.2 601C728.3 601 685.7 601 642.8 601C600 601 557 601 514.2 601C471.3 601 428.7 601 385.8 601C343 601 300 601 257.2 601C214.3 601 171.7 601 128.8 601C86 601 43 601 21.5 601L0 601Z" fill="#e34c67"></path><path d="M0 535L21.5 527.2C43 519.3 86 503.7 128.8 497.5C171.7 491.3 214.3 494.7 257.2 495C300 495.3 343 492.7 385.8 492.2C428.7 491.7 471.3 493.3 514.2 499.8C557 506.3 600 517.7 642.8 522.7C685.7 527.7 728.3 526.3 771.2 525C814 523.7 857 522.3 878.5 521.7L900 521L900 601L878.5 601C857 601 814 601 771.2 601C728.3 601 685.7 601 642.8 601C600 601 557 601 514.2 601C471.3 601 428.7 601 385.8 601C343 601 300 601 257.2 601C214.3 601 171.7 601 128.8 601C86 601 43 601 21.5 601L0 601Z" fill="#d53867"></path><path d="M0 528L21.5 530.5C43 533 86 538 128.8 541.2C171.7 544.3 214.3 545.7 257.2 545.3C300 545 343 543 385.8 540.2C428.7 537.3 471.3 533.7 514.2 535.5C557 537.3 600 544.7 642.8 548.5C685.7 552.3 728.3 552.7 771.2 556.2C814 559.7 857 566.3 878.5 569.7L900 573L900 601L878.5 601C857 601 814 601 771.2 601C728.3 601 685.7 601 642.8 601C600 601 557 601 514.2 601C471.3 601 428.7 601 385.8 601C343 601 300 601 257.2 601C214.3 601 171.7 601 128.8 601C86 601 43 601 21.5 601L0 601Z" fill="#c62368"></path></svg>