<svg width="220" height="220" viewBox="0 0 220 220" fill="none" xmlns="http://www.w3.org/2000/svg">
<path fill-rule="evenodd" clip-rule="evenodd" d="M79.0485 3.82495L102.476 16.7612L79.0485 11.5123V3.82495Z" fill="white" stroke="#555753" stroke-width="0.95842" stroke-linejoin="round"/>
<path fill-rule="evenodd" clip-rule="evenodd" d="M52.5746 39.3239L68.4593 11.2869L96.608 51.0808L52.5746 39.3239Z" fill="white" stroke="#555753" stroke-width="0.95842" stroke-linejoin="round"/>
<path fill-rule="evenodd" clip-rule="evenodd" d="M68.4593 10.156L100.504 16.2608L96.0446 49.9499L68.4593 10.156Z" fill="#729FCF" stroke="#204A87" stroke-width="0.95842" stroke-linejoin="round"/>
<path fill-rule="evenodd" clip-rule="evenodd" d="M161.814 43.8452L95.7726 51.7589L102.175 6.76465L114.163 12.4167L139.8 11.7386L140.354 18.9742L161.814 43.8452Z" fill="white" stroke="#555753" stroke-width="0.95842" stroke-linejoin="round"/>
<path fill-rule="evenodd" clip-rule="evenodd" d="M161.901 44.2844L169.071 199.741L102.34 216.412L97.3755 51.4928L161.901 44.2805V44.2844Z" fill="#729FCF" stroke="#204A87" stroke-width="0.951722" stroke-linejoin="round"/>
<path fill-rule="evenodd" clip-rule="evenodd" d="M53.0215 39.2336L93.0913 51.9086L98.6773 216.235L58.0936 195.406L53.0215 39.2404V39.2336Z" fill="#EEEEEC" stroke="#555753" stroke-width="0.914819" stroke-linejoin="round"/>
<path d="M58.418 45.4744L63.2036 193.043L93.2272 208.45L88.0104 54.82L58.418 45.4753V45.4744Z" stroke="white" stroke-width="0.9517"/>
<path opacity="0.70513" d="M156.927 49.1096L102.67 55.1435L107.372 210.746L163.757 196.65L156.927 49.1106V49.1096Z" stroke="white" stroke-width="0.9517"/>
<path opacity="0.65385" d="M78.1708 16.0962L92.8286 37.1654L95.1793 19.3329L78.1708 16.0962Z" stroke="white" stroke-width="0.95843"/>
</svg>
