<svg width="191" height="162" viewBox="0 0 191 162" fill="none" xmlns="http://www.w3.org/2000/svg">
<path fill-rule="evenodd" clip-rule="evenodd" d="M68.8397 3C32.4725 3 3 32.4792 3 68.8464C3 71.1089 3.08882 73.3881 3.31506 75.6003C3.31842 75.617 3.31004 75.6338 3.31506 75.6506C9.05169 97.253 36.0589 113.61 68.471 113.61C104.687 113.61 134.099 93.1638 134.669 67.7905C134.099 31.9262 104.838 3 68.8397 3V3Z" fill="#FFCC00" stroke="black" stroke-width="6" stroke-linecap="round" stroke-linejoin="round"/>
<path d="M37.3494 24.1165C73.3814 19.4575 94.1291 41.1773 100.363 63.0478" stroke="black" stroke-width="3" stroke-linecap="round"/>
<path d="M101.201 24.4852C65.1526 19.8597 44.4384 41.5962 38.2208 63.4835" stroke="black" stroke-width="3" stroke-linecap="round"/>
<path fill-rule="evenodd" clip-rule="evenodd" d="M122.17 47.5742C85.8033 47.5742 56.3308 77.0534 56.3308 113.421C56.3308 115.683 56.4196 117.962 56.6459 120.174C56.6492 120.191 56.6408 120.208 56.6459 120.225C62.3825 141.827 89.3897 158.184 121.802 158.184C158.018 158.184 187.43 137.738 188 112.365C187.43 76.5004 158.169 47.5742 122.17 47.5742V47.5742Z" fill="#FFCC00" stroke="black" stroke-width="6" stroke-linecap="round" stroke-linejoin="round"/>
<path d="M90.6801 68.6907C126.712 64.0317 147.46 85.7515 153.694 107.622" stroke="black" stroke-width="3" stroke-linecap="round"/>
<path d="M154.532 69.0593C118.483 64.4338 97.7692 86.1703 91.5516 108.058" stroke="black" stroke-width="3" stroke-linecap="round"/>
</svg>
