<svg width="277" height="156" viewBox="0 0 277 156" fill="none" xmlns="http://www.w3.org/2000/svg">
<path d="M7.87069 78.6192C8.84588 76.9951 20.5479 64.0018 20.5479 64.0018L23.7985 59.1293L26.399 57.5051L51.1034 44.5119L62.1552 46.461L68.6562 38.9896L72.2319 34.442L91.0852 24.6968L103.762 25.0217L107.988 17.2256L110.914 14.6269L131.392 5.20654L134.17 5.8419L158.649 8.94274L173.475 12.3881L178.646 14.9147L186.001 23.8728L188.414 23.4135L198.068 18.2457L202.665 16.0636L212.549 17.0972L232.431 20.3129L248.29 23.6434L251.508 24.7919L255.416 29.2709L259.898 34.4392L266.334 37.9994L268.862 38.344L268.747 41.5596L271.39 54.6523L270.816 57.5234L267.023 62.0024L251.164 73.7166L232.086 88.1872L202.55 113.224L173.934 137.456L158.879 150.204L134.285 144.347L107.966 136.997L50.6166 121.378L16.5985 111.96L10.5073 110.582L8.09381 109.089L6.14007 104.84V96.5707L6.02515 89.7947V79.6882L7.87069 78.6192Z" fill="#663C00" stroke="black" stroke-width="1.3189"/>
<path d="M131.442 5.14924C130.564 5.14373 129.931 5.1918 129.591 5.28991C128.529 5.59625 123.172 8.10326 117.685 10.8571C108.045 15.6957 107.638 15.9737 105.638 19.2983C104.499 21.1903 103.454 23.0525 103.325 23.4385C103.174 23.8918 101.172 24.0802 97.6534 23.9611L92.2029 23.7802L80.9803 29.3674C74.8017 32.4449 69.2053 35.4173 68.551 35.9795C67.8967 36.5416 66.2035 38.9875 64.79 41.4058L62.2157 45.8072L58.8972 45.2646C50.9991 43.9968 51.2012 43.9277 25.9741 56.8008C22.2043 58.7245 22.3215 58.5916 16.6624 67.3724C13.9994 71.5042 12.0251 73.8114 10.1262 75.0095C4.91721 77.9332 11.4963 75.5527 5.38629 76.0736L4.87695 90.7262C5.0287 104.766 5.0854 105.272 7.39097 108.754C8.82015 110.912 9.52633 111.33 12.6804 111.97C16.2187 112.688 26.679 115.481 73.9194 128.349L158.551 151.12C159.259 151.146 160.997 149.969 162.413 148.508C163.828 147.046 166.295 144.803 167.883 143.523C171.387 140.699 201.456 115.447 209.072 108.935C224.313 95.903 237.53 85.1085 250.141 75.3912C257.815 69.4768 265.593 63.4927 267.417 62.0864C272.379 58.2611 273.054 56.1218 271.098 50.3894C270.52 48.6968 269.868 45.1489 269.649 42.5109L269.247 37.7074L266.814 37.205C262.862 36.3874 261.031 35.1095 258.306 31.256C256.89 29.254 255.204 26.9272 254.565 26.0706C253.897 25.1752 252.047 24.1062 250.201 23.5584C245.376 22.1265 232.031 19.4999 225.483 18.6947C222.298 18.3029 216.519 17.4142 212.652 16.7251C203.721 15.1335 201.297 15.1464 199.238 16.7652C198.338 17.4726 197.336 18.0515 197.005 18.0515C196.674 18.0515 194.634 19.2186 192.48 20.6642C190.326 22.1098 188.059 23.1966 187.432 23.076C186.805 22.9552 184.335 20.538 181.961 17.7097C179.588 14.8814 176.978 12.3795 176.149 12.1425C169.86 10.3452 166.905 9.6823 162.412 9.04742C159.581 8.64724 155.381 8.01151 153.081 7.64058C143.663 6.12227 135.241 5.17189 131.44 5.14844L131.442 5.14924ZM133.855 6.57621C137.762 6.53306 142.815 7.29858 151.151 8.68649C154.16 9.18748 158.939 9.91618 161.77 10.3144C168.111 11.2061 173.676 12.7151 173.676 13.5502C169.893 16.3468 162.682 21.8032 157.848 23.5591C157.265 22.039 155.528 21.6609 138.601 19.2983C136.124 18.9525 133.083 18.5293 131.844 18.3537C130.605 18.1781 125.697 17.3701 120.943 16.565L112.295 15.0978L119.978 11.0381C125.704 8.01012 128.832 6.63181 133.855 6.57632V6.57621ZM176.573 15.1783C176.745 15.1827 176.885 15.2254 176.955 15.2989C178.461 16.8745 182.687 22.9336 182.687 23.5193C182.687 23.9002 182.325 24.6012 181.883 25.0668C181.224 25.76 181.428 25.8508 183.009 25.5693C187.794 24.7171 190.633 23.6673 193.467 21.7306C201.624 16.1571 201.009 16.3175 209.617 17.6305C213.739 18.2592 221.134 19.3416 226.029 20.0222C230.924 20.7029 236.571 21.66 238.579 22.1526C240.586 22.6452 244.029 23.3983 246.241 23.8409C250.285 24.6497 251.226 25.3621 249.137 26.0315C246.505 27.1752 235.499 35.1832 234.858 35.0355C234.305 34.8009 229.942 33.9596 225.164 33.1664C214.903 31.4629 211.216 30.817 198.777 28.584C185.915 26.2751 183.672 26.0792 182.345 27.137C180.973 28.2317 179.271 29.6909 177.921 31.0561C177.914 30.9488 177.901 30.8757 177.881 30.8752C177.663 30.8708 149.614 48.4355 149.422 48.4408C148.221 48.4751 147.46 48.711 146.566 49.084C144.242 50.0543 139.148 56.2105 138.501 58.5701C132.695 61.4121 108.323 73.74 107.992 73.7644C104.06 74.0511 103.946 74.0148 105.779 73.1615C112.396 68.341 118.556 65.9983 123.659 62.5499C126.28 60.84 129.411 59.0926 130.618 58.6509C135.457 56.8787 137.87 55.1198 141.199 51.9031C144.956 47.9591 151.432 47.7644 154.007 44.482C154.213 44.1501 153.902 43.3915 153.324 42.8139C152.351 41.8422 152.489 41.7755 155.093 41.9095C157.42 42.0292 158.81 41.5398 163.118 39.0556C165.985 37.4027 168.614 36.061 168.971 36.061C169.327 36.061 170.409 35.3374 171.364 34.4531C172.319 33.5688 173.381 32.8453 173.717 32.8453C174.053 32.8453 174.32 32.4112 174.32 31.8806C174.32 31.35 174.709 30.9159 175.185 30.9159C176.275 30.9159 178.384 28.631 178.081 27.7806C177.956 27.4304 176.612 27.9826 175.085 29.0267C171.564 31.1751 166.292 33.6796 162.495 35.3375C160.271 37.4252 158.79 36.3066 158.895 32.584C158.935 31.1352 158.775 28.8951 158.533 27.6201C158.168 25.7005 158.307 25.2375 159.297 24.9068C159.954 24.6872 161.787 23.4969 163.38 22.274C164.973 21.0511 166.52 20.0465 166.819 20.023C167.118 19.9996 168.281 19.3317 169.393 18.5358C171.911 16.7338 175.367 15.1506 176.573 15.1795L176.573 15.1783ZM111.694 17.7308C111.817 17.7374 111.948 17.763 112.076 17.7911C124.617 20.8168 140.824 21.2374 150.934 23.9449C152.587 24.4219 153.982 25.0042 154.653 25.5893C155.562 26.3829 156.315 27.2511 156.342 27.5188C156.369 27.7864 156.557 28.6 156.744 29.3075C156.932 30.0149 157.233 31.8238 157.408 33.3271C157.663 35.2056 158.734 36.0779 157.74 37.3422C157.656 37.4476 157.566 37.5566 157.468 37.6683C156.699 38.5526 155.9 39.2345 155.699 39.1957C150.739 38.2425 149.524 37.8551 149.082 37.0653C148.791 36.5458 148.182 35.7362 147.734 35.2766C147.287 34.817 146.119 33.3764 145.14 32.081C143.402 29.7814 140.127 28.0072 136.532 27.4183L107.559 22.6114C107.121 22.0766 107.627 21.0725 109.019 19.4193C109.9 18.3729 110.603 17.8492 111.332 17.7511C111.453 17.7347 111.57 17.7239 111.694 17.7311L111.694 17.7308ZM94.7397 25.2875C99.3694 25.1831 107.874 25.7451 114.107 26.6743C130.408 29.1038 140.856 31.2091 140.856 32.0606C140.856 32.3128 139.556 33.2041 137.96 34.0502C136.364 34.8964 131.948 37.4294 128.166 39.6779C121.057 43.9035 120.594 44.0819 118.975 43.1951C118.027 42.676 110.191 41.2933 85.8299 37.3065C79.1044 36.2058 73.5246 35.2187 73.4211 35.1158C73.1014 34.7984 86.7531 27.6821 91.6225 25.6297C92.0779 25.4377 93.1966 25.3228 94.7399 25.288L94.7397 25.2875ZM251.736 25.7699C251.867 25.7699 252.957 27.1252 254.149 28.7845C256.525 32.0909 260.068 36.1461 261.45 37.2657C259.752 38.5091 241.681 52.5995 241.539 52.7414C239.965 54.3146 239.064 51.9834 237.778 43.0743C237.595 41.8058 237.268 40.3147 237.054 39.7581C236.611 38.6034 235.299 35.8295 236.279 35.8295C238.63 34.8937 249.635 26.1195 251.736 25.7699H251.736ZM184.978 28.4084C195.594 30.5731 232.967 33.9571 235.126 39.6978C236.837 43.7958 235.788 48.2376 236.453 51.0331C236.873 52.703 236.849 52.7237 233.275 52.6811C231.744 52.6629 230.759 52.5647 230.214 52.3576C229.154 50.5371 227.278 48.807 226.031 47.158C224.959 45.2427 223.552 43.9468 222.093 43.1947C203.341 37.7792 194.117 37.7739 180.26 35.0349L178.812 34.7334C180.993 30.1076 183.633 30.9267 184.978 28.4085L184.978 28.4084ZM143.757 33.7688L146.653 36.7634C147.798 37.8532 150.888 43.2937 150.583 43.6979C144.306 45.6545 138.443 50.2218 133.319 53.2441C131.006 54.5822 128.354 56.1783 127.427 56.8014C126.499 57.4245 125.226 58.1159 124.611 58.3288C123.995 58.5418 123.653 58.9599 123.847 59.2735C124.041 59.587 124.064 59.8563 123.887 59.8563C123.199 59.8563 122.886 58.5799 122.197 53.0433L121.473 47.3152L123.686 45.3858C126.001 43.3721 131.167 40.2847 139.091 36.1809L143.757 33.7688ZM175.313 35.5777C175.4 36.0447 175.731 36.3991 176.399 36.6831C177.206 37.0261 184.818 38.4977 193.313 39.9591C201.809 41.4205 210.931 42.9974 213.586 43.4561C218.72 44.3432 220.674 44.9365 220.665 45.6066C220.662 45.8341 218.617 47.4758 216.12 49.2444C213.928 49.4435 204.648 57.6486 203.972 57.8465C200.212 56.4425 195.8 56.068 191.704 55.3745C185.003 54.2892 178.304 53.3061 165.961 50.8927C157.872 49.3112 154.421 50.0893 152.606 48.903C152.045 48.536 169.019 38.9828 175.312 35.5782L175.313 35.5777ZM71.7583 37.5272C87.0807 41.5211 99.0352 41.2624 113.756 44.545C115.204 45.0531 117.172 45.3641 118.042 46.5327C120.281 49.5815 121.55 59.2426 120.791 60.5997C119.826 62.3236 117.743 62.5897 115.3 61.3232C114.372 60.8419 112.732 60.3541 111.64 60.2379C109.649 59.5179 106.106 56.048 104.842 54.7911C102.188 52.1386 101.027 51.4549 98.0245 50.8319L69.1036 45.2647C67.3337 45.0802 65.7784 44.8304 65.6444 44.702C65.0519 44.1339 69.6971 37.9425 70.9538 37.6275C71.1589 37.5761 71.4422 37.5323 71.7583 37.527L71.7583 37.5272ZM262.863 37.5875C263.48 37.6629 264.353 37.8323 265.316 38.0899L268.293 38.8939V39.4566C268.2 39.3647 268.114 39.3243 268.052 39.3762C236.647 62.8244 203.939 92.8488 171.777 112.573C171.527 112.707 171.329 112.808 171.154 112.895C170.931 113.004 168.903 110.844 168.197 110.222C168.257 110.15 168.309 110.081 168.378 110.001C168.975 109.304 169.789 108.734 170.188 108.734C170.803 108.734 178.936 102.834 191.065 93.6005C192.658 92.3878 195.937 89.9884 198.345 88.2542C203.971 83.9686 208.448 80.5059 213.268 76.959C216.094 74.1108 225.302 68.6011 230.642 64.2262C234.282 60.0616 238.51 57.0294 242.732 53.3639C242.885 53.2358 262.553 37.8454 262.864 37.5869L262.863 37.5875ZM268.293 41.4262V43.0943C268.297 45.4543 268.872 49.0784 269.58 51.3347C270.934 55.6498 270.584 58.2135 268.554 58.9918C267.979 59.2122 266.754 60.1106 265.819 60.9815C264.884 61.8524 261.213 64.7443 257.674 67.4127C236.461 82.8401 216.566 100.508 195.488 118.082C195.458 118.116 195.42 118.148 195.387 118.182C195.293 118.28 195.2 118.374 195.086 118.463C194.883 118.622 194.748 118.733 194.623 118.825C194.592 118.848 194.529 118.887 194.502 118.905L164.676 143.787L160.574 147.686C160.554 147.711 160.534 147.741 160.513 147.766C160.368 147.943 160.19 148.123 159.97 148.329C159.775 148.513 159.598 148.66 159.427 148.791C159.412 148.803 159.402 148.82 159.387 148.831C158.523 149.476 157.815 149.469 155.988 149.032C108.659 135.977 60.7433 123.347 12.8354 110.514C11.5946 109.913 9.95464 109.357 9.17703 108.511C8.96375 108.275 8.73617 107.996 8.48803 107.671C6.82911 105.497 6.80598 105.234 6.85898 96.3156C8.30539 82.2536 3.25652 84.7673 10.2177 78.3078C33.2255 82.841 59.1405 88.7799 78.6589 92.9593C78.6145 92.9304 78.5609 92.9086 78.5181 92.8789C78.4837 92.855 78.4691 92.7971 78.4981 92.7181C107.898 99.2484 138.742 105.794 166.023 111.671C166.469 112.539 167.687 114.063 168.684 115.103C168.888 115.316 158.844 148.804 159.021 148.966C159.439 149.35 159.758 149.567 159.867 149.488C160.066 149.342 170.489 115.878 170.703 115.756C214.395 90.9215 265.948 39.8675 268.29 41.4279L268.293 41.4262ZM51.6485 45.5262L56.8374 46.1894C59.6916 46.5525 62.8101 46.8527 63.7762 46.8526C65.3768 46.8525 73.1846 48.1706 91.1688 51.5154C102.851 53.6881 102.909 53.4579 89.2179 60.6802C82.7173 64.1094 76.6866 66.931 75.8234 66.9306C74.728 66.9302 75.5178 66.3173 78.438 64.9409C83.5113 62.5495 88.9189 59.1752 88.4338 58.6905C88.239 58.4959 87.2911 58.9107 86.3221 59.615C82.9816 62.0429 74.2875 65.5298 70.7152 65.8858C57.1328 62.9019 42.2515 60.1046 30.8133 58.7709C29.2204 58.5645 27.6863 58.1911 27.4143 57.9469C27.1424 57.7027 32.4823 54.8105 39.2805 51.5157L51.6485 45.5262ZM222.82 47.0335C223.264 46.9948 224.421 48.1989 226.621 50.9125C228.025 52.6445 229.112 54.2619 229.771 55.563C230.694 57.5655 230.88 58.6321 230.382 60.6601C224.642 63.9488 210.605 76.5658 209.586 75.2312C206.488 70.1872 208.545 74.7203 203.753 61.9664C209.228 55.3148 217.872 53.6929 222.598 47.4758C222.598 47.1961 222.672 47.0465 222.82 47.0336L222.82 47.0335ZM150.343 51.0511L156.209 52.2992C156.533 52.3489 156.795 52.4201 156.993 52.4801C157.045 52.4955 157.131 52.5037 157.174 52.5202C173.047 55.5354 184.773 58.4394 199.389 61.5441C199.561 61.4515 199.771 61.4054 200.013 61.4436C200.551 61.5288 200.893 62.0354 200.837 62.6093C202.902 67.3138 205.008 73.1702 206.626 77.6095C206.76 77.9761 194.141 75.598 194.279 75.9744C194.358 76.1895 195.327 77.05 195.408 77.2688C200.455 82.4595 194.462 78.5237 200.777 83.6718C200.785 83.6434 200.785 83.6177 200.797 83.5914C194.249 75.3564 193.536 71.5393 189.788 69.09C184.191 65.4325 175.022 65.2245 155.263 61.1217C154.333 61.0133 153.378 60.9035 152.709 60.8404C148.669 60.2756 145.575 59.6232 142.352 58.3282C142.035 58.0003 142.377 57.2724 143.377 55.7556C145.014 53.4341 147.308 52.3056 149.593 50.8961L150.343 51.0511ZM103.476 56.118C103.944 56.1125 104.218 56.308 104.501 56.6205C104.89 59.9649 112.732 64.1625 111.972 66.903C107.804 71.9674 86.2628 82.0763 82.1772 85.8632C81.2424 86.7972 80.3112 87.3009 80.1056 86.9686C79.8083 86.4879 77.1492 69.8003 77.1492 68.4179C83.2199 67.3613 90.347 62.0974 94.9885 59.8363C100.413 57.1075 102.445 56.1294 103.476 56.1182L103.476 56.118ZM25.9047 59.8563C27.0367 59.864 28.218 60.0778 28.6198 60.4793C46.1283 63.3542 53.7971 66.0216 70.3921 68.6192C71.8065 68.8413 73.6166 69.4634 74.4145 69.9858C75.0101 75.1756 77.0635 75.3048 77.2703 78.8289C77.3322 80.0669 77.4416 82.0205 77.5117 83.17C77.5817 84.3196 77.4995 86.1391 77.3307 87.2298C77.0005 89.3633 76.7228 89.4709 73.2882 88.6769C36.2906 83.1697 53.1623 83.7256 12.2883 76.2562C16.7836 71.3901 20.6276 65.5187 23.4304 60.4392C23.6759 60.0423 24.7722 59.8483 25.9042 59.8563L25.9047 59.8563ZM139.877 60.2783C141.954 60.9431 147.154 61.8993 160.492 64.3582C178.332 67.6469 185.437 69.3095 186.96 70.5486C187.619 71.0854 187.81 71.3464 187.382 71.1314C177.343 74.1149 170.848 81.8586 162.081 86.1044C146.463 82.2436 175.653 90.0261 112.627 74.6082C111.235 74.8833 135.502 62.5834 139.878 60.2784L139.877 60.2783ZM186.939 74.0054C194.02 74.8059 196.926 84.813 196.713 84.7779C188.014 87.9954 175.597 104.08 168.557 104.615C169.862 96.9275 163.034 89.6907 164.092 88.8579C168.434 83.6013 180.947 74.8719 186.939 74.0054V74.0054ZM105.948 75.6735C125.857 80.0895 139.795 83.24 159.384 87.5111L160.993 88.4154C162.529 95.5133 165.94 100.109 165.94 106.685L164.673 107.71C130.888 101.433 119.629 98.614 92.4896 93.1385C97.3147 87.6294 100.799 80.7354 105.482 75.8138L105.784 75.8741L105.948 75.6735ZM101.201 76.3569C101.418 76.3008 101.17 76.6335 100.578 77.3015C99.833 78.1415 97.9171 80.8548 96.3341 83.3309C89.3567 92.7225 89.8389 93.6495 79.5205 91.4503C79.9974 90.8965 80.3652 90.191 80.3652 89.7822C80.3652 89.3167 83.9129 86.8371 88.2491 84.2755C92.5852 81.7137 97.4364 78.7424 99.0291 77.6833C100.296 76.8409 100.984 76.4129 101.201 76.3569L101.201 76.3569Z" fill="black"/>
</svg>
