<svg width="128" height="128" viewBox="0 0 128 128" fill="none" xmlns="http://www.w3.org/2000/svg">
<path fill-rule="evenodd" clip-rule="evenodd" d="M47.5894 115.709C47.5475 115.741 43.6084 112.359 43.5584 112.374C43.5085 112.389 42.1418 117.398 42.0892 117.396C42.0372 117.393 41.1933 112.27 41.1456 112.249C41.0972 112.229 36.8302 115.188 36.7923 115.152C36.7537 115.116 39.4007 110.65 39.3771 110.603C39.3533 110.556 34.1828 110.08 34.1766 110.028C34.1698 109.977 39.0692 108.256 39.0806 108.205C39.0927 108.154 35.4375 104.466 35.4666 104.421C35.4949 104.378 40.3533 106.209 40.3955 106.177C40.437 106.146 40.0082 100.971 40.0581 100.956C40.1081 100.941 42.6534 105.466 42.7053 105.469C42.7573 105.472 45.7553 101.232 45.8031 101.253C45.8514 101.273 44.8919 106.376 44.9304 106.411C44.9683 106.448 49.9901 105.126 50.0137 105.173C50.0374 105.22 46.0223 108.512 46.0284 108.564C46.0353 108.615 50.731 110.831 50.7187 110.882C50.7079 110.933 45.5154 110.874 45.4871 110.918C45.4587 110.962 47.6316 115.678 47.5894 115.709Z" fill="black" stroke="black" stroke-width="1.1307" stroke-linecap="round" stroke-linejoin="round"/>
<path d="M80.4658 30.3631C88.2677 18.7508 97.0871 14.7933 106.461 14.8725" stroke="black" stroke-width="6.7842" stroke-linecap="round"/>
<path fill-rule="evenodd" clip-rule="evenodd" d="M77.5146 35.7566C58.5641 -0.527592 29.3468 21.9847 20.8949 35.3043C1.37106 66.0254 13.7194 109.286 45.3236 104.085C65.337 133.087 104.742 108.687 114.545 82.8276C122.471 61.9436 118.57 28.8028 77.5146 35.7566Z" fill="url(#paint0_radial_108_104)" stroke="black" stroke-width="8.70662"/>
<defs>
<radialGradient id="paint0_radial_108_104" cx="0" cy="0" r="1" gradientUnits="userSpaceOnUse" gradientTransform="translate(95.7883 84.9429) rotate(44.1944) scale(71.2476 63.3486)">
<stop stop-color="#FF6000"/>
<stop offset="1" stop-color="#C00000"/>
</radialGradient>
</defs>
</svg>
