<svg width="271" height="380" viewBox="0 0 271 380" fill="none" xmlns="http://www.w3.org/2000/svg">
<path d="M184.051 16.7216H187.253C192.741 17.0303 198.06 18.8795 202.774 21.6629C209.827 25.8109 215.704 31.7161 220.593 38.2306C226.816 46.5861 231.494 56.0789 234.423 66.0753C236.151 71.994 237.712 77.9832 238.583 84.0942C239.253 88.957 239.434 93.9768 238.245 98.7746C237.455 102.081 235.989 105.173 234.353 108.135C232.249 111.969 229.293 115.391 225.577 117.733C224.33 118.499 223.04 119.23 221.623 119.618C224.95 117.966 227.635 114.988 228.66 111.384C230.004 106.773 229.06 101.842 227.413 97.4398C226.026 93.7196 224.157 90.1158 221.418 87.2079C218.338 83.8451 214.335 81.4353 210.092 79.8324C203.864 77.4444 197.216 76.54 190.672 75.4651C185.623 74.6285 180.479 73.8135 175.781 71.6853C172.496 70.2097 169.978 67.3586 168.509 64.1041C166.297 59.2765 165.781 53.921 165.134 48.7116C164.777 46.0825 164.545 43.3912 163.571 40.9002C163.109 39.6845 162.251 38.504 160.951 38.1277C159.285 37.6105 157.54 37.1232 155.785 37.2288C154.365 37.7215 153.035 38.4363 151.691 39.0943C148.167 40.9381 144.73 43.0446 141.828 45.7874C138.372 48.9553 136.368 53.4011 135.254 57.8848C135.007 58.8948 134.805 59.9182 134.769 60.9579C134.602 61.9462 134.396 62.9507 134.559 63.9552C132.914 63.1375 131.862 61.5157 131.056 59.9236C129.104 55.6782 128.549 50.3767 131.062 46.2314C131.181 46.0203 131.308 45.8091 131.44 45.6033C133.339 42.7224 135.903 40.3533 138.658 38.3091C142.788 35.2333 147.139 32.4607 151.583 29.8587C152.94 29.1196 154.314 28.2369 155.902 28.1503C163.201 20.6503 173.756 17.0655 184.051 16.7216ZM185.977 23.3497C182.391 24.097 179.248 26.4851 177.28 29.5393C181.26 27.2378 185.863 26.2956 190.415 26.106C194.561 25.8732 198.706 26.2495 202.814 26.7856C202.303 26.4337 201.738 26.1792 201.157 25.9761C197.784 24.6683 194.242 23.8615 190.68 23.2902C189.122 23.0411 187.524 23.0302 185.977 23.3497ZM163.347 29.4689C156.396 30.4057 149.757 33.3163 144.254 37.6511C142.123 39.2757 140.232 41.1845 138.315 43.05C135.483 44.9535 133.247 47.6529 131.327 50.4498C130.313 51.7576 130.486 53.5473 130.764 55.0771C131.359 57.5464 132.157 59.9805 133.269 62.2711C133.709 57.3271 135.186 52.3831 138.161 48.3596C139.965 45.8524 142.42 43.9327 144.849 42.0726C148.235 39.5383 152.086 37.4643 156.296 36.7874C158.168 36.7116 160.145 36.8578 161.832 37.7459C163.836 38.8479 165.004 40.9652 165.699 43.0744C167.409 48.1051 167.106 53.4986 168.055 58.67C168.655 61.6592 169.948 64.5482 172.02 66.8117C175.103 70.2097 179.481 72.0536 183.849 73.1501C188.419 74.1817 193.081 74.7178 197.714 75.3866C203.285 76.207 208.94 77.0626 214.14 79.3288C218.746 81.281 222.757 84.6519 225.347 88.9461C227.267 92.1086 228.744 95.531 229.904 99.04C231.108 102.801 231.689 106.862 230.761 110.753C233.152 107.065 234.764 102.882 235.702 98.5932C236.073 96.6708 236.465 94.7214 236.335 92.7557C237.138 89.3929 236.998 85.8541 236.111 82.5238C234.864 77.6501 232.36 73.207 229.515 69.1023C226.732 65.1087 223.484 61.3451 219.425 58.6051C216.512 56.6015 213.191 55.3235 210.151 53.5446C207.363 51.9255 205.064 49.6213 202.852 47.3091C201.735 46.0852 200.548 44.9183 199.534 43.6078C202.741 43.3641 205.949 43.8623 209.102 44.4065C213.237 45.1349 217.296 46.2206 221.356 47.282C220.766 46.7919 220.052 46.5103 219.363 46.2017C215.871 44.5852 212.288 43.0961 208.523 42.2486C205.443 41.5419 202.076 41.8262 199.301 43.402C196.07 40.0176 192.984 36.3894 189.057 33.7739C187.234 32.5338 185.128 31.8299 183.048 31.1665C176.701 29.217 169.932 28.5456 163.347 29.4689ZM213.37 54.013C213.624 54.1565 213.894 54.2486 214.192 54.2756C216.374 54.5247 218.416 55.4128 220.433 56.2359C222.981 57.2702 225.361 58.6565 227.833 59.8397C227.105 59.0464 226.153 58.5238 225.299 57.8903C223.608 56.7558 221.997 55.4372 220.06 54.7414C217.932 53.9507 215.614 53.791 213.37 54.013Z" fill="#8EBC45" stroke="#8EBC45" stroke-width="0.0938"/>
<path d="M185.977 23.3497C187.524 23.0302 189.122 23.0411 190.68 23.2902C194.241 23.8615 197.784 24.6683 201.157 25.9761C201.738 26.1792 202.303 26.4337 202.814 26.7856C198.706 26.2495 194.561 25.8732 190.415 26.106C185.863 26.2956 181.26 27.2378 177.28 29.5393C179.248 26.4851 182.391 24.097 185.977 23.3497Z" fill="#4C8A3F" stroke="#4C8A3F" stroke-width="0.0938"/>
<path d="M120.055 24.8227C121.367 24.4626 122.746 24.0158 124.114 24.2811C125.045 24.5844 125.136 25.6999 125.323 26.5122C125.688 29.0708 126.624 31.486 127.552 33.8795C129.055 37.7134 130.41 41.6123 131.44 45.6033C131.308 45.8091 131.181 46.0203 131.062 46.2314C129.961 41.9454 128.449 37.7757 126.973 33.606C125.926 30.8551 124.999 28.0555 123.773 25.375C122.365 27.3299 121.012 29.3903 119.149 30.9472C117.708 32.0708 115.942 32.6855 114.168 33.0401C116.239 33.958 117.713 35.7585 119.038 37.532C123.719 43.9354 126.07 51.6276 128.311 59.1385C130.989 67.9056 133.296 76.7783 135.748 85.6077C135.978 83.3171 135.803 81.0156 135.77 78.7196C135.675 74.2819 135.283 69.855 134.918 65.4336C134.872 64.9245 134.699 64.4426 134.559 63.9552C134.396 62.9507 134.602 61.9462 134.77 60.9579C135.221 63.0699 135.505 65.2142 135.838 67.3451C136.465 71.7314 137.011 76.1312 137.263 80.5554C137.347 82.6429 137.479 84.7629 137.087 86.8315C137.006 87.4109 136.606 87.855 136.27 88.3071C133.355 88.9109 130.353 89.1925 127.381 88.9082C127.23 84.2458 126.424 79.6267 125.472 75.0671C125.112 73.2774 124.688 71.5012 124.252 69.7278C122.627 63.5383 120.799 57.3054 117.518 51.7657C115.163 47.7721 112.496 43.8813 109.021 40.7757C107.712 39.6872 106.079 38.4174 104.267 38.9643C103.42 39.0455 102.255 39.5221 101.603 38.7721C101.116 37.7594 101.616 36.606 101.817 35.5717C102.225 33.7225 103.607 32.3037 105.067 31.1963C107.358 29.4634 109.978 28.2342 112.634 27.1755C115.006 26.2631 117.421 25.4373 119.901 24.8633C118.073 25.9761 115.993 26.5582 114.062 27.4598C110.646 28.9923 106.92 30.3299 104.402 33.2459C103.71 34.0095 103.25 34.9463 102.974 35.9318C106.552 35.0789 109.984 33.7062 113.316 32.1629C116.112 30.8145 118.903 29.3687 121.329 27.4111C122.145 26.7017 123.168 25.8624 123.011 24.6548C122.021 24.6142 121.034 24.6954 120.055 24.8227Z" fill="#A1631A" stroke="#A1631A" stroke-width="0.0938"/>
<path d="M120.055 24.8227C121.034 24.6954 122.021 24.6142 123.011 24.6548C123.168 25.8624 122.145 26.7017 121.329 27.4111C118.903 29.3687 116.112 30.8145 113.316 32.1629C109.984 33.7062 106.552 35.0789 102.974 35.9318C103.25 34.9463 103.71 34.0095 104.402 33.2459C106.92 30.3299 110.646 28.9923 114.062 27.4598C115.993 26.5582 118.073 25.9761 119.901 24.8633L120.055 24.8227Z" fill="#D08729" stroke="#D08729" stroke-width="0.0938"/>
<path d="M123.773 25.375C124.999 28.0555 125.926 30.8551 126.973 33.606C128.449 37.7757 129.961 41.9454 131.062 46.2314C128.549 50.3767 129.104 55.6782 131.056 59.9236C131.862 61.5157 132.914 63.1375 134.559 63.9552C134.699 64.4426 134.872 64.9245 134.918 65.4336C135.283 69.855 135.675 74.2819 135.77 78.7196C135.803 81.0156 135.978 83.3171 135.748 85.6077C133.296 76.7783 130.989 67.9056 128.311 59.1385C126.069 51.6276 123.719 43.9354 119.038 37.532C117.713 35.7586 116.239 33.958 114.167 33.0401C115.942 32.6855 117.708 32.0708 119.149 30.9472C121.012 29.3903 122.364 27.3299 123.773 25.375Z" fill="#70461B" stroke="#70461B" stroke-width="0.0938"/>
<path d="M163.347 29.4689C169.932 28.5456 176.701 29.2171 183.048 31.1665C185.128 31.8299 187.235 32.5338 189.057 33.7739C192.984 36.3894 196.07 40.0176 199.302 43.402C202.076 41.8262 205.443 41.5419 208.523 42.2486C212.288 43.0961 215.871 44.5852 219.363 46.2017C220.052 46.5103 220.766 46.7919 221.356 47.282C217.296 46.2206 213.237 45.1349 209.102 44.4065C205.949 43.8623 202.741 43.3641 199.534 43.6078C200.548 44.9183 201.735 46.0852 202.852 47.3091C205.065 49.6213 207.363 51.9255 210.151 53.5446C213.191 55.3235 216.512 56.6015 219.425 58.6051C223.484 61.3451 226.732 65.1087 229.515 69.1023C232.36 73.207 234.864 77.6501 236.111 82.5238C236.998 85.8541 237.139 89.3929 236.335 92.7557C236.13 93.3459 235.867 93.9118 235.6 94.4777C235.692 93.1889 235.995 91.9245 236.07 90.633C236.327 86.4389 235.454 82.1555 233.401 78.4759C230.789 73.6294 227.438 69.2079 223.695 65.1845C221.675 63.0969 219.476 61.1014 216.823 59.8533C208.715 55.3885 201.181 49.5293 195.78 41.9318C192.957 38.2062 189.298 35.0167 184.911 33.2974C179.484 30.9499 173.461 30.3326 167.606 30.7062C161.916 30.9851 156.34 32.6015 151.274 35.1845C147.321 37.0961 143.659 39.56 140.2 42.2513C139.042 43.1232 138.047 44.1926 136.833 44.986C137.29 44.3145 137.777 43.662 138.315 43.05C140.232 41.1845 142.123 39.2757 144.254 37.6511C149.757 33.3163 156.396 30.4057 163.347 29.4689Z" fill="#4C8A3F" stroke="#4C8A3F" stroke-width="0.0938"/>
<path d="M167.606 30.7062C173.461 30.3326 179.484 30.9499 184.911 33.2974C189.298 35.0167 192.957 38.2062 195.78 41.9318C201.181 49.5293 208.715 55.3885 216.823 59.8533C219.476 61.1014 221.675 63.0969 223.695 65.1845C227.438 69.2079 230.789 73.6294 233.401 78.4759C235.454 82.1555 236.327 86.4389 236.07 90.633C235.995 91.9245 235.692 93.1889 235.6 94.4777C235.867 93.9118 236.13 93.3459 236.335 92.7557C236.465 94.7214 236.073 96.6708 235.702 98.5932C234.764 102.882 233.152 107.065 230.762 110.753C231.689 106.862 231.108 102.801 229.904 99.04C228.744 95.531 227.267 92.1086 225.347 88.9461C222.757 84.6519 218.746 81.281 214.14 79.3288C208.94 77.0626 203.285 76.207 197.714 75.3866C193.081 74.7178 188.419 74.1817 183.849 73.1502C179.481 72.0536 175.103 70.2097 172.02 66.8117C169.948 64.5482 168.655 61.6592 168.055 58.67C167.106 53.4986 167.409 48.1051 165.7 43.0744C165.005 40.9652 163.836 38.8479 161.832 37.7459C160.145 36.8578 158.168 36.7116 156.296 36.7874C152.086 37.4643 148.235 39.5383 144.849 42.0726C142.42 43.9327 139.965 45.8524 138.161 48.3596C135.186 52.3831 133.709 57.3271 133.269 62.2711C132.157 59.9805 131.359 57.5464 130.764 55.0771C130.486 53.5473 130.313 51.7576 131.327 50.4498C133.247 47.6529 135.483 44.9535 138.315 43.05C137.777 43.662 137.29 44.3145 136.833 44.986C138.047 44.1926 139.042 43.1232 140.2 42.2513C143.659 39.56 147.321 37.0961 151.274 35.1845C156.34 32.6015 161.916 30.9851 167.606 30.7062ZM175.771 33.4707C177.396 37.9869 177.326 42.9011 176.817 47.6123C176.422 51.3136 175.43 54.9092 174.483 58.4913C174.811 58.0554 175.086 57.5816 175.306 57.0807C177.439 52.5022 179.184 47.5771 179.14 42.4652C179.105 39.2242 178.142 35.7829 175.771 33.4707ZM192.773 41.263C193.138 42.338 193.785 43.2856 194.198 44.3389C195.031 46.4074 195.491 48.6087 195.77 50.8181C196.124 54.3108 196.197 57.8524 195.683 61.3316C195.596 61.9056 195.559 62.4877 195.58 63.0698C196.008 62.2115 196.127 61.2504 196.335 60.3244C197.057 56.8587 197.279 53.2549 196.703 49.7486C196.124 46.6701 194.956 43.5618 192.773 41.263ZM208.077 58.6836C208.434 60.8713 209.473 62.8668 210.6 64.7485C212.572 67.911 214.844 70.892 217.407 73.6023C218.037 74.244 218.63 74.9642 219.463 75.3568C218.394 73.67 216.95 72.2621 215.825 70.6131C212.715 66.281 209.786 61.6755 208.364 56.4823C207.855 57.0997 208.001 57.9498 208.077 58.6836ZM228.606 76.5157C228.487 77.6068 228.579 78.7034 228.52 79.7972C228.463 80.9967 228.187 82.188 228.319 83.3929C228.979 81.1916 229.115 78.7521 228.606 76.5157Z" fill="#6CA442" stroke="#6CA442" stroke-width="0.0938"/>
<path d="M175.771 33.4706C178.142 35.7829 179.105 39.2242 179.14 42.4652C179.184 47.5771 177.439 52.5022 175.306 57.0807C175.086 57.5816 174.811 58.0554 174.483 58.4913C175.43 54.9092 176.422 51.3136 176.817 47.6123C177.326 42.9011 177.396 37.9869 175.771 33.4706Z" fill="#4C8A3F" stroke="#4C8A3F" stroke-width="0.0938"/>
<path d="M192.773 41.263C194.955 43.5618 196.124 46.6701 196.702 49.7486C197.278 53.2549 197.057 56.8587 196.335 60.3244C196.126 61.2504 196.007 62.2115 195.58 63.0698C195.558 62.4877 195.596 61.9056 195.683 61.3316C196.197 57.8524 196.124 54.3108 195.769 50.8181C195.491 48.6087 195.031 46.4074 194.198 44.3389C193.784 43.2856 193.138 42.338 192.773 41.263Z" fill="#4C8A3F" stroke="#4C8A3F" stroke-width="0.0938"/>
<path d="M213.37 54.013C215.614 53.791 217.932 53.9507 220.06 54.7414C221.997 55.4372 223.608 56.7558 225.299 57.8903C226.153 58.5238 227.105 59.0464 227.833 59.8397C225.361 58.6565 222.981 57.2702 220.433 56.2359C218.416 55.4128 216.374 54.5247 214.192 54.2756C213.894 54.2486 213.624 54.1565 213.37 54.013Z" fill="#4D8B3F" stroke="#4D8B3F" stroke-width="0.0938"/>
<path d="M208.077 58.6836C208.001 57.9498 207.855 57.0997 208.364 56.4823C209.786 61.6755 212.715 66.281 215.825 70.6132C216.95 72.2621 218.394 73.67 219.463 75.3568C218.63 74.9642 218.037 74.244 217.407 73.6023C214.843 70.892 212.572 67.911 210.6 64.7486C209.473 62.8668 208.434 60.8713 208.077 58.6836Z" fill="#4C8A3F" stroke="#4C8A3F" stroke-width="0.0938"/>
<path d="M135.838 67.3451C140.968 66.9011 146.204 67.1935 151.142 68.7341C159.788 70.8893 167.885 76.1664 172.469 83.929C170.01 87.2701 167.557 90.6221 164.956 93.8523C164.52 94.3207 164.902 94.984 164.972 95.5255C166.327 100.223 167.146 105.045 168.012 109.851C170.694 125.555 171.7 141.481 172.972 157.339C173.423 161.106 173.602 164.915 174.448 168.625C176.409 177.519 179.243 186.213 182.751 194.615C186.821 204.411 191.699 213.866 195.364 223.829C198.236 231.481 199.959 239.569 200.299 247.74C201.054 261.703 200.892 275.782 198.677 289.615C197.078 299.409 194.444 309.153 189.741 317.939C186.948 323.211 183.224 327.927 179.11 332.219C177.436 333.909 175.679 335.582 173.558 336.697C172.606 337.166 171.406 337.58 170.408 337.009C169.415 336.386 169.161 335.119 169.045 334.038C168.82 331.339 169.386 328.653 169.989 326.038C170.93 322.274 171.846 318.497 172.414 314.655C172.734 312.324 173.15 309.933 172.717 307.591C172.642 306.882 172.03 306.042 171.235 306.44C169.921 307.033 169.061 308.27 168.185 309.367C163.22 316.531 157.037 322.742 150.712 328.699C147.686 331.526 144.519 334.195 141.333 336.841C138.988 338.582 136.676 340.369 134.25 341.996C132.617 343.125 130.845 344.038 129.22 345.177C124.331 345.286 119.636 343.331 115.539 340.799C115.555 342.646 115.668 344.563 116.491 346.255C114.324 345.018 112.426 343.369 110.676 341.601C107.174 338.243 104.14 334.431 101.37 330.456C96.4429 323.214 92.0483 315.427 89.8767 306.876C89.3007 305.097 88.6029 303.27 87.2832 301.902C86.5124 301.079 85.3442 300.562 84.2164 300.86C82.7236 301.231 81.6446 302.468 80.8684 303.733C79.5162 306.021 78.7725 308.658 78.6806 311.314C78.5562 313.656 78.8942 316.003 78.6833 318.345C78.118 324.213 75.7409 330.015 71.6113 334.271C69.7074 336.14 67.3519 337.699 64.6719 338.102C61.7268 338.495 58.8142 337.612 56.0476 336.7C48.4185 334.093 41.2492 330.367 34.0826 326.717C36.5057 329.533 39.2507 332.073 42.1011 334.455C42.9935 335.222 44.0537 335.85 44.6378 336.914C38.4285 332.687 32.7575 327.646 27.9085 321.9C23.3624 316.491 19.6358 310.377 17.0207 303.803C14.1486 296.728 12.8613 289.125 12.2961 281.544C11.2116 268.336 12.526 254.929 16.2661 242.214C21.875 222.995 32.8981 205.634 46.8148 191.368C53.3594 184.683 60.5179 178.57 68.3255 173.412C71.1191 170.883 73.2258 167.682 75.0918 164.431C80.5817 154.556 83.0589 143.303 84.0785 132.135C85.0981 122.864 86.5287 113.574 89.4494 104.691C92.1186 96.4597 96.2861 88.5806 102.409 82.3965C108.391 76.3072 116.109 72.1294 124.252 69.7278C124.688 71.5013 125.112 73.2774 125.472 75.0671C125.207 75.5328 124.915 76.0121 124.936 76.5698C124.861 78.679 125.026 80.8234 124.539 82.8947C124.439 83.2792 124.233 83.9047 123.717 83.7801C122.721 82.8216 122.283 81.4435 121.402 80.3902C120.371 79.1393 119.298 77.6989 117.643 77.2846C117.545 78.5085 118.6 79.8595 117.729 80.9561C116.569 82.1529 114.408 81.7657 113.443 80.5012C112.737 79.6132 112.826 78.4191 112.723 77.3523C112.247 77.5202 111.587 77.5067 111.352 78.0428C110.673 79.5617 111.003 81.4354 112.058 82.7052C113.408 84.3541 115.395 85.2774 117.31 86.0978C120.561 87.3758 123.952 88.2611 127.381 88.9083C130.353 89.1926 133.355 88.911 136.27 88.3072C138.166 88.2178 139.992 87.6628 141.833 87.2431C144.911 86.4362 148.034 85.5915 150.82 84.0048C151.956 83.2982 153.24 82.4101 153.486 80.9913C153.624 79.9245 152.894 79.0094 152.153 78.3379C150.222 76.605 148.232 74.8126 145.765 73.8866C144.021 73.2368 142.182 72.8875 140.37 72.4895C139.575 72.3514 138.561 72.1159 137.955 72.8198C137.598 74.2657 138.331 75.6926 138.377 77.1384C138.488 78.3812 137.893 79.5292 137.263 80.5554C137.011 76.1312 136.465 71.7314 135.838 67.3451ZM109.562 93.0698C107.539 93.8577 105.968 95.4579 104.645 97.1311C102.268 100.229 100.608 103.808 99.2663 107.458C99.004 108.124 98.8769 108.86 98.4415 109.448C98.4685 109.629 98.5253 109.992 98.5524 110.174C97.0352 111.251 95.5505 112.418 94.4336 113.932C91.2695 118.082 89.8957 123.305 89.3277 128.42C91.164 124.245 93.4384 120.186 96.6106 116.869C96.0157 120.105 95.6668 123.378 95.2801 126.646C94.9772 129.045 94.5742 131.433 94.2308 133.827L94.1686 133.843C93.6061 137.211 92.8542 140.544 92.0862 143.869L92.0375 143.88C91.1613 147.478 90.0714 151.023 88.914 154.537C88.3623 155.78 87.9647 157.085 87.4401 158.339C84.4085 165.909 80.4303 173.32 74.4617 178.984C72.1955 181.188 69.4586 182.796 66.9355 184.667C65.2912 185.875 63.6632 187.101 62.1027 188.412L62.0892 188.487C61.1373 189.164 60.2692 189.952 59.3794 190.71C45.222 202.973 34.1178 218.663 26.8863 235.924L26.8295 235.929C24.7498 240.846 22.8973 245.877 21.51 251.035L21.4505 250.965C20.4769 254.636 19.4817 258.321 18.9814 262.093C22.9757 255.01 26.8727 247.864 31.17 240.957C32.6385 238.488 34.3422 236.16 35.7756 233.671C36.3354 233.138 36.6842 232.407 37.1521 231.792C40.1215 227.522 43.2965 223.396 46.7121 219.473L46.7229 219.362C46.9609 219.172 47.1881 218.972 47.4071 218.763C53.181 212.349 59.7986 206.479 67.6413 202.737C69.8859 201.768 72.2225 200.977 74.3157 199.691C76.7632 198.237 79.0376 196.507 81.2011 194.658C87.7403 188.994 93.3708 182.344 98.3982 175.32C104.302 166.965 109.494 157.976 112.677 148.212C113.375 145.884 114.111 143.525 114.349 141.105C114.971 138.392 115.279 135.617 115.66 132.863C115.755 131.734 116.031 130.608 115.969 129.473C116.247 127.323 116.504 125.149 116.512 122.98C116.753 120.99 116.793 118.984 116.856 116.983C116.983 113.236 117.037 109.475 116.753 105.733C116.658 103.526 116.393 101.322 116.012 99.1456H115.969C115.625 97.2801 115.117 95.3956 114.019 93.8252C112.926 92.5418 111.033 92.4958 109.562 93.0698ZM150.633 123.592C154.603 124.036 158.652 124.987 162.022 127.223C164.204 128.631 165.494 130.997 166.416 133.356C167.836 136.957 168.612 140.769 169.21 144.581C169.68 142.892 169.897 141.143 170.062 139.399C170.375 135.032 169.918 130.342 167.382 126.641C165.902 124.399 163.444 122.918 160.818 122.458C157.405 121.878 153.868 122.417 150.633 123.592ZM115.885 178.448C112.983 180.695 111.074 183.985 109.716 187.345C107.901 191.72 107.352 196.675 108.275 201.332C108.894 204.17 110.214 207.167 112.861 208.637C114.941 209.815 117.572 209.395 119.501 208.115C122.665 206.057 124.682 202.653 125.98 199.182C127.408 195.145 128.025 190.727 127.246 186.486C127.259 184.19 127.005 181.819 126.01 179.72C125.318 178.239 124.011 176.977 122.37 176.658C120.079 176.206 117.702 177.059 115.885 178.448ZM135.705 180.654C134.139 182.688 133.136 185.203 132.895 187.756L132.868 187.829C131.8 192.684 132.29 197.858 134.134 202.467C135.313 205.274 137.09 208.052 139.859 209.501C141.703 210.497 144.064 210.408 145.798 209.214C148.205 207.589 149.503 204.798 150.22 202.069C151.458 197.035 150.985 191.609 149.035 186.822C148.732 185.382 147.978 184.09 147.304 182.799C146.079 180.668 144.389 178.448 141.855 177.898C139.491 177.53 137.157 178.854 135.705 180.654ZM165.375 203.653C163.901 204.256 163.625 206.479 164.915 207.419C166.148 208.521 168.342 207.643 168.507 206.005C168.837 204.34 166.887 202.865 165.375 203.653ZM125.088 207.24C121.797 207.627 118.467 208.602 115.793 210.625C114.127 211.894 112.707 213.814 112.799 216.004C112.853 218.235 114.411 220.096 116.152 221.33C119.576 223.708 123.83 224.563 127.935 224.633C132.084 224.617 136.387 223.8 139.883 221.452C141.85 220.125 143.599 217.962 143.383 215.452C143.161 212.842 141.071 210.876 138.921 209.644C134.745 207.327 129.783 206.734 125.088 207.24ZM85.0007 208.494C83.3267 209.106 83.0211 211.629 84.5085 212.617C85.9094 213.763 88.2541 212.652 88.2838 210.849C88.4677 209.152 86.5422 207.798 85.0007 208.494ZM98.5416 219.072C97.3516 219.562 97.2786 221.441 98.4523 221.996C99.4584 222.624 100.867 221.758 100.867 220.602C100.93 219.44 99.5882 218.536 98.5416 219.072ZM151.572 221.263C150.852 221.566 150.747 222.654 151.42 223.071C151.98 223.529 152.864 223.144 153.035 222.476C153.292 221.677 152.313 220.824 151.572 221.263ZM169.434 223.732C167.733 223.978 166.403 225.654 166.576 227.374C166.673 229.152 168.355 230.663 170.14 230.525C172.006 230.49 173.588 228.698 173.391 226.837C173.299 224.907 171.335 223.345 169.434 223.732ZM71.1164 241.986C76.3467 249.941 83.2997 256.515 89.4792 263.696C92.3566 267.259 94.2767 271.477 95.9399 275.715C100.445 287.482 102.739 299.92 106.208 311.999C107.239 315.375 108.288 318.876 110.56 321.659C114.062 326.073 119.425 328.824 124.971 329.544C131.21 330.408 137.704 328.518 142.658 324.662C144.275 323.498 145.576 321.957 146.647 320.289C148.959 316.686 150.612 312.711 152.188 308.744C154.89 301.78 157.202 294.676 159.709 287.644C161.935 281.465 164.207 275.273 167.268 269.452C169.35 265.439 172.441 261.998 176.068 259.323C182.54 254.555 190.423 252.029 198.336 251.057C195.367 249.976 192.127 250.542 189.084 250.984C185.209 251.75 181.239 252.54 177.753 254.493C174.646 256.196 171.79 258.321 168.68 260.021C164.591 262.32 160.12 263.896 155.536 264.86C146.826 266.682 137.861 266.72 129.006 266.292C124.958 266.046 120.899 265.805 116.893 265.131C112.318 264.378 107.804 263.214 103.458 261.592C94.339 258.218 86.0095 252.773 79.1998 245.831C73.1582 239.642 68.1362 232.385 64.8044 224.382C65.1073 230.723 67.6602 236.742 71.1164 241.986ZM83.681 229.125C82.6506 229.347 81.8231 230.363 81.9231 231.438C81.9718 232.672 83.1996 233.723 84.4328 233.525C85.5524 233.392 86.4773 232.307 86.3691 231.17C86.3259 229.867 84.9575 228.795 83.681 229.125Z" fill="#FBED17" stroke="#FBED17" stroke-width="0.0938"/>
<path d="M137.955 72.8198C138.561 72.1159 139.575 72.3514 140.37 72.4895C142.182 72.8875 144.021 73.2368 145.766 73.8866C148.232 74.8126 150.222 76.605 152.153 78.3379C152.894 79.0093 153.625 79.9245 153.487 80.9913C153.24 82.4101 151.956 83.2981 150.82 84.0048C148.035 85.5915 144.911 86.4362 141.833 87.2431C139.992 87.6627 138.166 88.2178 136.271 88.3072C136.606 87.855 137.006 87.4109 137.087 86.8315C137.479 84.7629 137.347 82.6429 137.263 80.5554C137.893 79.5292 138.488 78.3812 138.377 77.1384C138.331 75.6926 137.598 74.2657 137.955 72.8198Z" fill="#E7C220" stroke="#E7C220" stroke-width="0.0938"/>
<path d="M124.936 76.5698C124.915 76.0121 125.207 75.5328 125.472 75.0671C126.424 79.6267 127.23 84.2458 127.381 88.9082C123.952 88.2611 120.561 87.3757 117.31 86.0978C115.395 85.2774 113.408 84.3541 112.058 82.7052C111.003 81.4353 110.673 79.5617 111.352 78.0427C111.588 77.5066 112.247 77.5202 112.723 77.3523C112.826 78.4191 112.737 79.6131 113.443 80.5012C114.408 81.7656 116.569 82.1528 117.729 80.9561C118.6 79.8595 117.545 78.5084 117.643 77.2846C119.298 77.6989 120.371 79.1393 121.402 80.3902C122.283 81.4434 122.722 82.8216 123.717 83.7801C124.233 83.9046 124.439 83.2792 124.539 82.8947C125.026 80.8234 124.861 78.679 124.936 76.5698Z" fill="#E7C220" stroke="#E7C220" stroke-width="0.0938"/>
<path d="M228.606 76.5157C229.114 78.7521 228.979 81.1916 228.319 83.3929C228.187 82.188 228.463 80.9967 228.519 79.7972C228.579 78.7034 228.487 77.6068 228.606 76.5157Z" fill="#518E40" stroke="#518E40" stroke-width="0.0938"/>
<path d="M98.5523 110.174C100.521 109.272 102.593 108.522 104.786 108.476C106.133 108.541 107.482 108.749 108.75 109.226C109.911 109.67 111.003 110.276 112.004 111.01C112.664 111.489 113.283 112.025 113.873 112.594C113.137 112.201 112.41 111.787 111.614 111.533C110.127 111.094 108.553 111.089 107.025 111.267C102.996 111.752 99.3366 113.915 96.6105 116.869C93.4383 120.186 91.1639 124.245 89.3276 128.42C89.8956 123.305 91.2694 118.082 94.4335 113.932C95.5504 112.418 97.0351 111.251 98.5523 110.174Z" fill="black" stroke="black" stroke-width="0.0938"/>
<path d="M114.819 113.701C114.57 113.404 114.324 113.103 114.092 112.794C114.936 113.482 115.655 114.316 116.188 115.266L116.312 115.497C115.79 114.917 115.32 114.297 114.819 113.701Z" fill="black" stroke="black" stroke-width="0.0938"/>
<path d="M150.633 123.592C153.868 122.417 157.405 121.878 160.818 122.458C163.444 122.918 165.902 124.399 167.382 126.641C169.918 130.342 170.375 135.032 170.062 139.399C169.897 141.143 169.68 142.892 169.21 144.581C168.612 140.769 167.836 136.957 166.416 133.356C165.494 130.997 164.204 128.631 162.021 127.223C158.652 124.987 154.603 124.036 150.633 123.592Z" fill="black" stroke="black" stroke-width="0.0938"/>
<path d="M115.885 178.448C117.702 177.059 120.079 176.206 122.37 176.658C124.011 176.978 125.318 178.239 126.01 179.72C127.005 181.819 127.259 184.19 127.246 186.486C127.13 186.056 127.008 185.628 126.886 185.203C126.324 182.953 125.185 180.589 123.043 179.477C121.037 178.456 118.651 179.119 116.845 180.256C114.606 181.67 112.664 183.549 111.082 185.666C110.633 186.229 110.173 186.784 109.716 187.345C111.074 183.985 112.983 180.695 115.885 178.448Z" fill="black" stroke="black" stroke-width="0.0938"/>
<path d="M135.705 180.654C137.157 178.854 139.491 177.53 141.855 177.898C144.389 178.448 146.079 180.668 147.304 182.799C147.978 184.09 148.732 185.382 149.035 186.822C148.621 186.042 148.132 185.309 147.626 184.588C146.558 182.929 145.119 181.459 143.353 180.552C141.33 179.498 138.75 179.791 136.933 181.139C135.448 182.246 134.337 183.822 133.685 185.55C133.344 186.256 133.117 187.006 132.895 187.756C133.136 185.203 134.139 182.688 135.705 180.654Z" fill="black" stroke="black" stroke-width="0.0938"/>
<path d="M116.845 180.256C118.651 179.119 121.037 178.456 123.043 179.477C125.185 180.589 126.324 182.953 126.886 185.203C125.575 183.738 124.136 182.255 122.208 181.656C119.736 180.803 117.015 181.521 114.865 182.872C113.518 183.684 112.377 184.781 111.082 185.666C112.664 183.549 114.606 181.67 116.845 180.256Z" fill="#ABBDC2" stroke="#ABBDC2" stroke-width="0.0938"/>
<path d="M136.933 181.139C138.75 179.791 141.33 179.498 143.353 180.551C145.119 181.459 146.558 182.929 147.626 184.588C146.168 183.725 144.97 182.431 143.332 181.881C141.219 180.996 138.715 181.375 136.884 182.723C135.657 183.484 134.889 184.762 133.685 185.55C134.337 183.822 135.448 182.246 136.933 181.139Z" fill="#ABBDC2" stroke="#ABBDC2" stroke-width="0.0938"/>
<path d="M114.865 182.872C117.015 181.521 119.736 180.803 122.208 181.656C124.136 182.255 125.574 183.738 126.886 185.203C127.008 185.628 127.13 186.056 127.246 186.486C128.025 190.727 127.408 195.145 125.98 199.182C124.682 202.653 122.665 206.057 119.5 208.115C117.572 209.395 114.941 209.815 112.861 208.637C110.214 207.167 108.894 204.17 108.275 201.332C107.352 196.675 107.901 191.72 109.716 187.345C110.173 186.784 110.633 186.229 111.082 185.666C112.377 184.781 113.518 183.684 114.865 182.872ZM118.524 193.578C117.196 194.198 116.393 195.551 115.887 196.873C115.044 199.261 114.946 202.001 115.977 204.348C116.48 205.448 117.44 206.566 118.749 206.569C119.944 206.569 120.918 205.68 121.55 204.741C122.824 202.8 123.238 200.376 123.003 198.088C122.824 196.67 122.386 195.194 121.358 194.154C120.647 193.402 119.471 193.101 118.524 193.578Z" fill="white" stroke="white" stroke-width="0.0938"/>
<path d="M136.884 182.723C138.715 181.375 141.219 180.996 143.331 181.881C144.97 182.431 146.168 183.725 147.626 184.588C148.132 185.309 148.621 186.042 149.035 186.822C150.985 191.609 151.458 197.035 150.219 202.069C149.503 204.798 148.205 207.589 145.798 209.214C144.064 210.408 141.703 210.497 139.859 209.501C137.09 208.052 135.313 205.274 134.134 202.467C132.289 197.858 131.8 192.684 132.868 187.829L132.895 187.756C133.117 187.006 133.344 186.256 133.685 185.55C134.888 184.762 135.656 183.484 136.884 182.723ZM139.697 193.716C138.104 194.374 137.368 196.131 137.009 197.707C136.589 199.968 136.76 202.41 137.823 204.481C138.358 205.488 139.175 206.471 140.327 206.761C141.428 207.021 142.512 206.355 143.137 205.486C144.229 204.007 144.565 202.112 144.565 200.311C144.513 198.329 144.037 196.25 142.72 194.715C142.004 193.87 140.795 193.261 139.697 193.716Z" fill="white" stroke="white" stroke-width="0.0938"/>
<path d="M118.524 193.578C119.471 193.101 120.647 193.402 121.358 194.154C122.386 195.194 122.824 196.67 123.003 198.088C123.238 200.376 122.824 202.8 121.55 204.741C120.918 205.68 119.944 206.569 118.749 206.569C117.44 206.566 116.48 205.448 115.977 204.348C114.946 202.001 115.044 199.261 115.887 196.873C116.393 195.551 117.196 194.198 118.524 193.578ZM118.043 195.232C117.229 195.7 117.286 196.997 118.135 197.395C119.014 197.972 120.252 196.968 119.925 195.982C119.76 195.167 118.716 194.777 118.043 195.232Z" fill="black" stroke="black" stroke-width="0.0938"/>
<path d="M139.697 193.716C140.795 193.261 142.004 193.87 142.72 194.715C144.037 196.25 144.513 198.329 144.565 200.311C144.565 202.112 144.229 204.007 143.137 205.486C142.512 206.355 141.428 207.021 140.327 206.761C139.175 206.471 138.358 205.488 137.823 204.481C136.76 202.41 136.589 199.968 137.009 197.707C137.368 196.131 138.104 194.374 139.697 193.716ZM139.329 195.714C138.669 196.066 138.477 197.062 139.026 197.593C139.572 198.273 140.814 198.021 141.052 197.179C141.471 196.199 140.235 195.167 139.329 195.714Z" fill="black" stroke="black" stroke-width="0.0938"/>
<path d="M118.043 195.232C118.716 194.777 119.76 195.167 119.925 195.982C120.252 196.968 119.014 197.972 118.135 197.395C117.286 196.997 117.229 195.7 118.043 195.232Z" fill="white" stroke="white" stroke-width="0.0938"/>
<path d="M139.329 195.714C140.235 195.167 141.471 196.199 141.052 197.179C140.814 198.021 139.572 198.273 139.026 197.593C138.477 197.062 138.669 196.066 139.329 195.714Z" fill="white" stroke="white" stroke-width="0.0938"/>
<path d="M204.359 196.957C213.118 206.696 220.726 217.613 225.81 229.735C225.264 229.767 225.147 229.18 224.936 228.809C224.598 228.067 224.209 227.352 223.8 226.651C222.716 224.154 221.226 221.858 219.855 219.516C216.942 214.645 213.689 209.988 210.352 205.404C209.024 203.536 207.623 201.719 206.241 199.892C205.557 198.952 204.597 198.151 204.359 196.957Z" fill="#F7E816" stroke="#F7E816" stroke-width="0.0938"/>
<path d="M165.375 203.653C166.887 202.865 168.837 204.34 168.507 206.005C168.342 207.643 166.148 208.521 164.915 207.419C163.625 206.479 163.901 204.256 165.375 203.653Z" fill="#EE9124" stroke="#EE9124" stroke-width="0.0938"/>
<path d="M125.088 207.24C129.783 206.734 134.745 207.327 138.921 209.644C141.071 210.876 143.161 212.842 143.383 215.452C143.599 217.962 141.85 220.125 139.884 221.452C136.387 223.8 132.084 224.617 127.936 224.633C123.83 224.563 119.576 223.708 116.153 221.33C114.411 220.096 112.853 218.236 112.799 216.004C112.707 213.814 114.127 211.894 115.793 210.625C118.468 208.602 121.797 207.627 125.088 207.24ZM122.884 208.534C120.975 208.867 119.065 209.509 117.535 210.733C116.523 211.561 115.641 212.747 115.69 214.117C115.725 215.663 116.84 216.941 118.059 217.764C120.488 219.332 123.452 219.882 126.305 219.795C128.798 219.689 131.357 219.126 133.455 217.721C134.721 216.849 135.87 215.455 135.735 213.825C135.613 212.103 134.237 210.814 132.825 210.007C129.834 208.31 126.232 208.041 122.884 208.534Z" fill="#EE9124" stroke="#EE9124" stroke-width="0.0938"/>
<path d="M85.0007 208.494C86.5422 207.798 88.4677 209.152 88.2838 210.849C88.2541 212.652 85.9094 213.763 84.5085 212.617C83.0211 211.629 83.3267 209.106 85.0007 208.494Z" fill="#EE9124" stroke="#EE9124" stroke-width="0.0938"/>
<path d="M122.884 208.534C126.232 208.042 129.834 208.31 132.825 210.007C134.237 210.814 135.613 212.103 135.735 213.825C135.87 215.455 134.721 216.849 133.455 217.721C131.357 219.126 128.798 219.689 126.305 219.795C123.452 219.882 120.488 219.332 118.059 217.764C116.84 216.941 115.725 215.663 115.69 214.117C115.641 212.747 116.523 211.561 117.535 210.733C119.065 209.509 120.975 208.867 122.884 208.534Z" fill="#F5BE15" stroke="#F5BE15" stroke-width="0.0938"/>
<path d="M98.5416 219.072C99.5882 218.536 100.93 219.44 100.867 220.602C100.867 221.758 99.4584 222.625 98.4524 221.996C97.2787 221.441 97.3517 219.562 98.5416 219.072Z" fill="#EE9124" stroke="#EE9124" stroke-width="0.0938"/>
<path d="M151.572 221.263C152.313 220.824 153.292 221.677 153.035 222.476C152.864 223.144 151.98 223.529 151.42 223.071C150.747 222.654 150.852 221.566 151.572 221.263Z" fill="#EE9324" stroke="#EE9324" stroke-width="0.0938"/>
<path d="M169.434 223.732C171.335 223.345 173.299 224.907 173.391 226.837C173.588 228.698 172.006 230.49 170.14 230.525C168.355 230.663 166.673 229.152 166.576 227.374C166.403 225.654 167.733 223.978 169.434 223.732Z" fill="#EE9124" stroke="#EE9124" stroke-width="0.0938"/>
<path d="M71.1165 241.986C67.6603 236.742 65.1073 230.723 64.8044 224.382C68.1362 232.385 73.1583 239.642 79.1999 245.831C86.0095 252.773 94.339 258.218 103.458 261.592C107.804 263.214 112.318 264.378 116.894 265.131C120.899 265.805 124.958 266.046 129.006 266.292C137.861 266.72 146.826 266.682 155.536 264.86C160.12 263.896 164.591 262.32 168.68 260.022C171.79 258.321 174.646 256.196 177.753 254.493C181.239 252.54 185.209 251.75 189.084 250.984C192.127 250.542 195.367 249.976 198.336 251.057C190.423 252.029 182.54 254.555 176.068 259.323C172.442 261.998 169.35 265.439 167.268 269.452C164.207 275.273 161.935 281.465 159.709 287.644C157.202 294.676 154.89 301.78 152.188 308.744C150.612 312.711 148.959 316.686 146.647 320.289C145.576 321.957 144.275 323.498 142.658 324.662C137.704 328.518 131.211 330.408 124.972 329.544C119.425 328.824 114.062 326.073 110.56 321.659C108.288 318.876 107.239 315.375 106.209 311.999C102.739 299.92 100.445 287.482 95.94 275.715C94.2768 271.477 92.3567 267.259 89.4792 263.696C83.2997 256.515 76.3467 249.941 71.1165 241.986ZM126.264 282.727C128.203 285.527 129.845 288.549 130.986 291.762C132.073 294.792 132.49 298.095 132.011 301.285C131.979 301.591 131.714 302.227 131.311 301.992C130.318 301.369 129.739 300.291 129.039 299.387C126.697 295.946 124.117 292.634 121.05 289.805C119.584 288.481 117.997 287.189 116.093 286.572C115.044 286.22 113.781 286.299 112.94 287.078C111.685 288.183 111.466 289.97 111.39 291.546C111.277 295.724 112.334 299.853 113.859 303.716C115.422 307.523 117.597 311.189 120.755 313.881C123.108 315.892 126.172 317.151 129.296 316.997C132.027 316.924 134.669 315.673 136.53 313.68C139.191 310.862 140.5 307.003 140.849 303.191C141.29 297.971 139.889 292.466 136.454 288.435C133.893 285.37 130.164 283.442 126.264 282.727Z" fill="black" stroke="black" stroke-width="0.0938"/>
<path d="M83.6811 229.125C84.9576 228.795 86.326 229.867 86.3693 231.17C86.4774 232.307 85.5525 233.392 84.4329 233.525C83.1997 233.723 81.9719 232.672 81.9233 231.438C81.8232 230.363 82.6507 229.347 83.6811 229.125Z" fill="#EE9124" stroke="#EE9124" stroke-width="0.0938"/>
<path d="M116.753 105.733C116.658 103.526 116.393 101.322 116.012 99.1455H115.969C115.625 97.2801 115.117 95.3956 114.019 93.8252C112.926 92.5418 111.033 92.4958 109.562 93.0698C107.539 93.8577 105.968 95.4579 104.645 97.1311C102.268 100.229 100.608 103.808 99.2664 107.458C99.0041 108.124 98.877 108.86 98.4416 109.448C98.4686 109.629 98.5254 109.992 98.5525 110.173C100.521 109.272 102.593 108.522 104.786 108.476C106.133 108.541 107.482 108.749 108.751 109.226C109.911 109.67 111.003 110.276 112.004 111.01C112.664 111.489 113.283 112.025 113.873 112.594C113.137 112.201 112.41 111.787 111.615 111.533C110.127 111.094 108.553 111.089 107.025 111.267C102.996 111.752 99.3367 113.915 96.6107 116.869C96.0157 120.105 95.6669 123.378 95.2801 126.646C94.9772 129.045 94.5743 131.433 94.2308 133.827L94.1686 133.843C93.6061 137.211 92.8543 140.544 92.0862 143.869L92.0376 143.88C91.1614 147.479 90.0715 151.023 88.914 154.537C88.3624 155.78 87.9648 157.085 87.4401 158.339C84.4085 165.909 80.4304 173.32 74.4618 178.984C72.1955 181.188 69.4587 182.796 66.9355 184.667C65.2912 185.875 63.6632 187.101 62.1028 188.412L62.0893 188.487C61.1373 189.164 60.2692 189.952 59.3795 190.71C45.2221 202.973 34.1179 218.663 26.8864 235.924L26.8296 235.929C24.7499 240.846 22.8974 245.877 21.51 251.035L21.4505 250.965C20.477 254.636 19.4818 258.321 18.9814 262.093C22.9758 255.01 26.8728 247.864 31.1701 240.957C32.6386 238.488 34.3423 236.16 35.7757 233.671C36.3355 233.138 36.6843 232.407 37.1522 231.792C40.1216 227.522 43.2965 223.396 46.7122 219.473L46.723 219.362C46.961 219.172 47.1881 218.972 47.4072 218.763C53.1811 212.349 59.7986 206.479 67.6414 202.737C69.886 201.768 72.2226 200.977 74.3158 199.691C76.7632 198.237 79.0376 196.507 81.2011 194.658C87.7403 188.994 93.3708 182.344 98.3983 175.32C104.302 166.965 109.494 157.976 112.677 148.212C113.375 145.884 114.111 143.525 114.349 141.105C114.971 138.392 115.279 135.617 115.66 132.863C115.755 131.734 116.031 130.608 115.969 129.473C116.247 127.323 116.504 125.149 116.512 122.98C116.753 120.99 116.793 118.984 116.856 116.983C116.983 113.236 117.037 109.475 116.753 105.733ZM114.819 113.701C114.571 113.404 114.324 113.103 114.092 112.794C114.936 113.482 115.655 114.316 116.188 115.266L116.312 115.497C115.79 114.917 115.32 114.297 114.819 113.701Z" fill="url(#paint0_linear_109_327)" stroke="#FAF165" stroke-width="0.0938"/>
<path d="M126.264 282.727C130.164 283.442 133.893 285.37 136.454 288.435C139.889 292.466 141.29 297.971 140.849 303.191C140.5 307.003 139.191 310.862 136.53 313.68C134.669 315.673 132.027 316.924 129.296 316.997C126.172 317.151 123.108 315.892 120.755 313.881C117.597 311.189 115.422 307.523 113.859 303.716C112.334 299.853 111.277 295.724 111.39 291.546C111.466 289.97 111.685 288.183 112.94 287.078C113.781 286.298 115.044 286.22 116.093 286.572C117.997 287.189 119.584 288.481 121.05 289.805C124.117 292.634 126.697 295.946 129.039 299.387C129.739 300.291 130.318 301.369 131.311 301.992C131.714 302.227 131.979 301.591 132.011 301.285C132.49 298.095 132.073 294.792 130.986 291.762C129.845 288.548 128.203 285.527 126.264 282.727Z" fill="#E22528" stroke="#E22528" stroke-width="0.0938"/>
<path d="M235.824 262.502C234.84 254.04 232.208 245.866 229.109 237.968C227.938 235.25 226.994 232.445 225.81 229.735C225.263 229.767 225.147 229.18 224.936 228.809C224.598 228.067 224.209 227.352 223.8 226.651C222.716 224.154 221.226 221.858 219.855 219.516C216.942 214.645 213.689 209.988 210.351 205.404C209.024 203.536 207.623 201.719 206.241 199.892C205.557 198.952 204.596 198.151 204.358 196.957C203.242 195.616 201.981 194.398 200.91 193.02C198.301 189.646 195.718 186.254 193.26 182.769C187.967 175.193 183.099 167.079 180.83 158.033C180.192 155.563 179.697 153.056 179.319 150.533C177.255 136.423 178.591 122.136 177.983 107.945C177.558 99.7304 176.541 91.2259 172.468 83.929C170.01 87.2702 167.557 90.6221 164.956 93.8523C164.52 94.3207 164.902 94.9841 164.972 95.5256C166.327 100.223 167.146 105.045 168.012 109.851C170.694 125.555 171.7 141.481 172.971 157.339C173.423 161.106 173.602 164.915 174.448 168.625C176.409 177.519 179.243 186.213 182.75 194.615C186.821 204.411 191.699 213.865 195.364 223.829C198.236 231.481 199.958 239.569 200.299 247.74C201.054 261.703 200.891 275.782 198.677 289.615C197.078 299.409 194.444 309.153 189.741 317.939C186.948 323.211 183.224 327.927 179.11 332.219C177.436 333.909 175.679 335.582 173.558 336.697C172.606 337.166 171.406 337.58 170.408 337.009C169.415 336.386 169.161 335.119 169.045 334.038C168.82 331.339 169.385 328.653 169.989 326.038C170.93 322.274 171.846 318.497 172.414 314.655C172.733 312.324 173.15 309.933 172.717 307.591C172.642 306.882 172.03 306.042 171.235 306.44C169.921 307.033 169.061 308.27 168.185 309.367C163.219 316.531 157.037 322.742 150.712 328.699C147.686 331.526 144.519 334.195 141.333 336.841C141.341 338.279 140.716 339.603 140.229 340.924C138.747 344.617 136.103 348.083 132.3 349.564C129.474 350.679 126.351 350.471 123.395 350.138C120.739 349.783 117.835 348.762 116.49 346.255C114.324 345.018 112.426 343.369 110.676 341.601C107.174 338.243 104.14 334.431 101.37 330.456C96.4429 323.214 92.0483 315.427 89.8766 306.876C89.3006 305.097 88.6029 303.27 87.2831 301.902C86.5124 301.079 85.3441 300.562 84.2164 300.86C82.7236 301.231 81.6445 302.468 80.8683 303.733C79.5161 306.021 78.7724 308.658 78.6805 311.314C78.5561 313.656 78.8941 316.003 78.6832 318.345C78.118 324.213 75.7408 330.015 71.6112 334.271C69.7073 336.14 67.3518 337.699 64.6718 338.103C61.7267 338.495 58.8141 337.612 56.0475 336.7C48.4184 334.093 41.2491 330.367 34.0825 326.717C36.5056 329.533 39.2506 332.073 42.101 334.455C42.9935 335.222 44.0536 335.85 44.6377 336.914C46.6092 338.349 48.7078 339.594 50.7604 340.908C51.4203 341.319 52.0775 341.733 52.7373 342.15C58.5842 345.816 64.8313 348.83 71.3192 351.175C74.7672 352.296 78.2397 353.373 81.7986 354.093C83.6998 354.543 85.6389 354.803 87.5427 355.233C88.6786 355.409 89.7928 355.696 90.9286 355.864C91.7264 355.729 92.5378 355.65 93.3437 355.767C95.6721 356.043 98.0195 356.097 100.353 356.314C102.365 356.492 104.399 356.419 106.392 356.779C108.404 356.758 110.408 356.996 112.418 357.037C114.706 357.256 117.021 357.337 119.262 357.895C122.381 358.64 125.485 359.441 128.633 360.064C133.582 360.884 138.615 361.228 143.629 360.965C148.932 360.76 154.19 359.942 159.404 358.981C160.399 358.761 161.397 358.545 162.395 358.32C168.223 357.061 173.945 355.358 179.64 353.606C183.567 352.236 187.375 350.544 191.039 348.578C200.242 343.469 208.372 336.519 215.098 328.431C219.127 323.601 222.627 318.337 225.642 312.819C229.058 306.392 231.792 299.587 233.623 292.537C236.192 282.779 237.025 272.531 235.824 262.502Z" fill="url(#paint1_linear_109_327)" stroke="#F6CD11" stroke-width="0.0938"/>
<path d="M134.25 341.996C136.676 340.369 138.988 338.582 141.333 336.841C140.884 339.02 139.288 340.748 137.604 342.099C135.189 343.894 132.243 345.066 129.22 345.177C130.845 344.038 132.617 343.125 134.25 341.996Z" fill="#F5C610" stroke="#F5C610" stroke-width="0.0938"/>
<path d="M141.333 336.841C141.341 338.279 140.716 339.603 140.23 340.924C138.748 344.617 136.103 348.083 132.3 349.564C129.474 350.679 126.351 350.471 123.395 350.138C120.739 349.783 117.835 348.762 116.491 346.255C115.668 344.563 115.555 342.646 115.539 340.799C119.636 343.331 124.331 345.286 129.22 345.177C132.244 345.066 135.189 343.894 137.604 342.099C139.288 340.748 140.884 339.02 141.333 336.841Z" fill="black" stroke="black" stroke-width="0.0938"/>
<path d="M90.9287 355.864C91.7265 355.729 92.5378 355.65 93.3437 355.767C95.6722 356.043 98.0196 356.097 100.353 356.314C102.366 356.492 104.399 356.419 106.392 356.779C104.378 356.888 102.366 357.134 100.345 357.031C97.1812 356.888 94.036 356.457 90.9287 355.864Z" fill="#FFF10B" stroke="#FFF10B" stroke-width="0.0938"/>
<defs>
<linearGradient id="paint0_linear_109_327" x1="84.2504" y1="192.844" x2="49.1025" y2="163.386" gradientUnits="userSpaceOnUse">
<stop stop-color="#FAF165"/>
<stop offset="1" stop-color="#FEFDEC"/>
</linearGradient>
<linearGradient id="paint1_linear_109_327" x1="135.223" y1="361.052" x2="135.223" y2="83.929" gradientUnits="userSpaceOnUse">
<stop stop-color="#F8D914"/>
<stop offset="0.2404" stop-color="#F6CD11"/>
<stop offset="0.5043" stop-color="#F8D914"/>
<stop offset="1" stop-color="#F6CD11"/>
</linearGradient>
</defs>
</svg>
